<mxfile host="app.diagrams.net" agent="Mozilla/5.0 (Windows NT 10.0; Win64; x64) AppleWebKit/537.36 (KHTML, like Gecko) Chrome/131.0.0.0 Safari/537.36" version="24.8.4">
  <diagram name="Page-1" id="ZJ7Nt3ii4sNSgKLpaq5y">
    <mxGraphModel dx="5050" dy="2610" grid="1" gridSize="10" guides="1" tooltips="1" connect="1" arrows="1" fold="1" page="1" pageScale="1" pageWidth="1200" pageHeight="1920" math="0" shadow="0">
      <root>
        <mxCell id="0" />
        <mxCell id="1" parent="0" />
        <mxCell id="DSl8sD201AtZQCHesUCh-50" value="" style="shape=image;verticalLabelPosition=bottom;labelBackgroundColor=default;verticalAlign=top;aspect=fixed;imageAspect=0;image=data:image/png,iVBORw0KGgoAAAANSUhEUgAAALkAAAEvCAYAAAAZ5WC2AAAABmJLR0QA/wD/AP+gvaeTAAAgAElEQVR4nO2deXiMVxvG78msmez7vpAQSUhEEIJQO0XtRJBSSylqqaK2D7XVvpaiUerDpyhqbVNiCZKIPRGRSCSyB9lnP98faVJJZiYzySSRcX7XNddVZ3me57xz5+2Z933OOQxCCAGFosXoNHQAFEpdQ0VO0XqoyClaD6u+HMlEYhTHvYY4Jx/SwpL6ckv5wGBw2GAZ60HPzQ4sY/168VmnIpfkFSHzfzeRezEK+ZHPQSTSunRHaWToNrGGWZ82sBodAL6bfZ35YdTF0xVZiQgpu/5A6u4/wNBhwLSrF4z93aHXwh5cC2Mw9biadklpJMjEEkjeFaH4RRryouLx5uojlLzKhlmfNmiyPAi6Taw07lPjIs+9GIWEpYchySuC/cQ+sB7WiYqaohhC8O52LJK2n4XgVTbspvaD47yh0OGyNeZCcyInBEnrTiBlxzlYDmwPx68GgmNmoBHTFO2HSKTIOBmOlD3nwXezh0fIHLDNDTViWyMilwlEiJvxI3Kv3IfL4lGwHNBeE7FRPkKKkzIRN3cfiAzw/HWeRubqtRe5jCB2yna8uxmDFhsnwdCnaa2DonzciPOK8GzeAQjTc9H6wgpwbc1qZa/Wz8mT1p9A7pVouK2fQAVO0QhsIz14bJsKliEfT8dthrRIUCt7tRJ5zoVIpOw4B5fFo2HUtlmtAqlrAoZ8Cpa9udxP/6CR6Bc0Aix7c7zLz9Oo35ranb10EbhOVjh5/myVut/+OAOTFs6YMn+23L4SiQST5s2CuYcLzD1c8NWib9DYUpSYely02DQJoow3iJ9/oFa2aixyWYkIict+heXA9o1iDt6lfQfkx6dAmJyJMUOGY1rwRBQlpuFN7Eu09myJi0dOgMlkatxvTe1uXbUWPTp3lVs3fMBnWDJ7vsK+l66G4q/r1/A07A6iLl/FkVMnEPkgWu0YGhqerRlcl49B9unbyAuPrbGdGos8Zec5SN4VwnH6gBo7r09WL1oKvq5uueAYDAa4HA4MDQyw5rtlDRyd+ujoMBTWsdks6PJ4sDQ3h621NfT5erC1tqnH6DSHSScPmHRpiReLfqnxy8QaiVySV4TUH8/D/ou+4GjoMc+HwvINa2Hn4w47H3fcvHsHADBtwVyw7M2x9/BBeAT4IeL+Pazetgl2Pu6w8HTFmu2bAQBZOTnoMrg/9Jrawt7HA0kpr5TaBYBdIfvh0sEHxm5O6BM4rEKfymw/sBeuHduA38QW32/ZqLBd984B0NXVxedfT8fM7xZg36btsLexre2laTCc5wxGyct0ZJ+5U31jOdRI5Jn/uwmGDgPWwzrVyOmHzIr5i5Ac+Rj9uvfC8bOnAAA/rt8MJpMJPx9f7Fq7EXeio3D8zGlEXb6Gx9fC8ePBA0hITsLJ82fRvKkL3jxLwu8Hj0BfT0+p3ehHD7Fi03qcOnAYyVGPYWdtg1lLFsiNK/JBNJas+x6Hd+xBXnwy5n75lcIxHD19Eu7NmiPyQTTevHuLHl0CcOnqXzB2cwK/iS1++d9RDV6xukfX0QKmXb2QfujvGvWvkchzL0bBtKuX1r7JZLFYcG/mBqFIVKHc2dERn3TqAh0dHcQ8fwaHNp6w9/FAelYm4l7Ew79te5y9fBHTF86DQCCEuamZUrs3I+8goIM/vD1bwsjAEDMmTEZ4ZITcmK6G30Svrp+gY9v2YLPY4HF5ctvdiriDZT+swcFtu3Ht1HkkvkrCoOAx6OLnj0G9+2Hnmh8QPDJQA1epfrHo1xb5Uc8hylb/wYDaIpcJxciPeg5jf3e1nWkLhBAM6NUHktSc8k//Hr3g7dkSsTfuwterNcZMn4TjZ06rZxcEDIb8ubZUKgWXU/1N5U70PdhYWYPNYsPS3ByhJ86guKQEXYd+isycbHw+aoxaMX0oGPu5gcHUqdEPULVFXhz/GkQshV4dZo196LTz9sHVWzdw/U44RGIRsnNzIZVKEfXwPkRiMaaMDcbYYSNx/8lDpXa6tO+IsNu38PDpE+QV5GNXyH4EdPSX29bXyxt/hl3Fo5ineJefh+jHD+S2a+XujujHD3Hk1AkUl5SAqcPE3KnTEZ+YgJfJSbgdJf//FB86Ojw2dJ0sURSbon5fdTuIMt8BALhWxmo7+xDwH9gH/zv3O/b9eggDxo0uL5+2YC6kUilGf/kFYuOfY92OLTj2+0ncirhTXtdpYB/kFeSjg287zPtyBoKmT4aFpyu+XbUMMiLDsxfx8O7eGYbNHBF68zomBQUrtevTygvLv1mAwROC4NzOCxlZWdi6ci0AYO7yxQi9GYavFs1H2O1b6N21O4JHBqLnyMHw+qQTMrOzcfT0b7h+J7zC+Hp37Y51i5dj1eYfYOHpAo8Av/LHifa2dug2bCAGjh+NxgjH0hiirHdq91P7tX7OubuInbID/pFbAQX/a6VQ6oK4BSHQ0eOixd6ZavVT+05e/idBBU6pbxgM1OTFLV3jSdF6qMgpWg8VOUXroSKnaD11LvK1O7ZA38UOHEdLtOvXvU59KUtPLYuDZW+OZy/iq9R/v3UjWPbmcOngg1evU2scQ/v+PRB2+1aN+yvi/fhZ9uYwcLWHZ9cOmDhnhtJ8l7qkrsaqaepc5ItmzsGsL6ZiQK8+iLxYs9wDVVGWnloWB4vFwv4jhyrUicQi/Hz0VwDArXOX4WhX8xddERdC0bWj5nN6yuIf1KcfJKk5eHH7PtYt/g+iHz+C/8DeSE1Pq9bG7KWLahVD5f51NVZN89FNV4b0G4BDJ45BIBSWlx0/cxrd/Ds3YFTqY2VhgYG9++LKsVMghGDL3t1K28tkMpz781KN/dW2f0PyQYhcWbrpweP/hVuntuA3KU1fffIsBgDQaVBf6DrbwMLTFTtD9qns68vxE5BfWIDf/jhTXrbvyCHMmDC5Slt5PhavXQWWvTma+fsiLTMDzu284NzOCwKhEDtD9oHnbF2es1KWotvUrzX4TWxh2MwB3j26wMbbDbrONhgwbjRkMlmtxmNpbo7Rnw3DzYh/01DlpQEPnxyM5NQUsOzNy6dz8toB8q955f6Vxwoo/h6/XroQLHtzzF+5DHY+7rD38cCde5Eqj7G2NLjIlaWbPnz6BLOWLMCBzTvxNi4J21evh1RaKopbZy+hJCkdIVt3Yf+Rwyr7s7OxxWd9+mPv4YMAgLDbt+DbyhumJiZV2srzsXrRUiycMRveHi2hx+dj7LCReHw1HDwuFzMmTEb3TgHl/X9cvxlcDgd/HD6Gd8+TMHzAZ2jt2RJxN6MQdysSoTfC8DojvVbjAQBLCwvk/bO8LuL+PblpwLvXbQKXw4EkNQfDPh2ksJ2ia165f+WxKvset61aByaTicWz5yEp8hG6dw7AyfPn1Bpjbai3vRAV8X66KQDMmDAZvUcPBQBcvxuObv6d0dmvAwBgaP+BAIDs3FxMmP0VwqPuoqi4GK7OTdTyOWPiZHwybCCexsViV8h+bFi2ssoaSGU+Vi1YjHEzp6Lb0IG4fvo8DPSV7+lnaW4BDpsDTzd3xCXEw9DAAIYGBjA1MYZQJKr1eDKzsmBqYgoAiHgQXZ4GXEbci3i08fKu0EdRu4Tkl3KveUZ2ltIYlH2P78NmseHZwh2vVfgNoSka/E5emffTTWUyGXR0qoYYcvwIZDIZ4sPv4dZZ9eeJXfw6opW7JxauXgF9PT042Tuo5UMsEcPR1h5cDgdHfz+ptn91fFWHVCrFxb//RJd/RKkoDbgyitopuubqoixtuL5pEJFLpVKs3rYJSSmvlKabdmnfEaE3wnDx779QXFKCgsJC5BXkQygUgsfjgsvhIv5lYo1imDFxEi5dDcU8BStsFPmQSCRYs20z5kz9Cmd/OYote3fh75vXaxRDdb7kIZVKIZFIIJaIERv/HGNnTEVBUSG+njwNgOI0YAYYEEskSMvMgEAoVNhO0TWv3L8y6qQN1ztETbLO3CHXrYOIJDVHpc/qRUsJj8slAKp8sp7EE0lqDtm6ai1xsLUjBvr6pHfX7uRlxMPy/rvXbSIuTs6Ew+YQX6/W5NHfN8nTsDvEwdaOmJmYkkljxhEGg0HWfreczPpiKmEymcTc1IyEnjgjNw57G1sSefFvUvAilYwfMZpIUnNI5MW/iYOtHQFAmjg6kcS7DxT6aOPlTfT19EjEhVBy8cgJwmFzCJvFJpePniz3b2ZiSkJPnCFTxgYTAKRlCw9y/fR5YmRgSHhcLgnZuosEDR1BABD/dn4Kfb0f/4ZlK4mZiSlhs9iEwWAQHR0dYmluTgIHDyPPw+9VaLts7rfExtKK6PH5ZNzwUaQkKZ0IkzNJGy9vosfnk51rNihsp+iaV+5feazKvscZEyYTAKRnQDcSfSWMGBsaET0+n9z+44rKOpKk5pCnYzeSmMnb1ZUsUTvVNvvsXTybugP+Uds0/OdGoSgnbuFBMHQ5cP+pjlNtKZTGBhU5ReuhIqdoPVTkFK2Hipyi9TRKkb/OSMfqbZsqpJ+yHSzg0MYTq7ZsgFRasz3zNG2vDFVSUpWlCSuiup16Ncnpi38g9EaYRm3WFw3+Wl9d0rMy8eW3c3B8bwj4urooKCjAs4R4HP3xACLvR2PYpPGwt7HFhNFBatteNHOORuzNXroIW1etLf93xIXQavtsXbUWzxMT1Iq3S/sOuPTf38DlcDBh9lcwMjTExuXfQygUYt2OLWrZqo4h/QZg0ZoVKCgqxOC+n2rUdl2j9p287MAimVii8WBUYdqCuZgYOBZ8Xd0K5VwOB539OmBIv09r/QayNvbqMyW1vnfqXThzDmYtXoC3eervfaIJZEIxdHjqH5iltsjZpqXJSJJ3RWo7qy0Z2Vm4cu0q+n7SU2EbkVgMDocDQH4qqbwdapXxvj156bCV7Tn6tqw2JVVR+nBlFKXCqkKfwGFg2Zujx4jPAABT588Bz9kax34/hekL54HrZIUug/tD38UO/gP7VPi/iCK/RgaG8GnlhaOna5+vUxPEeYVg1+CAW7VFrutaugVw8Yv6yyIr4869SNjb2ECXV3WzS6FIhKu3buD3S+fRv0cvhamklXeoVfTCt7I9QH46bGV7u9ZuVJqSqix9+H0Uxa8qx/f+DH09PWxduQYAsG7JckwbPxGjBw/F5hVrIJVKcfTH/Uh/GAf3Zs0xd/lilfx6NHerkLtebxCCksQM6DZTfwtqtefkbBN96DaxRl5UPIw71u+mn9m5udCXk9Z69vJF6LvYwdrCEotmzsXQ/gOx6+B+uamkLk7OAEp3qG1t2EquH3n2qkuHLbNXXUqqovThyihKhS2LvzqMDY0wfsRo/PTrL9ix+gf899RvmDx2fIU21haWYLFYmBY8EX0Dh6vkV19PH1k52SrFoEkKY1MgLRTA0NdV7b41+uFp2tsHuRei4DRjYL3vpCXvaJJBffrh1IGKCw3KUkl/Dzmitg959t5Ph335KhnBs6apbRdQnD5cmdrEX8bML6bCf0BvrF+yAsmpr+DRvIXcdiKRqPy6quK3IVJoc0MfgGtnDj0PR7X71ugRonVgVwhSsvG2Fue41ARLM3MUFBSo1FZRKmlNUTUdVpWUVHmprHURf7MmTdGxbTssXP0fdPGrmvYqFIlQUFiIHT/vK1+QXJ3fgsICWJiZqxVHbZEJxMg6GwHrwIDqG8tD7bzFf3gyfhOJ6vwNESdlqpUuWZtP6v0YosvjkaLENCJJzSG71m4kujweYTKZxNerdXm5spTTyUHjCQDi5uJKcmMTK7RXZk9ROmxle6qkpMpLZZWXJqwoFbbyp72PL2GxWITNYpO+n/SsUHfl2CnS1NGJiF5llZcVJrwmAIiRgSHh6+qSngHdSFLkI6XXraxuSL8BZPv36+vtO5ek5pCXSw6R8OaTiSg7r0ZarfFhtYKkTNzrthBOsz6DzaguNfsLqwGDJwRhytjP5a52oVQlJe01fvvjDOZMmV5eJhAKoe9iB9GrLLVWAZUIBHDv0h73/7oOE6P62bpbmPEW94evhvOikbCb0q9GNmr8xpPnbAW7KX2Rsuc8ipMya2pGbXav24SdP+9DUXFxvflsjDyKeYr8ggIsXb9a4fEpZTsFqMrKzeuxecXqehM4kUjxYsUR8OwtYDuhd43t1Oq1vuO8oeC72ePZ13shfltYG1MqY2tljb0btmDTnp314q+xsmLzerh08EG/7r1galxxJ4LPvy69q7fp3bXKuUiKOHHud3zSqYvCp0F1wcsNJ1EYk4IWe2aAwa75Gas1nq6UIc7Jx4N+y8E2N4TH1ilg6ss/sIlCUYeUA5eRsvciPEPmwLR3m1rZqnWCFtvcEJ6/zoMwPRePJ22FIC23tiYpHzFEIkXC98eQ+tMluK4JrrXAAQ3cycsQpuXi6bjNEGW8gevyMTDp5KEJs5SPCEFaLhJWHS2douyerhGBAxoUOQBIiwSIn38A2advw6RLSzjPGQxdRwtNmadoKTKBGK8P/onXh6+C52COFntmQM9T/Zc+itCoyMvIC49FwuJDKE5Ig2lAK1j0bwdjP7caZZBRtBRCUBibgtzQB8g6GwEilcJx7hDYTuxdqx+Z8qgTkQOlc6vsM3eQfuhv5Ec9B4OpA10nS3AsjMHUoz9OP1ZkIgnE7wpQkpgBaaEAXDtzWAcGwCa4J9jmhnXis85E/j6i7DzkhceiKOYVRNl5kBYK6trlB8t/bhzDCPdO8DSvujXdx4AOlw2WsR74ze1g6Otao1wUdakXkVP+hcFg4Pjx4xg5UrPL0yiKaZRrPCkUdaAip2g9VOQUrYeKnKL1UJFTtB4qcorWQ0VO0XqoyClaDxU5ReuhIqdoPVTkFK2Hipyi9VCRU7QeKnKK1kNFTtF6qMgpWg8VOUXroSKnaD1U5BSth4qcovVQkVO0HipyitZDRU7ReqjIKVoPFTlF66Eip2g9VOQUrYeKnKL1UJFTtB4qcorWQ0VO0XpYDR2ANnPs2DHk5+dXKf/rr7/w7t27CmVDhw6FuXn9nln/sUA34a9DJk2ahAMHDoDN/vespLLLzWAwAABSqRSGhobIysqq0I6iOeh0pQ4JDCw97lssFpd/JBIJJBJJ+b+ZTCZGjRpFBV6H0Dt5HSKTyWBtbY3s7Gyl7cLCwhAQEFBPUX180Dt5HaKjo4OgoCBwOByFbaytrdG5c+d6jOrjg4q8jgkMDIRIJJJbx+FwMG7cOOjo0K+hLqHTlXrA2dkZycnJcuuio6Ph4+NTzxF9XNBbSD0wbtw4uT8smzZtSgVeD1CR1wNBQUEQi8UVyjgcDoKDgxsooo8LOl2pJ1q2bImYmBi8f7nj4uLQvHnzBozq44DeyeuJ8ePHg8lkAih9EeTl5UUFXk9QkdcTgYGBkEqlAAAWi0WnKvUIna7UIx07dsTdu3cBACkpKbCzs2vgiD4O6J28Hhk3bhwIIejUqRMVeD2ikSxEUXYe8sJjURTzCqLsPEgLBZowq3V4CwrB0mGiJ8MesVN2NHQ4HyQ6XDZYxnrgN7eDYRtX6Hk61tpmjUVOJFJkn7mD9F9CkX8vHgymDnSdrcCxMAKTz6t1YNqICTgIsG2BXtYeICXy34J+7IjzilHy4jUyj4VBWigA19YM1mO6wia4J9jmhjWyWaM5eV54LBIWH0JxQhpMu3rBsn9bGLV3gw6PZtJVR3JqCpzsHRo6jA8fQlD0LBU5fz1A1rm7IBIpHOcOge3E3mCwmWqZUkvk0iIB4ucfQPbp2zDp0hLOcwZD19FC7fgpFHWQCcR4ffBPvD58FTwHc7TYM0OtaYzKIhem5eLpuM0QZbyB6/IxMOnkUeOgKZSaIEjLRcKqoyiMSUGL3dNh2ruNSv1UEnlxXCoej1oHloEuWmyeDJ6tWa0DplBqApFIkbjuBLLO3YXL6vGwCe5ZbZ9qf3iKc/LxdOwmcG3M4LF1Cpj69EclpeFgsJhwWTIaHBsTvPjuF3BtTKu9oyt9Ti4TihEzYQtAZGixYSIVOOWDweGLPrAe4o9n03ej6OkrpW2VivzVplMojktFi21TwTbR12iQFEptaTJ/GPQ9HPDsy50gYqnCdgpFLkjKxOu9F+Ew7VPwna3qJEgKpTYwWEy4/icIgtRspP18RWE7hSJPWH4EPEcLWA/1r5MAKRRNwLUygd3Y7ni1+TTEOVX3uAEUiLw4LhVvrkTDaeYgMFjqPXinUOobu897gcFiIv2Xv+TWyxV5xtEw6DpawMTfvVoHa3dsgb6LHVj25rh+J7y8fPzML8F1soJ7l/Z4l59Xw/CV+3v2Ir5K/fdbN4Jlbw6XDj549Tq1xn7a9++BsNu3ahOqRrh8LRTt+/eAgas9TFo4w7dPt4YOSS3q4zrq8NiwHOiHjKPX5dfLK3xz5T5MP/EG/tnlSRmLZs7BrC+mwsXJGbOWLCzPmT60Yw8+69MfsTciYGxoVIshyPfHYrGw/8ihCnUisQg/H/0VAHDr3GU42tnX2E/EhVB07dipVrHWFqFIhNFffoF13y1HTkwint2IhHuzxrXQor6uo1kPbwhf56AopuqTlioiF78tRMnLDBi1dVXLya61G5GUkow9h0JqHqkaDOk3AIdOHINAKCwvO37mNLr5a88eJmKxGEXFxbC2tAKXw4GVhQV+3flTQ4f1QaLv7gCmPg/5915Uqasi8pL41wAAXRcbtZw4Ozph4/Lv8Z+N65DzJldum10h++HSwQfGbk7oEzgMSSmlf3VfL10Ilr055q9cBjsfd9j7eODOvUil/r4cPwH5hQX47Y8z5WX7jhzCjAmTq7TtNKgvdJ1tYOHpip0h+wAAi9euAsveHM38fZGWmQHndl5wbucFgVCInSH7wHO2xvEzpwEA0xbMBcveHE39WoPfxBaGzRzg3aMLbLzdoOtsgwHjRkMmk2HoF+PAdSp9EnXuyiUYNXfEsh/WqGXjffT19LD463noOuRTfLdmJZ4nJpTXKfM1feE8cJ2s0GVwf+i72MF/YJ/yvsrqymLce/ggPAL8EHH/HlZv2wQ7H3dYeLpizfbNAICsnBx0Gdwfek1tYe/jgaSUV3LLKl9HTWugAgwGdJtaoyQ+rUpV1Tv5m0IAqNFz8UljxqGDb1ssWfd9lbroRw+xYtN6nDpwGMlRj2FnbYNZSxYAALatWgcmk4nFs+chKfIRuncOwMnz55T6srOxxWd9+mPv4YMAgLDbt+DbyhumJiZV2t46ewklSekI2boL+48cBgCsXrQUC2fMhrdHS+jx+Rg7bCQeXw0Hj8vFjAmT0b3Tv9u2/bh+M7gcDv44fAzvnidh+IDP0NqzJeJuRiHuViRCb4ThdUY6ft6ys7zPwN598dXnk9S2UZnl8xYg7PR5SKQS+PXvgTnLvgMApb42r1gDqVSKoz/uR/rDOLg3a465yxdXW/fj+s1gMpnw8/HFrrUbcSc6CsfPnEbU5Wt4fC0cPx48gITkJJw8fxbNm7rgzbMk/H7wCPT19OSWVb6OmtZAZdjGBhC/LaxSXkXkMpGktIJds1TznzZuw5nLFxD96GGF8puRdxDQwR/eni1hZGCIGRMmIzwyomqgLDY8W7hDKCqdhiz7YQ1Y9uZg2ZvDrVPbCm1nTJyM21EReBoXi10h+zF7yrQq9rJzczFg3GiYujfBsEnjIRb/m8e9asFi8HhcdBs6EAtmzIaBvvI/bEtzC3DYHHi6uYPL5cLQwACOdvYwNTGGUMEuWZqw4dHcDT8sXYm7F0IRcvwIbt69o5IvawtLGOjrY1rwxCp3RWV1zo6O+KRTF+jo6CDm+TM4tPGEvY8H0rMyEfciHv5t2+Ps5YuYvnAeBAIhzE3N5JZVpqYaUBUdDgsyobhquVpWVMDG0grbVq3DzCULoCz3i4CUb1+sjJXffgdJag4kqTmIuxVVoa6LX0e0cvfEwtUroK+nJzdPO+T4EchkMsSH38Ots5cq1IklYjja2oPL4eDo7ydVHGHD0bypC/zb+iHxVZJa/UQiUflOAerUEUIwoFef8usvSc1B/x694O3ZErE37sLXqzXGTJ+E42dOyy2rDlU1UFvqZI3nyEFD4OzggL9uXCsv69K+I8Ju38LDp0+QV5CPXSH7EdCx9i+aZkychEtXQzHvy6/k1guFQvB4XHA5XMS/TCwvl0gkWLNtM+ZM/QpnfzmKLXt34e+b8h9BqQqHzYFUKkX0o4coEQjw5t3bWtlLSnmFWUsWIDM7G2KJGJEPovEo5gnatW6jki+hSISCwkLs+HlflSccyurKaOftg6u3buD6nXCIxCJk5+ZCKpUi6uF9iMRiTBkbjLHDRuL+k4dyyypTVxqoFlKJrDN3yHXrICJJzVHps3rRUsLjcom9jS2JvPh3eXnWk3hia2Vdoe3WVWuJg60dMdDXJ727dicvIx4SSWoOmTFhMgFAegZ0I9FXwoixoRHR4/PJ7T+uVOuv4EUqGT9iNJGk5pDIi38TB1s7AoA0cXQiiXcfkKdhd4iDrR0xMzElk8aMIwwGg6z9bjlp4+VN9PX0SMSFUHLxyAnCYXMIm8Uml4+eJLO+mEqYTCYxMzEloSfOkCljgwkA0rKFB7l++jwxMjAkPC6XhGzdRYKGjiAAiH87PyJJzSGjPhtCOGwOaevtQ7r5dyaGBgYk8uLfatko+2Q8iiPtWrchhgYGhM1ikxauzcihHXvK6xX5Kkx4TQAQIwNDwtfVJT0DupGkyEdEkpqjtG5y0HgCgLi5uJLc2EQiSc0hy+Z+S2wsrYgen0/GDR9FSpLSycFtu4mJkTHhsDnE16s1eXYzUm5Z5euoKQ0o+jwdu5HETN5eWdKkSj559tm7eDZ1B/yjttX9XxilThAIhdB3sYPoVVaVHXOV1TV24hYeBEOXA/efZlYo165RUipQ+ZGkqnXaBhW5FvL519MBAG16d63yxEZZnbZCT3/TQo7tOQDggNp12gq9k1O0HipyitbTaEUukUgwad4smHu4wNzDBV8t+kbpy6f3U3RZ9ubgNzg3Sc8AACAASURBVLFFu37dcflaqFp+f/vjDExaOGPK/NnlZZpMJ5XJZNi670e07hkAfRc78JvYwqGNJybNm6Wwj6b8fyjpxZqm0c7JL10NxV/Xr+Fp2B2UCErQumcXBI8MRHsfX7ntF82cg4KCAjxLiMepA4fxNu8dtuzdjVFTJyL9YRx0eaot0h4+4DMkp6YiLuHfXPaIC+r9oShj5uJvcSH0T2xduRYBHf3BYXOQlJKM7fsVZx9W9j976SJsXbVWbd+aHMeHRKO9k7PZLOjyeLA0N4ettTX0+XqwtVY9c9LEyBjBo8agsKgIGVmZavnW0ambV9GJr5Lx06+/4PCOvfisb3+YGBlDj8+Hp5s79m7YopINmUyGc39eqr7hR0SjFXn3zgHQ1dXF519Px8zvFmDfpu2wt7FVuX9eQT5+/u9hONjawcH2322U5aXlAsD2A3vh2rEN+E1s8f2WjeXlldNJlaXAyktHfZ8bd8JhoK+Pzn4dFMZdOR12/MwvK/gfPjkYyakpYNmb4+T5swAgN122OjvKrkVjo9GK/Ojpk3Bv1hyRD6Lx5t1b9OgSgEtX/4KxmxP4TWzxy/+Oyu139vJFsOzNYebeFOf+vITfQ46Axfp31iYvLTfyQTSWrPseh3fsQV58Mua+lydTOZ1UWQqsvHTU98l9+7baVVSV02G/mjCpgv/d6zaBy+FAkpqDYZ8OQsT9e3LTZauzo+haNEYa5Zz8VsQdLPthDeJv38Pbd3noFzQcg4LH4OT+QxjUux+6+XdG8MhAuX0H9emHUwcOY/W2TTh84hiaOjmX12Xn5mLC7K8QHnUXRcXFcHVuAgC4Gn4Tvbp+go5t2wMAeNyabbLk37Z9+V19wqigKumoxoaGyMjKgkwmq/aVu7OjI1obtqrWZ8SD6PJ02TLiXsTD5Z9xK7Kj6Fo0RqpcSR1u6fbLMrGk3oNRlTvR92BjZQ02iw1Lc3OEnjiD4pISdB36KTJzsvH5qDHV2vhmWml+w4zv5peXKUrLlUql4HK4tY67unTULh38IZaIcSH0z1r7KkNRumx1KEtR/lCRCcVytw+vInK2aenCAcm7orqPqoa0cndH9OOHOHLqBIpLSsDUYWLu1OmIT0zAy+Qk3I6qmohfGS6Hgy0r1+LIqRM4/NtxAIrTcn29vPFn2FU8inmKd/l5iH78QKFdZSmw1aWjNmvSFF99PglffjsHpy/+gXf5eZBIJHj5KhnBs6ouCJEHAwyIJRKkZWZAIBQqTJetDkXX4kNGnFcItrGchS+V0xJFbwrIdesgknPihsopjg3x2bBsJXF1bkK4HA6xsbQiX46fQJIiH5GADv6EwWCQft17Vmi/a+1GosvjESaTSTq2bV9ePrB3X8JkMsmS2d8oTMuVpOaQ2ZOnEVNjE2JrZU26+Xcmujwe+fu3s3LTSRWlwMpLR5U3tkM79pBW7p6Ey+EQJpNJrCwsSP8eveSmw1b2L0zOJG28vIken092rtmgMF22OjvKrsUH+UnJJrdcvyBph0KrT7UFgCj/b2Aa4AmnmYPq/s+PQtEAhTGv8Gj8JrQJXQM9j4ob9Mv9dWPa2we5fz8C6OmHlEZCbugDcO3MqwgcUCBy68CuEKRk4214bJ0HR6HUFplAjKyzEbAODJBbL1fkfDd7mPZug+QdZ0Ek1f9IoVAaktcH/wSRShWeOqHwYazLiiAIUnKQcTJcURMKpcERZrzF61//huO8IQqPQFQocp6zFeym9EXKnvMoTlIvt4NCqQ+IRIoXK46AZ28B2wm9FbZT+lrNcd5Q8N3s8ezrvXJ3JqJQGpKXG06WngS3Z4bSsz2VilyHy4ZHyByAoYNn83+mx4lTPhhSDlxGxulwtNg9vdozPatN0GKbG8Lz13kQpufi8aStEKTJ38yTQqkPiESKhO+PIfWnS3BdE6zSWZ70sFpKo6FOD6stgx47TmkI6u3Y8ffJC49FwuJDKE5Ig2lAK1j0bwdjPze5GWAUSo0gBIWxKcgNfYCssxEgUikc5w6B7cTeSn9kyqNGIgdK50bZZ+4g/dDfyI96DgZTB7pOluBYGIOpRw+1pdQMmUgC8bsClCRmQFooANfOHNaBAbAJ7qnwOXh11Fjk7yPKzkNeeCyKYl5BlJ1Hn8Io4T83jmGEeyd4mlfdZppS+kSPZawHfnM7GPq6ys1FUReNiJyiOgwGA8ePH8fIkSMbOpSPhka7xpNCURUqcorWQ0VO0XqoyClaDxU5ReuhIqdoPVTkFK2Hipyi9VCRU7QeKnKK1kNFTtF6qMgpWg8VOUXroSKnaD1U5BSth4qcovVQkVO0HipyitZDRU7ReqjIKVoPFTlF66Eip2g9VOQUrYeKnKL1UJFTtB4qcorWQ0VO0XqoyClaDxU5ReuhIqdoPVTkFK2H1dABaDPJycmQSqse256ZmYnExMQKZba2tuDx6AkddQHdhL8O6d+/Py5evFhtOzabjYyMDJiamtZDVB8fdLpShwQGBlbbRkdHB71796YCr0OoyOuQoUOHqjQFGTduXD1E8/FCRV6H6OnpYcCAAWCzFR/9yOFwMGDAgHqM6uODiryOCQoKgkQikVvHZrMxZMgQ6Onp1XNUHxdU5HVM//79oa+vL7dOLBYjKCioniP6+KAir2M4HA5GjBgBDodTpc7Q0BC9evVqgKg+LqjI64ExY8ZAJBJVKGOz2QgMDJQrfopmoc/J6wGZTAZra2tkZ2dXKA8LC0NAQEADRfXxQO/k9YCOjg6CgoIqPGWxsLBA586dGzCqjwcq8noiMDAQYrEYQOk8/fPPP4eODr389QGdrtQThBA4Ozvj1atXAICoqCj4+vo2cFQfB/RWUk8wGAyMHz8eANC0aVMq8HqkwbIQZUIx8u/GofDRSwheZUOSXwwi0+7/qfi9lQEA+pm4IXbKjgaOpu5h6vPAsTCCnocjjPzdwbEwapA46l3kBQ8SkXbgCnIvREJaLATX2gQ8B3OwDPiAls9Rm/JM0cLEFv3tvEBKRNV3aOQIc/NREBWP1B/Pg0hlMPRtBpvgHrD4rAMYLGa9xVFvc3JRxlu8/P4Ysk6FQ8/NHlaDO8AkoCW4lsb14f6DIfRGGHp06drQYdQrMoEYeRFxyLoQhTdhj8B3sYXL6vEw8nevF//1IvL0Q6F4ufIo2Cb6cJ79GUy7edW1S8oHSsmrbCRt+R1vbzyBxZCOaLbhCzD16naxSJ2KnEhlSFz+K9J+/hMOX/SG3cTe0OHQxUgU4O2tGLxY8V9wrE3heXguuLZmdearzkROxBLETNiKd7eeotmKsTDr0bou3FAaMYK0XDybuw+SghK0Or4QfDf7OvFTZyJ/Pvsn5JyPgOeu6dD3dKoLFxQtQFooQMzsnyDOyUfriyvANjfUuI86eZyRsv0ssn67iearxlOBU5TC1OfBffMXYDAZeDJ2A2R18NRJ4yIvfPQSSetPwHnOYJh08dS0eYoWwjLUg9umSRAkZuDVltMat69ZkROCxGW/wqBVE9iMotl1FNXhO1vB4ctPkbrnIkoSMzRqW6MizzoVjvyoeLgsGA4wGJo0TfkIsB7mD10nCySu+K9G7WpU5Cnbz8Gifzvwm9tp0izlI4HBYsJp5iC8uRKN4rhUjdnVmMgLohNQ/DwVNiO7qN23RCDAojUr0MzfF7rONrBs2QwjJn+O2PjnNY6nff8eCLt9q8b9lTF76SJwnaxw8vzZKnVrd2yBvosdWPbmYNmbg9/EFu36dcfla6Eq2S4qLsanY0dBr6ktzl25VKfj+BAx8XcHz8ECmceua8ymxkT+5s/74NmZQc/dQe2+Y6ZPwtnLF3Fk10/Ii0/Gg9AbsDAzQ8Dg/khJe62SjdlLF1X4d8SFUHTt2EntWFRh66q16NFZ/qv5RTPnYNYXUzGoTz9IUnPw+kEM+n3SE6OmTkSJQFCt7SOnTsDGygqFCa8xsHffOh2HJqh83WsNgwGz7l7IvRytMZMaE3l+VDwMfV3V7vco5inOXbmEg9t2o72PLzhsDmytrLF73SbYWFlj588/VWtDJpPh3J+XahJ2nWNiZIzgUWNQWFSEjKzMatvHvYhHE0cnMBrBb5q6uu5GbZuh5GUGJO8KNWJPYyIvjk8D38VG7X4RD6JhaGCAdq3bVKnr2aUrbkbcBQBMXzgPXCcrdBncH/oudvAf2AfPExMAAMMnByM5NQUse3OcPH8WO0P2gedsjeNn/n0ctStkP1w6+MDYzQl9AochKaV08cLXSxeCZW+O+SuXwc7HHfY+HrhzL7K8X6dBfaHrbAMLT1fsDNmn9vjyCvLx838Pw8HWDg62//5WWb1tE+x83GHh6Yo12zcDAHYfPIA9h37G8g1rwbI3x/dbN1YYR3WxyrM5bcFcsOzN0dSvNfhNbGHYzAHePbrAxtsNus42GDBuNGQymcL+ynxWvu5ZOTnoMrg/9Jrawt7Ho/waq4vuPzoqjk+vUf8qEA1x0zGYpO+7RCSpOWp91i9ZQRzt7OXWLZ+3gLRwbUYkqTmkMOE1AUCSIh+Rt8+SSPDIQNL3k55EkppDUu/HEC6HU6Fv767dyZFd+4gkNYdEXAglpsYm5N7layQ3NpGMHzGa9O/Rq7wtk8kkOTEJpCQpnYwZMpzMmTK9Siy/hxwhLVt4VLB/fO/PcuP+dvosAqD849Hcjdy7fK28PvzcZeLRvAVJiX5KUu/HEBtLKxJ3K4pIUnPI9M+/ICvmL5I7DmWxKrPJ5XDIo79vkuKXaWT8iNEkaOgI8ib2JUm8+4CwWWzyMuKh0v6KfFa+7jtW/0CCRwaSosQ0cuf8nyTjUZzaepCk5hDRywxy3TqI5Fy6pxFtauxOLhNJapQjbGJkhLd57+TWvXn7FibGJhXKrC0sYaCvj2nBEyvcxZRxM/IOAjr4w9uzJYwMDDFjwmSER0ZUacdmseHZwh1CkRAAkJ2biwHjRsPUvQmGTRoPsVj1t3Flc/IV8xdBJBKhqZNzeV3Eg2jEPH8GhzaesPfxQHpWJuJexKtsW16s1dm0NLcAh82Bp5s7uFwuDA0M4GhnD1MTYwhFIpViquyzMv5t2+Ps5YuYvnAeBAIhzE1rlnSlwy5N4pMJxTXqX8WeRqzUgo5t26OgsBB3o6Oq1P114xo6t/eT208kEoHJrFniPQFRac4bcvwIZDIZ4sPv4dbZms09v5k2EwAw47v5//onBAN69YEkNaf8079H7TYZqq1NTcTk7dkSsTfuwterNcZMn1RhutiQNLjI3Zs1x+jBQzFh9leIuH8PYokY6VmZ+PLbOcjKycGMiVMqtBeKRCgoLMSOn/eVP3VggAGxRIK0zAwIhFXvMl3ad0TY7Vt4+PQJ8grysStkPwI6+lcbm1AoBI/HBZfDRfzLxGrby4PL4WDLyrU4cuoEDv92HADQztsHV2/dwPU74RCJRcjOzZW7Wb861NZmTfpXvu5RD+9DJBZjythgjB02EvefPKzVmDSGRiY9hJDr1kEkI+TPGs3Bil+mkWVzvyVNHZ0Ii8UipsYmZEi/ASTm+t3yNmVzciMDQ8LX1SU9A7qRpMhHRJKaQ4TJmaSNlzfR4/PJzjUbyKwvphImk0nMTExJ6IkzRJKaQ7auWkscbO2Igb4+6d21O3kZ8ZBIUnPIjAmTCQDSM6Abib4SRowNjYgen09u/3GFPA27Qxxs7YiZiSmZNGYcYTAYZO13y8vtm5ualdsv++xau5Ho8niEyWSSjm3bl5cP7N2XMJlMsmT2N0SSmkOWzf2W2FhaET0+n4wbPoqUJKWTUwcOEz0+n+jx+WT+9JlVxqEsVkU2p4wNJgBIyxYe5Prp88TIwJDwuFwSsnUXCRo6ggAg/u38FPZX5rPydT+4bTcxMTImHDaH+Hq1Js9uRtZID5LUHHLdOohknbmjEW1qLNX2hs1YNF/7Ocx7+WjCXBUEQiH0XewgepVF9yv5CAhv+zVa7J0Ji0Hyp6vq0OjUUva4i0JRlUYj8s+/ng4AaNO7K4Qi7V/pTtEcjWbB5bE9BwAcaOgwKI2QRnMnp1BqChU5RetpUJG/zkjH6m2bGjIEuXwM6a39gkaAZW+Od/l5cus1cQ1OX/wDoTfCamVDEzSYyMte+MyZMr2hQlDIh57eWlPeT4u9eOSE0jfGmrgGQ/oNwF83ruH3S+drZae2NJjIpy2Yi4mBY8HX1a1Rf5FYhFMXzmk4Ku2lvtKRK38vC2fOwazFCxTmJ9UHDSLyjOwsXLl2FX0/6VleJi/NszJrtm+GbesW4Dexha23u1o516qmnFZO060uvVVRCm+Zv72HD8IjwA8R9++V95GXkqpOSqwin8rqKqfFlrF8w1rY+bjDzscdN+/eAQC1r4Gy78XIwBA+rbxw9PRJlb8rTdMgIr9zLxL2NjbQ/ee04oj793D8zGlEXb6Gx9fC8ePBA0hITqrQ50XSS6zfuRXXf7+IzMfP4eXhqfKqIQD4cf1mcDkc/HH4GN49T8LwAZ+htWdLxN2MQtytSITeCMPrjHTMmDAZ3Tv9u9PAtlXrwGQysXj2PCRFPkL3zgE4eb70ThX96CFWbFqPUwcOIznqMeysbTBryYJyf0wmE34+vti1diPef7F88vxZNG/qgjfPkvD7wSPQ19NTOT5lPpXV7V63CVwOB5LUHAz7dFB5LCvmL0Jy5GP0694Lx8+eAgC1roEq34tHczfcjLij8nelaRpE5Nm5uRXOtlQtzbP0kX7ZK31CCFhM9R/zV5dyqozKqaaqpPA6Ozrik05d4NembXmZspTU6uJT5lPVlOLKsFgsuDdzU+klW+VroMr3oq+nj6ycioeC1ScaE7kOlw0iln/ysDze/9FDVEjzdLJ3wPgRo+HdvRPs23jAxNgYwSMDNRW+RlA1hVeTKanKfKoaT21Q9XtRJ46yPHImT/Fx7eqgMZGzjPUhVnFNnqWZOQoKCsr/rUqaZ35BAZ7GPUPm43jkPX+FUwcOQ4/P11T4NaKmKby1SUlV5lNZXXXpyDVFle+loLAAFmbmKtsU5xUBAFgmBpoJUiO5jISQR8PXkGdTd6iURpl6P4bo8nikKDGtvExemue7uGRia2VNrp8+T3JiEkgL12blS8q4HA4Z0m8AESRlVGgXdyuKmBqbkMtHT1bwqWrKqbrprYpSeCcHjScAiJuLK8mNTawQi7yUVHVSYhX5VFZXOS22LL6eAd3I46vhxMTImPB1dUnYqT/UugbKvpeymIb0G0C2f79e5TTbnBM3yHXrICJ+W6ARbWos1TZ5/W/I+t8NtDm7TKX2gycEYcrYz1VefZKWmYGNu3dg84rVAErvIH79e+DIrn1o4+Vd3k4oEmHE5GBMGfs5BvTqo/5AKGpR3fdSIhDAvUt73P/rOkyMVDtVJHn7Gby5EYO24Rs1EqPGpiumvXwgSMtFUWyKSu13r9uEnT/vQ1FxsUrtL/39F7Jzc1BQWIjikhKE3b6FvIJ8ODs6Vmi3K2Q/vNw98WnP3mqPgaI+1X0vKzevx+YVq1UWOGQEuVcfw6xP1d0baopG9ye/13Uh9N3s4Lp8jErtU9JeI+TYESyb+221bXPfvsH4mdNwK/IOxGIxvDxaYu13y9DNn55q3JAo+15OnPsdRoaG6N21u8r23t6KQezXe+F7bZ3GNuXXqMizTt7C86/3wvvwN3Q/RIraEIkUD8duAK+pDTx/masxuxp9Tm451B+GbZshYf1vAD3omaImGSdvoSQ5G01VnAmoimZfBjEYaLpyLAoev0T6cc1t2EjRfoqTMpGy5wLsv+wH3abWGrWt8Tee+l5N4LxgxD/H2D3VtHmKFiLJL0LcvP3gNbWG45whGrdfJ6/1HWYNguXwzni+9BAKnybXhQuKliAtFCB27gEQKUHLX+dDR5ejcR91lrvSbMNEGPm1wJOpO5Ab+qCu3FAaMYK0XDyetBXC9Fx4/jqvTk5+A+hhtZQGQisOq30feuw4pQytO3b8fUQZb/Hy+2PIOhUOveb2sBrcASZdW4JrqeKbMEqjRSYQ493dOGRfiMSb64/Bd7GFy+rxMPJ3rxf/9SbyMgofvsTr/ZeReyES0mIhuNYm4DmYg2XAB+j2b1qFtEgAYdY7CF5lgUhlMGzbHDbB3WExqEONtvmuKfUu8jJkQjHy78ah8HESBK+yIckrApHRF0jaBFOfB46FEfQ8HGHk7w6OhVGDxNFgIqdQ6gs6P6BoPVTkFK2Hipyi9VCRU7QeKnKK1kPfsf9DxpFrSFpzHOI3/+wioMMAx8IIJt290WTxKLDNDBE7ZQdyzkfAfko/NNFwznNNkInEiP5kEZwXjYT5gPYNHc4HC72T/4N1UDe0+t9CAIBHyBz4P98Htx3T8PbqIzwdW7qg1v2nmTDya9GQYVYgZfs5lCRmNHQYHzxU5Apg6vFg3MUT9tM/RcGDRAiSMhs6pAoUx6VCJqDHyqgCFXk1lGXHibLzy8tKkrMQ99Vu3Hb/Endbz8Cb91KJU/dcwF2fmbjpGIyItl8j59zd8rqUbWdxp9V03HKegKhO30CUXbo3uCA5C09Gr0d488mIbD8HGf+9pjwoGUHyptNwmDWoSlXy+t8Q0W42pEWCmg9ay6Air4ay6QDP4d8doDjmhmi2cRL8orfD0LcZkjf8u2OrKO0NWh6ZD//4/bAY6IfElUcBAIWPXiJ1zwW0vrACHWL2wKyvL2QCEYhUhsej14PXxAp+97bDdcNExH9zAAX3ExTGlPbLX7AY5Acmn1uljhBZ6fpa+h67HCpyBUgLBXjz1wO83nsR5gPag2NtUl7H1ONBR5cDHV0OTD5pBVH6m/K6pivHQs/DETpcNgx8XSH+524tzi0oFbVEBiafiyZLA8FzsEDB/QQIkjLh+PVnYBrowqRrK+g2scK76/KXDooy3iLv9jOFPzSdF45E+6htYOrXbfpqY4I+XZFDzIQt5U9XzAe2R5PvRiluzNCpcNdM3X0eGUeuQpj+BjKBGDrs0kts6OcGXRdr3Ou6AGZ9fWE3pS8M2zaDMCUHAHDXZ2YFs5J/9gOsTOJ/jsB50cjaDfAjg4pcDh4hc2DW11ftfnnhsXj5/TG4/zQTJl1b4c3VR3g+cw8AgMnnwufiSuT8EYmM/17Fw0Er4Xl4Hhj/rJTyf74PTAPlp27kXIiErosNdJtYqT+ojxgqcg1SHP8aHCvj8qkEQ6fidsUMNgsWQzrCYkhHPAn8AbkX78F67Cf/9E2DQRsXpfazTtxE7qV7eLW54lbPsZO3w6ijO7xOLdbgaLQHKnINwrEygTi3AMXxaeBYGKLg4cvyupw/IiDOyYflyC6QCcWQCUTg2pnBwLsJ+K62SPzPr3DbNR1cWzOIs/PA1NetMq/2CJlT4d9EIsVNh2C475tV/oeVvP43ZP52E77X1tX5srLGAv3h+Q+5l+7hSeAPAIC4GT/i8fA1VdokrTuB/Ig4pB38C+mH/8a760/wctVRiLLzEDfjR5h094JJt1a433sJHg1fAyafC5lIjCej14NjZYzUvRdxu8UURHWcB46VMewm9wUYjNJpC5uFe12+xR2PL5G4/FdISzS3h/jHDl00QdF66J2covVQkVO0HipyitZDRU7ReqjIKVpPo3lOrsqiBm32rwlefn8MBfdewOv0koYOpV5pNHdyVRY11IZ3158g7ec/G8w/pe5oNCKvjKYXNWQcudqg/uuDJktG1+ouTiRSZB4NQ8nLD3+s79NopiuKeH9RA8/ZCsLUHLz47hfkhcdCh8eBUQc3uKwOBseqdGPRlG1n8Xr/JUgLSsC1M4PX70uRtPZ/yD4Xgeyzd5Gw+Bf4PdwFjqVqW5q97z/jWBhSdpyDw4yBYPJ5yDhyFR4hc8Ay4iuNSZyTj8Tlv+JdeCzEuQVgmxmg6X+CYPFZBwiSs/BiQQjyo1+AbawPh9mfwXpMN4Vj4VgYyS3Pj3iO+Ln7oMPnwu/+DqRsO4PkDSdhPtAPDB0dvAl9AB1dDty2TYVxQEsApauPEpYeRsGDREBGwORzYda/HawCu2ryK6xzGr3IKy9qiJ26AxwLI7QN3wQiluD5nJ8QM3ELWp9fUb5wwefKKrDNDPFq0ynIBCI03zwZ7248hf20T2E7UbXDc+X5d144EvkR8Si4nwDHuUPA4LIAEKUxAaWpvUQqg9epJeDamCDnXAREWe/KF1SYdGsF932zkB/9Ak8Cf4CeuwMYTB25Y1E0RvNP20Gcm49XW34HADh8/Rnehj0By0AXTVeMBZHJEDt5O5I3nS4X+bPpu8F3s4Pfve2QFBTjyZgNkInEmvja6pVGO12Rt6ih8EkSCqIT4LRgBDiWRuDamcF50UgURCeg8EmSwoULmvJfhr6nE4w6tID9l/1BCFEaU+Gjl8iPikeTpaOh28QKOjwOLIb6w6yPr9IFFYrGou4YyxaAMPV4MO3uXb4AhEikKIpNgVkfXzANdMG1NYNR++YQNLKpCtBI7+SKFjUIkrIAADwny/K2fFfb8jqT7t5yFy5oyr88qotJJiy9M+q5O5TXM5g64DlaoODeCwDyF1QoWoShqFwldHRQlsrEYDHBczBH7uV7MO3uDUlBMfJuP4PJJ61Us/UB0ShFXu2ihvdyzsrzzxgMhQsXTHu0rtA9/VAoXiwIKf935VztGi2qUBCTDpdd+p+sql9FdQsqFI1FlTGqgtvOaXgStAG3Pb8Ey4APk+7ecJo/XG07DU2jFLkiylbMCJKzoOdRerZ7SXxaaZ1zaZ28hQuVBWAzvgdsxveop5hKBV/4NBlGfm4V+nLtSn/UKlpQoWgsqoyxWghB+sG/4LxwpNq/Uz40Gu2cXB56nk4w8HVF8g+/QZSVB2FaLpLW/Q8Gvq7Q83REzh8RSD/4F6TFQojfFpYvXAAAJo+DggcJkInE5VOI+ohJz9Op9BTrRQdRcD8BMqEY0oISCNNyKyyoEKRkg0hlEGW8hbRQoHAsysaoFgwGGFw2Ehb/ghs2Y3HDQdWMCwAAAbdJREFUZixuOn6Oh4NWQpiao7HrUx80mnzy3Ev38OLbnyHKzgNTjweD1k3R6rfvqrQTpGQjYdEveBceAwaDASN/d7isCQbPwQL5kc8RN2svhK9zwOTzYNKtFZptnASmPg+vf7qIpLUnwDYzQIsfv4Jhu+Zq+09adwKpO8+BwWTCYpg/mm+eXG1MACB+U4CExYfw9u+HkJaIwG9uC+eFI2HaszUESZl4Pm8/Cu69gA6XDZNurdD0+/EQJGXKHUtR7Cu55WkHLiNlxzlIiwTQc3eAUScPpIf8CQabhaYrx4Jra4q46bshyS+GdVA3NNs4Cc/n/AS7SX2h51n6fyCZUIzYL7aBa2cG1/UT6uJrrhMajcgp9UtBdAKez/kJvmHrK5Q/n/0TwACab5nSQJGpj1ZNVyiaQ4fHhuBVNt7djIFMJIY4Nx/ph0KRdSocFoM6NHR4akHv5BSFpB8KxeufLkGYmgMGiwn9lk6w/2oATHv5NHRoakFFTtF66HSFovVQkVO0HipyitZDRU7ReqjIKVoPFTlF66Eip2g9VOQUrYeKnKL1UJFTtB4qcorWwwJwoqGDoFDqkv8DKnzVx8W1MRMAAAAASUVORK5CYII=;" vertex="1" parent="1">
          <mxGeometry x="2360" y="140" width="677.72" height="1110" as="geometry" />
        </mxCell>
        <mxCell id="DSl8sD201AtZQCHesUCh-51" value="" style="shape=image;verticalLabelPosition=bottom;labelBackgroundColor=default;verticalAlign=top;aspect=fixed;imageAspect=0;image=data:image/png,iVBORw0KGgoAAAANSUhEUgAAARUAAAE5CAYAAAC+gLSvAAAABmJLR0QA/wD/AP+gvaeTAAAgAElEQVR4nOzdd3RT9f/H8Wea1Tbde9BdNhQoIGUvRZmCisoUUVRQEVDEhT/9Kio4UVFEwa0gKggIOADZm0JBZoEWKN27TbPv749CpTQdQNq05fM4J6ftvTf3vpOmr97c3M/7yiRJkhAEQbCNeQ72rkAQhMZFhIogCDYlQkUQBJtS2LsAoXYZzBaK9GbydCYK9WaKDGa0BjP5OhMFOhPFBgslJjNmi0SBzlx2PwnIKzFaXada4YCzUl72s1Iuw0Vd+rOnkxKN0gEXtQIXlRx3p9KvLmp56c+O4iXX2InfcANktkikFhpIyi3hQr6ejCIDWcVG0osMZd9naUt/zi8xVboejUqORiXHSVm6w+ruVP7loFErcJDJKtzPYDSjN1vKftabLOiMFiQgX2dCazBjNFs//q+SO+CtUeKrUeLnosLPRYWPc+nP/q4qAlxUhHk5Eeqhxk0tXp4Nkfit1VM5WiPHMrWczNRyLk/H2ZwSkvP0nMvTkZKvK/ujVTjI8HZW4qlR4qVR4qNR0ixQQ5yzEm+NCh+NEo1KjquTAo1SjrNajrPCATen2v3VG0wWtEYzBTozWr2ZYmPp1xyt8dLNRGaRgQytgROZWrK1pWFYpP9vb8nDSUGohyNhno6EezoS5uFIhJcTLf00RHo5oZRXDDzB/mTiI2X7Op+v42h6MccytBzPKOZEppajGcVkFZe+9XBSygnxUBPo4Uiwu7r05uFIkIeaYHdH/F2VVvcmGqpig5mUPD0X83Wk5OlJydeTkqcjLV/P+Tw96UV6JKn0LVeklxOt/DU093Wmpa+G5n7OtPF3KdvzEuxingiVOnSxQM+BlEL2X7rtu1BAeqEBKH3rEerpSLSvM039nGnqo6GpnzNNPNSNKjRulNFs4Wy2jsQsLedySziVoeV0ppZTmSWUGM3IHWQ083GmYxNXOga7EnvpduUxIKFWiVCpLUazxL6UAraezWPLmTz2Xiggq9iIg0xGpLcjrYNcaRvkQptAF5r7a8QBzBtktkicy9VxNK2IwylFHE4t4mhaEfklJhQOMlr4aegW5k6vCA96R3oQ5Ka2d8mNlQgVWzGYLew5X8DmM3lsOZvHzuR8ig1m/FxUdA5zo0OIG20CXWgd4IJGLf5r1gVJguRcHf+mFpKQUsSBcwUculiIySIR5e1E70jPspAJ9XC0d7mNhQiVG5GtNbLpdC6rj2Wx6mgWBToTfi4qOoW60THUjU5h7rQJcEG8e6k/SoxmjqQWsf98AdtP57PvXD56k4UILyeGtPRmaEsfekd6onAQv7TrJELlWh3P1PLbv5msOZbF7vMFyB1kxIW706+pF72aehHuJf7jNSQ6o4X95/PZeDKXjSezSc7R4aNRMqiFD0NaeDOwhbc4HnNtRKjURI7WyC9HMvlmfyo7kvPx0iiJC3OnX3Nvbmvuhas4HtJonMvVseFENhtP5rInOQ+Fg4zBLXwYFxvAHc29xR5M9USoVKbEaGHFkQy+i0/n78QcnJVybm/lzV0xftwS7i4+kbkJ5GiNrD6cyaqEDOJTCglyUzOqvT/jOwbSxl9j7/LqKxEqV0svMrBwVwoLdl4gr8REXLgHI9r5cUdLb5xVYjf4ZpWSp2f1vxksP5DO2ewSuoe5M7VHCCNa+yIXey9XEqFy2cGLRXyw7RzLDmXg5qhgTOdAxnQOwEejsndpQj0iSbD9TC6Ld11kS2IO0d7OTO3ehAc6BqIR/3RAhAr8m17MC+tPs+ZYFi38NTwYF8ywtr6oFeKsTKFqp7NKWLIrhZWHMnBWOfBC33AmxwXf7K+dmzdULuTreeWvM3xzII2W/hqe6R9Gr2gve5clNEC5JUY+357CV7tT8HdR8dqASEa1979Zj7vdfKFiMFuYszGJd7ecw9dFxYx+4Qxp43OzvgAEG0otMDD/n2R+OZhOmwANn45oQZcQN3uXVddurlBJSC3igZ+Ocjq7hOn9whjXORCl/KbeVRVqwalMLf9bd4bdSXk82yeM2f3DUd08r7Obo0et2SIxb3MycQv2oVbKWfNYLBPjgussUCwWC4s/ms8dnWNp7ulGU3cXbokIY+ajk2yy/t9//YXWft7Mmvxo2bSh3eLYtWVzjZa1lQXz3qK5pxvhTioinNXcEhHG/Ddex2w2V3/nKlT2WK70ytPTiXJxYu2KX29oW7bQ1NeZb8a14eU7ovhg23m6LtjP4bQie5dVZxr9WVt6k4Vxy46y6mgmU3qG8kSvkDr/CHD2tKlsXLeWV9/7gC49e6JUqjiflMSXCz6yyfoH33U3KeeSOX3iRNm01Tt21XjZyrzy9HReeff9Gtfx+LPPUVRQSOLJ4yz49gcO7tvLo/eOJDC4Cfc+MKHG67l6u5U9lnL3efd9zpw6VeNt1DaZDMbeEkjvpp48u/IkcR/vY9HdLRjTIcDepdW6Rr2nkqM1ctvn8Ww8ncuPD8bwVJ/QOg+Uc2fP8sMXnzP/q28YMHQY7h6eOGs0NG/dmrc+WWiz7Tg41PxXWZNlLRYLf61Zfd31qNRqbunegzuGD2f7po01vt+Nbre+CfF05LsH2nJ/pwAe+Oko72w5Z++Sal2jDZWLBXp6LzxAcr6enya2I7aJfQ6Y7dm2FY2rK7d071HlciN69yTaTUO7QH+++mQBAP83YxrhTipen/UsncJC6BweyoHd//3XXvLxR/Ro0ZSm7i7Mf2NO2fSvPllAtKszq5f/VO2ylW370ftHknLuHOFOqrK3FB+99QadwkJoF+jPx3PfrNHjNxgMKFWqSrfzwhNTCHdS8f3ni+gb05oukeHltmvtsSz/5mt6t25BU3cXOoeHcvzIEavbvp56a4PcQcbLd0Qx+/YonluXyBsbk+xWS11olKFSZDAz9KsEjJLE8ofaEeXjZLdacnOycXN3r3a5FZu3klhQzLtfLGHpl4sBePW9D5DL5Ux94QV2JZ6he9++rP219A/80L69vP1/s5n/1Tccy8rlkWnTy9Y1YcrjdOvbr+znqpatbNtvfLQAlVpNUomBQSPu4uDePaxe/hNrd+/h74OH+GbhQpLPnKn08Rj0enb8s4k/Vv1Gv4GDKt/Ox58gl8tpf8stzPnwY+Z89HG57V79WI4mHOLl6U/x9qIv+Dcjm/99MB+LpeIxm2utty5MiAvi9cHRvPzXGb7cl2rXWmpTozym8tivx0nJ1/PLpPb4u9r3jFg3dw8y09OxWCyVvu3IycpkxsMPsW/nDkqKiwmLiqqwjEKppHnr1qSmpACwY/M/9Ox/Kx3jugKgdqx8dHRVy9Zk2wAH9+7l5NGj3BIRVjbt9InjhEVGVlj2r9Wrae7phq9/AE/Meo6Bw0dUu52Q8HBat2tPZnpapY8DYPfWrXTt3adsz2/g8BE3XG9dGtUpkNQCA1NWnKBdoAuxwa52rac2NLo9lV8OZ7D0UDrvjGhGEw/7d/e6pUdPTEYjG9etq3SZZV9/hcViYeuxE/y6eWuN1msxm1Gpa/b4qlq2ptuWJIlbBw8mqcRQdru8B3K124YO5axWz56zyTw24xlkMtl1PUbrdVhwqMFxsWupt65N6xtKx1A3xi07WulVBxqyRhUqBrOFWetOc1c7f3pGe9q7HAAioqN5YPIUnn98Mut/W0lBfh4mk4nzSUlMnzgBKH2roHZUo1KpSUpMrNF623aIZevff3MsIYGC/DwOHzhwXctWtm2ZTIbJaCQ9NRW9Tke7Tp3Y8c8/7N66BaPBQE5W5jV9VFzTx3j1dq/WuXsPtm3cyKb16yjRaikuLKQwP7/Ccjdab21ykMmYe2czzuSU8PmeFHuXY3tSI/JDfJqkfmGjtDO9UEoqMdSr2wdffi21aNtWUqnVklwul3z8/KV+AwdJSSUGaeOhI1JgkyaSp5e3NGriQ5JMJpOem/OGNGHK4xIg9ex/q7Ru9z7Jzd1DctZopN+2bpeSSgzSQ08+JXl4ekn+gYFS1959JEcnJ2nZn39LE594UpLL5ZKnl7e09I+/qly2sm2fLiqR2naIlZw1Gun1+R9JSSUGadpLsyW/gEDJWaOR7h4zVkosKC73GOd8+LHk6OQkyeVyKSa2o3Qy77/fQ2XbGf3QwxIgRTZrJh1Oy6ywXWuP5Y2PFkhhkZGSUqWSYmI7Sn/uP1i2nJe3T9ly1dVr79vEFcekiLe2S2aLxd5/OrY0t1GdUTtwySEkB4nP7m9t71IEoVqJmVoGLNjPxkdi6R3pYe9ybKXxnFFrskjsSMqjb1Nve5ciCDUS7etMmKcjm8/k2rsUm2o0oXIhX0+RwUyLANGRS2g4mvtrOJahtXcZNtVoQiXv0jWDxfVzhIbEw1lJTonR3mXYVKMJFZdL19LRGuvHEX5BqIlivanR/SNsNKES7KZGKZdxJqvE3qXUitoe6WzNtYx+Fq7P2ewSwj0b12VdGk2oOCkdiA12ZfuZPHuXUitmT5vKFx/OZ8bLr7DnbDKHLqbz7Zq1yOW11xd18F1389QLL5abtnrHLuJ69b6h9b7y9PTqF7oJZBUbOJGhpXtY9cM4GpJGEyoA98X4s+7fLIr1jestUF2NdLbmWkY/10RjG4V8I34+mI6rWs6AZo3rE8tGFSrjYgNwcIAvdjausxRrOtL5608/oXvzaFr7ejF28EAuJCdXO+/qUcIH9+6p8ejn6kZR38jo5+zMDO7u25tmHq50Dg8t91gagyK9icU7Uph0SzBOykb1Z9i4QsXLWclzfcJYtP0CpxvRsZWajHQ+HH+A91/7H58v/4VdiWfxDwri5elPVTvv6lHC8Xv21Hj0c1WjqOHGRj+v/fVXIpo25Uh6Fl/88ivOLo3rVIG5fychSTCrT1j1CzcwjSpUAGb0DKVNgIZpvxxDa2gcb4OuHOlcmb3bt9OlZ09axbTD1d2dCVMeZ9+OHdXOuywkPJxuffqi05WUjWhWKJVVjn6+0uVR1AaDHigd/Txh+DDa+Pvw6H33YDAYrN7vytHEncNDyUhL5fSJ43Ts2pW/Vq/mhScfR6/T4eXtU6M6GoK1R7P4YV8qC0c0x9OpcX3yA40wVBQOMn4c1ZqMQiNTfzmB0Vz5H2JDUZORzleTJAlZJVcIqGretYx+rsqNjn5uFdOOTUf+JSa2I0+OG1OuSVNDtvdcPs+sOMET3Zpwd1s/e5dTKxpdqABEeDmxcnwM+5Lymfj90QZ/4LYmI51v6dGDXVu2cDThEIX5+Xz96Sd06dmz2nlXu5bRz1W50dHPh/bvw2gwMvrhSdw1eixH4uOvq476ZOOJbCZ8+y+Dmnvz7uCm9i6n1jTKUAGIC3Vj65SOnM3SMnLJIdIKre9+NxSvvPs+L741lw/mvEansBCae7gyondP8vNKP0Jv074D02e/zEN3jyCuaSSZ6em8+t4H1c574YkpmM1mhvfqQWF+Pr1uG8A948Yz6o4B3NahHVkZGfy2bCm7t27hfzOfZvvGDbw87Sl2bdnMK09Px2w28/iY0RxLSODTd97h52+/4dC+vQy9516OxMfTo3lTdm3ZzNlTp1j43jt4evvQul17+rZtxfJvvia2SxyPTJ/Bk+PH0S7InznPzUKyWDh94gQDYtvT0tuD7Zs2Muqhh+323NvCr4cymPzTMe6N8ePH0W0a9fWXG9UoZWvO5pQwcMkhSkwW3h7ejC7hjeucAKF+0xktvL0hia92p/BSvwheuS3C3iXVtpvjYmJZxUYe/uUYvx/LZkKXIJ7pH45jI/sYT6h/DqUUMnPFCTKLjXw0rNlNcXkObpZQuezr/alMX30KP1cVbwxrSseb75KUQh0oMZpZsOUCi7afp3eUJ4vvaUGIe+M6Fb8KN1eoAJzL0zHpl+NsSMxhQAtvZvaPINKO3faFxsNkkfg5Pp35/5xDazDx5h3RPBYXzE12me6bL1Qu25CYw8y1ifybVszIDv481TcMPxf7dt4XGq7tZ3J548+zJGZqmdAxkFduiyTAzldysJObN1QALJLEr0cymbXuNBcL9Axu7cOkbk1o4d+4zt4UaofRbOGvEzks3n6B+JRCBrf04d3B0TT1cbZ3afZ0c4fKZSVGC98cSOWDbec5laWlR6QnE+OC6BXtdbPtugo1kF1s4Pt9qXy/J418nYl7YvyY3iOkUV7D5zqIULmSJMH6k9m8v+08GxNziPByYng7P4bH+NeLawgJ9mOySGxNzGVlQgZ/Hs/GRS3n0S7BTI4LJshNvDauIEKlMkfSi/l8dwrLDqWTpTVyS6g7w9v5MbClD26NcLyGYN3h1CJWHspgzeFMsrQGuod7MKFjIPe38290o4ttRIRKdYxmiT9PZvNdfDqrj2VikaBntAf9mnrTt5mX3S+rKtiW2SKx/3wBm07msuFEFolZJTT1cWZshwDGxgY0ui5ttUCEyrXI15lYcSSTlUcz2XAqlxKTmbaBLvRtVhowbQNdxDGYBqigxMSW07lsOJnDlsRccrVGon2cGdrSh5ExfnQR5zNdCxEq10tnsrA9KY/Vx7JYcSSLC/k6vDVK2jVxo1OoK90jPWkdoMFBpEy9U2wwc/BCAdtP57P/XD6HLhZhliTaB7owuKUPQ1r60FEcdL1eIlRsJf5iIRsTc9l8No9tZ/PI15nwcFbSOdSVuHAPYoJdaRWgwUlZez1lBetS8vQcSS1iT3I+e5PzOZZejEWSaOmnoXekB70jPLm1qVej7G1iByJUaoPZInEotYitZ/P450wu25LyydEakTvIiPZxonWQK20DXWgT5CKCxsYuB8jhi0UcSS3kSGoROcVGHGQy2gT8FyI9Ijzw1SjtXW5jJEKlrpzOLuFASiEHUgrZl1LIgZQC8kpMyB1khHk6Eu3rTKSPM9G+zkT5OhHl7YSLWvzntEaSICVfz5msYk5lajmdVcLpzBJOZWnJ05YGSDNfZzoGu9Ix2JXYYFfaB7niqhbhXQdEqNjTmZzSoDmSVszxzGKOZ2o5malFbyrtVhfopibCx4kmHo4Euato4uFEkLuKYHdHAt3UKOSN93hNvs5ESp6ei3l6LuTpuJiv52K+jnO5Ok5nlVBy6aJx/q4qWvhpaOnrTCs/DTGBLnQIdsVFJQLETkSo1Ddmi0RSro7jGcUcuxQyZ3N1nM8rvekuBY6DTIafi4oQDzUeGgU+GhU+Lio8nZR4uyjx1Sjx1Kjw1ihwUytQKex/TkWhzkReiYmsYiM5xUZytUYyiwxkFxvJ0Zbe0gv0pOTrKbqiW5+vi4pQDzVhHo5EejmVhoifhha+zniI4yD1jQiVhiat0EDypYA5d+mWWWQkrchAVrGRzOLSr2ZL+V+rUi7DWSXH3VGBs9IBZ5UcJ5UCN0c5Tio56iv2ejQqBYorOpO5OsqROYDOIGEw/dfzt9hoxnRFD+ACnZkSkwWt3ozWYKJAZ6LEYKHYaC4XEv9tR46fiwo/FyW+GhU+GiXBbmpCPRxLb56OhHk4ipPMGhYRKo1V5hUBk19ioshgpshgJq/EWPq93kyxwUzupXkG838vg3ydkStfFed3rSfvn2+JevpbnK/4A3dSylFfsQfkppbjopajUZaGl5ujHBeVAo3KATdHBe6XbgGuKnw1KhEWjdM8se/YSPlqlDb7dGOROp5ZazP5d0YXm6xPaNzEvwpBEGxKhIogCDYlQkUQBJsSoSIIgk2JUBEEwaZEqAiCYFMiVARBsCkRKoIg2JQIFUEQbEqEiiAINiVCRRAEmxKhIgiCTYlQEQTBpkSoCIJgUyJUBEGwKREqgiDYlAgVQRBsSoSKIAg2JUJFEASbEqEiCIJNiVARBMGmRKgIgmBTIlQEQbApESqCINiUCBVBEGxKhIogCDYlQkUQBJsSoSIIgk2JUBEEwaZEqAiCYFMiVARBsCmFvQsQ6pczZ86waNGictMOHjxISUkJzz33XLnpISEhPP7443VZntAAyCRJkuxdhFB/lJSU4Ovri06nQ6Go/H+OXq/nhRdeYM6cOXVYndAAzBNvf4RynJycuOuuu3BwcECv11d6Axg1apSdqxXqIxEqQgWjR4/GaDRWuUzLli1p06ZNHVUkNCQiVIQKbr31Vry8vCqdr1QqeeCBB+qwIqEhEaEiVKBQKBg1ahRKpdLqfJPJxH333VfHVQkNhQgVwapRo0ZZfQskk8no3Lkz4eHhdV+U0CCIUBGs6tatG0FBQRWmOzg4MH78eDtUJDQUIlQEq2QyGePHj7f6Fuiee+6xQ0VCQyFCRajU1W+BHBwc6Nu3L/7+/nasSqjvRKgIlYqJiaF58+blpo0bN85O1QgNhQgVoUrjxo0rewskl8u588477VyRUN+JUBGqdP/992MymZDJZAwdOhR3d3d7lyTUcyJUhCpFRUURGxuLJEmMHTvW3uUIDYAYpXwdJEni6MVj7E86QGJGIllF2ZgsZnuXVWtULZxQHlWxJns9677+y97l1BpnpRMh3k1oFdSSrlFxeDh72LukBkmEyjUo0hXxw+6l/LpvBan5aXhpPIn0i8TH1Qe5Q+Pd6bulfydKMorx9/K1dym1qsRQwq7Tu/lx1zLMkpnu0d0Y23U0cVFd7F1agyJaH9SARbKwKn41H/79MUaTkdtjBtCvTV+i/KLsXVqdycrMwsfXx95l1AmtoYR9p/eyNmE9B87G06t5T2YOfJpQrxB7l9YQzBOhUo30gnSeXvosRy8eY2jsEMb3GIOLo6u9yxLqyKFzCXzy16ek5F7kif5TeKC7+Ei9GiJUqvJvylGe+mEGGrWGF4c/R5hPmL1LEuzAbDHz694VLN78JUPbDWH2sBdQyq0PthREqFRq5+ndTPthBm2atOalES/grHK2d0mCne05vZc3Vr1Jm+A2fDz2Q9QKlb1Lqo9E5zdrzmSe4Zllz9KtaVdeG/mqCBQBgFuiOvPumHc4mnKMV1f+D/H/2DoRKlfJLc7lie+mEe4bxtODpiN3kNu7JKEeifKL5MURL7D+yJ98vnmxvcupl0SoXGXeuncwW8y8ctfLKBXifbNQUcfwDky59TE+3fQZx1KP27ucekeEyhUOnjvEusN/MOW2x3BzcrN3OUI9NjR2CG1D2vDmmrnibdBVRKhcIkkSb/0+j47hscRFi5OdhOo92v8RDqccYf2RP+xdSr0iQuWSXWf2cCz1OA/3e8jepQgNRLR/FH1b9uGrbd/Yu5R6RYTKJaviV9EmpDWRvhE1Wt5isfDZR5/R95Y+hHmHEuLZhHZRMUx7bBoA9w+7jwCNP/n5+Tdc2zNPPE2Axp8jCUdqfJ+jR44SoPHnh69/uOHtXzagxwB2bN1hs/VdNv/t+YR5hxKg8SdA40+IZxNu634bG//aeE3rWf3rKqL9o5gxZXrZtNqq+bIhHQZzPPUEJ9NP1do2GhoRKpQGxPZTO+jetFuN7/P89Of47OOFPDt7FgmnEzhx4STLVv+EXF76lC5dtQy53DafHL3z8bs0CW1yTff5ZekvTHjkQZZ++6NNagD4c9ufdOtZ8+foai8+86LV6U/NfIpJUx7hjiF3kFaczpGzR+g/oB+Txj6MrkRX4/UPvWsYM1542qY1V6dVcEu8XLzYcmJrrW2joRGhApzLOU9+SQExoW1rtHzy2WS+WfwNny75lIFDB+Lu4YGzxpkWrVrw7oL3arna6lksFrKzsnl82uPs272PM4lnqlzeaDCyZuWaWq/pj9/X12hZdw8P7h83iuKiYjLSM65pOw6yun1Jy2Qy2oS04ciFf+t0u/WZCBXgbNZZAMK8a3Ya/q7tO3FxcaFL97hql537v7m0jWhD24g27N6+q2z6+3Pfp21EG5oHN+eDeR+UTV/67Y/Ete1CiGcTYiLbcuzfYxXWGdu8AzGRbcnNybW6zS2bttC9d3dCwkK4pVsXln23tMIyH8z7gDbhrQnxbEKb8NbIZLKyeYP7DiLEownNg5uz+NMvAFj86Rc0cQ9m5fKVALzw9AsEaPx55fn/o21EG2Ii27Jv9z6gdPDh0P5DCPUKISayLeeTzzNx1INcOHeBAI0/a1asrvI5Kygo4PuvvieoSRBBTf7r6G+tLoDPF3xO51adCPFswntvvls2/eqaJ9z3AMFupev74/c/iPSL4K1X36y05poK8w4tew0JIlQAKCgpRK1Uo1LW7LTrnJxc3Dxq9pHzrJdnEX/qIP1vv5UVP5e+uA/sPcDK5Sv4e+cGth7YypefLSHpTBJHEo7w/Iznmb9wPqfTzvDGe29iNpfv03Lh3AVGjx/NzoRdeHp5Wt3m7yvXMGjoIADuHX0vP/2wHIvFUjb/7OmzfPjOfFZvWMOx88dpFdOaixcu/nf/TWs5n3eBjz7/iO++/A6AhyY/TM8+PcuWeePdN5DL5Ux/bgYHTsbTs09P1qwsDYs1K1YTGR1FYuppvln+LRoXDfM+fBuVWkVacTpDRgy1Wvf6NesJ0PjTLLApf/y+nm+Wf1vuIvHW6orfF88br8zhkyWfcibjLJOnTSlb/uqa5y/6sOz72wffzsRH/zsob63mmnJzcqVAV1jj5Rs7ESqA0Wy8pgFi7u7uZKRnlPtDrYpCoaBZy2YYLl3YPH7fAU4cO0G7qBhiItuSnpZO4slT7Nq2k+69etClexwqtYohw4fQJua/6xUnxCfw0JiHePLpqZW+6LXFWn5Z9gtR/pEEaPyZMWU6qSkX2bJpS9kyl3vOOlzqASNJEgpF6fGf7KxsRo8YTdOAaB68fwIGQ9XXVL68vhatW6DXGwDoFNeZ9WvWM3PqTPQ6HV7elV9C9UqXj6nMevk5jEYj4ZHhZfMqq2v7lm306d+HznGdUSqVqB3VNdrW1a63ZgCFXInRVP3zdLMQoXId4rrHYTKa+Hv939d1f0mSGDBoAGnF6WW3W++4DYtFwsFBVun9ks4kERkdwcypMytd5vdVv/PS/14qt+72HduXewvUJLQJ9465j96dexET2RYPD3fuG3s/AD9+8wOSxcKeo3v5fdPa63p8bWLasFv0lE4AACAASURBVDNhJ+1j2/HoA4+Wvf2oqcenPQ7Ac0/NKptWWV1mswWV+sYH9t1ozcJ/RKhch8joSCY+9hDPPPE0v//2O/n5+ZhMJs4lneOJhx6v9v7tO3Zg2+Zt7Ny6A6PBSHZWNmazmbjuXdiyaQsb/vibEm0JRUVFFBQUlN1v2N3D+ODT+Zw+lcinH35qdd1//P4H944tf53jiY89xNpVa8s+3i4sLOTEsRMcO3ecMxln+WrZ1zhrSgdN6vUG1I5qVCoVZ05XfYC3Mgf3H8RgMDDuofHcM2okCQcTkMlkmIwm0lLT0Ov0Vd5fpVbx+tuv8/PSn/nph5+qrCumQwz//L2Zfw//S35+Pgnxhypfr1KF2WwmIf4QuhIdebn/HZOyVrNwnSRBWr73F6nbnF5SWnH6Nd0WLPlEatWmlaRSqyS5XC75+vlKt95xm5RWnC6NmzhOAqTe/XpLWw9sk9w9PCQnZyfpt79WSWnF6dIzL86U/AP8JWeNs3Tv6Hul83kXpLTidGneh29L4ZHhklKllNrFtpc279sizXzpWQmQbhtYuu7oZk0lmUwmvfPxu+Xq6X/7rZKDg4PUq+9/j+X3TWulwKBACZD8A/yl9Vv+kE5cPClFN2sqARIgqdQqafCdg6UL+SnS9oPbpaAmQZKnl6c09sGxkkwmk2a/Plua9PgkSS6XS55entKv61dID01+uOzxbdi1UXJ3d5ecNc7Sus3rpY+++Fhy9/Aoeww7E3ZJKQUXpZgO7SRnjbP01gdzy9U9d/48ydHJUZLL5VLnuM5l028ffLskl8ulGc/NqLSutOJ06dEnH5U8PD2kgMAAqXuv7pKjk6O0Yv2KCjWnFadLw0cOl5QqpdS+Y3upe6/ukqurq/TX9r+s1lzT18Hi7V9J3ef0tvfLuL6YK/qpAD/v+5X3/5zPr9OW27uUOpGWmsaC9z/mtXmvA6V7Lrf3GMDCrxYS06GdnatreH4/uI4l/3zJthf+sXcp9cE80fj6JrTxz41kZ2ZTVFSE3EHOji07KMgvIDRcdLYTbpwIlZvQwKEDWbNiNe2iYjAajbRu25rPvlmEh6e4JIVw40So3IQ8vTz5YaXtTt8XhCuJT38EQbApESqCINiUCJXrNOzWoWVD9a++jbrzfpu2PrjS9a73xWdeJNgtyOq4G2stA2rLlW0OAl0CaBcVw7tvvlthOMK1qkmLg6qeA8F2RKhcpy7d4jibmURKwUXuvu9uJjzyIOdyznMqLZHWMW1s2vrgSte73jnvzKFX315W51lrGVBbrmxzkJx9jkXfLOKLTz7np++XXdN6rm6jUJMWB1U9B4LtiFC5Ti/+70WcnJ3K/sBlMhkqtQpXV1deeu0lO1d37eq6ZQCUnjnbpXscg+8czNZNNe9Hci1tFIS6J0KllllrfTDzyWcI0Pjz9Rdf0719Nw7sPWC1FUJVw/Era6mwZOFiOrXsSJR/JPcOGVnlEP7KWgZc6dmpMwl2C2Jo/yGEeYcyqM9ATp86XTbfWt3WHl9VDAYjSlXp+B1r7Q2uXl/76Hbl2ihc3eIAatZCorL6hRsjQqWWWWt98PZH7yCXy4ntHMvc+fPYv2e/1VYIVQ3Ht7behPhDzHt9Hl8t+5r4UwcJCArk+RnPW62rqpYBV3pt3uuYzWYWfbOIf5OP0rR5M2Y/OxuovIXD1Y+vspO2DXoD2zZvY92qtdx2x62A9fYGV69v7vx55dooXN3ioCYtJKqqX7gx4jyVOnC59UHiifJ9TEPDQ3F3d+fE0eNlrRAuSzx5ik5xnXnz1bcAGD1+VIXh+Fevd/eOPXTr2a2sXcLDkx9i5OCRVmu6smUAUG3LAF9/PxQKBQ8+8iD3Db0XKN/C4cq6L7csuPz4rFm/Zj1h3qH4+fsxbdY0Bg8fQnZWNk9OepK9O/eg1WoJjyzfL/jy+qrrBndlCwmAIcOHWF2uuvqF6yNCBXBSOmIwGey2felSK4Rvln9bYd7OhJ389vNKHn3gUV5581WGjxx+TetFZr2VwvW2DDAYDDjI/+vDUlnd1bljyB18tezrctOubG+QfDaZx2sw4tua6lpIXHYj9V9Jb9TjqHK8oXU0JuLtD+Dh7IHBZKBYX2yX7VfWCuFah+PHde/C9i07OJJwhIKCAhYvXEK3nl2tLnstLQOg9K1KUVERX3z6Bd17da+y7utV07YL1bVRqK6FxGW2qj9Pm4eHk/U9spuSHYdI1xsX81KlmNmx0l/HN1xz+4PYzrGSQqGQlEql1G9A/7LpVbU+uDwvqmm0dDL1VKWtEKwNx6+upcKcd+ZIQU2CJBcXF6nvrX2lAyfipbTi9LI2AF7eXmVtACprGXDl40vOPicBkpubm+Tk7CT17tdbij8ZXzbfWt3WHp+1NgftYttL53LOl82rrL3B1eu7uo2CtRYH1lpIWHsOKmtBcS23SV9Plp796Xl7v4zrC9H64LI73h3MrW37M67HWHuXUq/odXrCvEO5WJha1n5S+I/JbOKeD+9j6q1PMKrLfdXfofGbJ14ll/Ru0Ystx7eK6+JWoqb9eG82e8/so8RQQp/m4qS6y0SoXDIidjjJWec4kHzQ3qXUK09MegKAfl36YtDb72B2ffXbgVXERXUh0CPQ3qXUGyJULmkR2JxezXuyaMPnmC03Ng6lMfn8289JK05ny/6tNmkw3ZjsTtxDfNJBJvUS19++kgiVKzw78BlSclP4Pf76usgLNw+T2cRnGz/n9jYD6Bgea+9y6hURKlcI8WrC2K6jWbLlK5Kzku1djlCPfbbpC7KLspk+4Cl7l1LviFC5yuP9JtMqqBWzl79CnjbP3uUI9dC6Q3+wav8q/u/Olwhw97d3OfWOCJWrKOQK3r1vLkq5gpd/fpWCEnE5S+E/W45v5cM/PuLxfpMZ2PYOe5dTL4lQscLD2YOPx35Ivjafp76dzoWcC/YuSagHlu36iTm/vcl9t4zk4V4T7V1OvSVOfqtCdlEO036cwdnMJJ4YMIU+LXsjq2QsjdB45Rbn8emGhWw9vo2ZA58WJ7lVbZ4IlWroTQbeXvcuv+z7ldZNWjH51seI9o+yd1lCHTCZTazcv4rvd/yAm9qV/7tzNl2j4+xdVn0nQqWmjl48xty1b3PofALtwtrRv1UfOkV2wtvF296lCTZkMps4mXaKHSd38veRvyk2aJnQfTwTe07AUSlGIteACJVrIUkS207t4Jd9v7Lj9E70Rj0ezh54u3jj4qRB7mD7nrRC3dAZdBTqCknNS8NkNhHsGcTgdoMY2elu/Nz87F1eQyJC5XrpjDoOXzhCYnoiWUXZFOoKG+2ZuMlHkzi68ygDHxpk71JqjZPKCVdHV0K8QmgZ1IIIn3B7l9RQiVARqrdo0SJmzZpFbm6uvUsR6j8xSlkQBNsSoSIIgk2JUBEEwaZEqAiCYFMiVARBsCkRKoIg2JQIFUEQbEqEiiAINiVCRRAEmxKhIgiCTYlQEQTBpkSoCIJgUyJUBEGwKREqgiDYlAgVQRBsSoSKIAg2JUJFEASbEqEiCIJNiVARBMGmRKgIgmBTIlQEQbApESqCINiUCBVBEGxKhIogCDYlQkUQBJsSoSIIgk2JUBEEwaZEqAiCYFMiVARBsCkRKoIg2JQIFUEQbEph7wKE+iU7O5v4+Phy044dO4bJZOLvv/8uN93FxYW4uLi6LE9oAGSSJEn2LkKoPzIzMwkMDMRsNle77KRJk1i0aFEdVCU0IPPE2x+hHF9fX/r3749cLq922VGjRtVBRUJDI0JFqGDs2LFUtwPr6+tLr1696qgioSERoSJUMHz4cJRKZaXzlUol48ePr9HejHDzEaEiVODq6sqQIUMqDRaj0Sje+giVEqEiWDVmzBhMJpPVeWFhYXTs2LGOKxIaChEqglWDBw/GxcWlwnSVSsWECRPqviChwRChIlilUqm45557UKlU5aYbDAbuu+8+O1UlNAQiVIRKjR49GoPBUPazTCYjJiaGli1b2rEqob4ToSJUql+/fvj4+JT9rFAoGD9+vB0rEhoCESpCpRwcHBgzZkzZWyCTySTe+gjVEqEiVGnUqFEYDAZkMhldu3alSZMm9i5JqOdEqAhVatc6ltCQUCRJ4v6RozGbLPYuSajnxCjlesygNVFSZEBfZERXZECbb0B36XtdkRFDiQldgQHJIlFSeOlrkRHJLKErMmIxWUq/mi3oi42YjRb0WlOFYJAkiZICQyVVgF9BWy5wgYPzjEx9Z7HVZRQqOSqnii8nR40SB7kMtYsKuUKGWqNErnBA7VL6VeWsQKF0QOmkQKmSl35Vy3FyV+PkqsLRRVl2U7uocHZX4eiiwkEuu7EnV6g1IlTqgK7ISFF2CUU5OopydBTn6ku/5ugovDS9OEePrrA0LEoKDWUhYY1SrUCtUaB2UqDSKJHLZaiclMiVDqicFMjlDji5KFEoHfANcUOulKF0VKBQyVE6ylEoK55er3ZW4KCo+IeqVMm5NSuc978q4YkXh6ErMlgdF2TQmq3uxeiLjFgkqfR+FgldsQnJYkFXbMJUYqY4W4fFIqEvvhR+JSZMejO6YhO6Qj2VDUFSOSlw1FwKHVclGi9HXDwd0Xg5ovFU4+LliIu3I67eTmg81aXzvRyRK8TOeW0TrQ+uk8UsUZhVQl5aMfnpWvJSiynILCH3YhEFGSXkpRZTnKujOFeHyVj+j02pVqDxVOHsrsbF0wmNuwpnD0fUGgWOzkocL/2HVmuUqJ0UqDVKHDWXpjsrcLDDH8bBwwdp37Z9nW/XoDWi05rQF5vQaw2UFBrRFxvRaUu/GopN6IoNFOfrKc7Toy0wlH7N06HNqxhKjq4qXL0ccfVxws3fGY8ADe4Bznj4O+MeoMHdzxmPQA2OLpWPfRKqNE+ESiVKCgxknSsk+3whWckF5FwoJPdiMflpWvLSiinMLsFi/u+pc3ZX4+bjhJufE67eTrj7OaNxV+Ps4YjGQ4XGQ43G0xEXdzVKK28TBNuTLBLa/NKQKc7Tob0UPMW5eopydeRnaCnILqEgQ0thlg6T8b8eMipnBZ6BLrj5OuEZpMEz2AWfUFe8Q93wCXHFM0hjl3BvAG7eULGYpbLAuDI8si99X5ynB0AmAzdfZzyDXPD0dy4NDH9nXL0dcfdzxs3XCVdfZ5QqMWK3oSvK0VGYoyM/vZjCrEuhk1VCfpaWvIvF5FwswlBSOh7KQeGAZ6AGn1A3vENd8bl08w51xS/SHWd3tZ0fjd00/lAxmyzkXiwm9UQOqafySD2RS9rJXNIS88peIEqVHDdfJ7yCXS7dXPEK1uAV5IpfmCsqZ7ErLJQqKTSQfaGInIuF5KQUk5NSSM7F4tI92XQtlkvHlZzd1QQ08yComSfeYW4ENvUgsLkX3iGuyBr3MebGEyqSRSIzqYDzh7O48G82qadySTuVR/b5QixmCQeFA95BLvhGuOEX5oZvhDv+Ee74hLji5KqqfgOCUA2LyUJ+upaMcwWkn8knM7mA9LP5ZCblo80v/XTNyVWFf5QHgc1LQya0rQ9N2ng3ptdgwwwVi8lC2ul8zh/OKr0dyebCv1noiow4KBzwj3DDL8ID/wg3fMPd8Av3wCfMFYV4DyzYSVGOjoykAjKS8sk4W/o1NTGXomwdMhl4h7gRGuNDSFtvQtr4ENLGBxdvR3uXfT0aRqjkZ2g5vSeN03vSSY7P4MKxHIw6EwqVnIBoD4KbexLc3IugFl4ERHuI4xtCg5GfqeXi8RxSjueScjKHi8dzyEvXAuAZqCEkxoeoTgFE3eJPSIwvCmW9/8dYP0MlPTGP03tLQyRxTxpZyQU4yGUENvUkLMaX4GaeBLXwwj/KHbm83j/JgnBNinP1pJzIIeV4DheOZZOUkElRtg6lo4Lw9r5EdQkgqrM/kR39cax/b5vqR6jkXCji303nObb5Aqf3plGUrUPlpCCktQ8R7X0Ji/ElrK0vao34KFa4OWWdKyDpUBZnD6aTnJBF5qV/tEHNvWjWPYjWfUOIjgtAYf+9dPuEislo4fTuVI7+c4F/N54n9WQuamcl0Z38CY/1I6KdL8HNvcR5AIJQiaJsHUkJmZw9mEHi3jTSEvNQOStofilgWvUNwTvE1R6l1V2oaPP1HFybxJEN5zi+NQV9sRHfCHdadg2iWbcgImL9xIFUQbhOeelaTuy4yImdF0nck4ZeayQg2oPW/UPpMCic8Fj/uvoou3ZDxagzcfivc+xdmcjRTReQAVFdAmjRNYgWXYPwDK7YA1UQhBtjMllIis/gxI6LHNueQmZSAd4hrnQeEU2n4VEENvOszc3bPlQsZokT21LYuyKRQ+uTMJSYiOoUQIfbw2nTJwS1GFMhCHXq4slcDq4/y6G/kslL1xLc0pvOI6LoNDwazyCNrTdnu1DRFRnZ99tpNixMIONsPv6RHsQOiiB2cARu3k622IQgCDdAskgkJ2SSsOE8h/5KojhPT+t+IfR9qA0tegbbajM3fi3lnJQifn1tNy91/oFfX91F084BzPxlKDOWDqbP+FaNMlDe+fBtfCO9cQ3WlLvdNvxWAHoN7MHWnVuve/0zZz+DR6gbK39fYXW+xWLh488/Iq7/LfhGeuMd7knTDlFMnvFY2TJ/bfqLXgN74BflQ2Bzf7oP6ArAPePvxjVYg39TPz787MOy5b/8bgmBzf0JbxvKv8f/Lbe9ytZVlQ492xPWJuR6Hn451/tc3ujvoDGSOcgIb+/HsKc78vyaEYx+vTsFaVo+GrWWt4f8xoHVZ8qGGdzQdq53TyX9dD5r39/PgTVncfV2pPvI5nS5q+lNM2T85TdmczLxJEuXLEOSJAxGA6+//Rqvvfi6TdY/YsydPDB6AsMHj6gwb9pzT/HHhvW8/do79OjaE5VSSdK5ZD5ZvICP316A3qAnvG0oPy5eRtdbupKfn89zr8xiyYIvARgzaTRurm58+t7Ccut9+sUZTH98Bk2C/msZWd26KnPufDI9B/Yg+ch5GzwbQm1KTshkyw/HObr5PJ6BLvR/LIYeY1tcb++Zedd84kdBppbf3z3AjqUn8Atz5d6XuxJzW+hNfRKaTCZDrVLbLFCqkpR8liXfLWb9L3/QrUv3sumtWrTi47cXAGAyGtFqtQT4BaBWqfHz9SsXApMnTmbkhHt4d857ODs5A6XhYTQZywVKTdZVFYVCnFfUEITF+DIuxpeclCK2LT3Biv/tYtPnhxn2fGdih0Re8/pqnASSBDt+PM5rfX7myF/J3P1iF6Z9P5gOd4Tf1IFy2bz5cwFYuORTPMPc+fm35QA889LTuAZreOHV54lqH0F0h0j27N9ddr9+Q/viFeZBSKtgFi75tNrtbN+9HRcXl3KBcjWNxoVnn5rFbcP78/Ibs0k8c6rc/B5dexIZFsnqdavLpq37ay3333X/Na3r/on34RHqBsDaP3/Hv6kf/5v7atn83NxcotpH4BvpTb+hfTmZeBKAqbOexDVYQ6tbWuAd7ol/tC9d+ncmIiYMrzAP7h43AovFUuG5zMzK5NY7++MT4UV0h0jOnU+2Ou3q+wF89uVCWndpSUAzf4bdP4Rz55Nr9Pu5mXgFuzDs6Y48/fNQQtt4s2TKRj4es46sc4XXtJ4apUFhVgkLxq7jx+e302lIJE8vH0qnwZHIHBr3GO7q/P7HmrLjKev+WgfAYxMn06dHn7Jl3nn9XeRyObOmP8fxfSfp06MPK9esLJu/cfUmcpLzWDT/c776vvo9gOzcHDzcPKpd7sVnXuKvlRswm0z0HNiDZ1+eWW7+YxMn8+PP35f9fOTokUqDqrJ1ffbBorJlBg0YzKMPPlrufs7OzuzdtJ+kw8m0atGK6c8/BcCHcz9CrVLzy7crSD2VzoghI4hpHUPC9iMc2nGYTVs2cTHtYoXncuXvK4iOjCblRCrLvlyORuNiddrV94tPiGfOO6/z45JlnNx/iqCAIGa8OAOo/vdzM/IM0HDv/3Vjyue3kXO+kDn9f2bnspM1vn+1oZIUn8Gbt/9KRmIeU74YwOCnYlE5it1agMG3D6EwpZjClGJu7397tcsrFUpaNW+N3lDaACorO4u7x40gqEUAox66H4Ox8ubTl3m4uZOekY7FUv0BtRbNWjDn5TfZum4b3yz9hh27t5fNGzniXg4fPUxqeipZ2VlERURf97oqI5fL8fL0QqNxYdIDj7D/0IFy8/18/VApVbRs0RqVSo2rqyshwSF4enpiuPQcXalLpzh+/2MNT82ail6vw9vL2+q0q+3cs4MeXXsS0zoGN1c3Hp04mV17d1ZY7urfz80utK0vU78bRNeRzfj+mc1898yWGl1NocpQOb41hQ/vX0tgU0+mfjuIkFYVf2FCqeemP3/N9/l26TdYLBaO7DzKhlWbanSf7nHdMZqM/LFhfY23Ex3ZlK6d4zh7LqlsmqPakfGjHmDZL0vZsHkDw4cMv+511YTBoMfJ8caG8se0juHgtgRi28UyYfID/PzbcqvTqiNJErJG3inJVhQKBwY90YEJ7/UhfvUZPnvwz7LmZpWpNFSSD2Wy8ME/adUzmPFv97ppPtWpS3qDHrXaEbVKxemzp2t0n6iIaB598DGefPYJVq39jfyCfEwmE8nnkpg09SGg9JOXp1+cQUZmBkaTkf0H93H46GE6te9Ubl2THniE5St/Qq1W4eRo/aP/qtalVCoxm83EJ8RToishNy+33H0vfypWWFjIJ198Qp8efa/jWfrP/oP7MRgNTBz7EPffM4qDhw9anXa1bl26s3XHFhL+TaCgsIBFXy6kR9eeN1TLzaZF92AeXtCfs/EZfPnExkqv9ACVXKJDm6/nswf/JKK9L/e+3BUHcSC2nMXffsHCxZ9iMBroeUd3Vi1dg6dH6anPs/7vWTZt3cSBQwfw9wtg1drfMJvNjH90LK/PfoP3FryL0WRi9MjR3D3sHr7+4StadWnJsEF3kngmkQ8+eZ/U9FQ2bd1EfEI83l4+9LzqD+Dt196hU4fOvPneG0x8/EFMZhPeXt50iIkFSg+u7j+4n/Y9Y9CV6IgIj2DO7Ddp3rR5ufUEBQTRqkUrOl4VNleqbl333DmSW4f1o23rtmicNfyy6meGDbqT0CahREc2JbR1CDIZ9OrWmw/nfgRQ+lbFoGfwyIF88NZ85n3wFgaDge5xPdi0ZQMZmRk8Ou1RYtvFlnsuL6RcYPjoYWi1Wtq0asOXn3zF7n17Kky7+nfQs2tPXnzmJe6bMJK8gjziOsXx0aVPymbOfqbS309Vz8vNKKSVNxPe7s2ixzew/sN4Bk6Ltbqc1fNUfpq9g/2rTjNz+TCxhyIIQjlbfzzGH58c4qVNI/EJrTASuuIZtdp8Pdu/P86AR9qJQBEEoYLuI5vjEaBh0+eHrc6vECoJfybj4CCj/YDw2q5NEIQGyEHhQMdBkRxYfdb6/KsnpCfm4xvhJrqsCYJQqeCWXhRkaSkprHgaRIVQMepMKNR2b0knCEI9pnIszQiDtuLHyxVCxTPYhdwLRZVeGFsQBCH7QhGKSxfhu1qFUGnZuwkFWSUkHcyok+LqwsW0i8ybP7dcywK3Ji407RDFW++/idlsrn4lVajJMPvq2hlUpiZtDmxtxZpfCWzuz+PPTCmbVp9aCZhMJibPeIwmLYNo0jKIac89RVWD7W8bfmuFNhWXbyPG3Fnr9a5a+xubttbs5MaGImFDMi16BVsdqlMhVIKaexLZyZ8/FyXUSXG1LS0jjakzn+CJR57kmakzmfzwFAbfPoTMM9l8vfAbPl38CT8s/776FV1h5uxnyv28Zd22CueSXO3t196hb89rP/lrxgvTWbDoY16aOZtT8ac5f/QCv/24Grm89t6ijhhyF89Nf6HctJo8xupc/bxdr782/cmmLRs5sOUgO/7cydJfl7L/4L5Kl+/WpRvpiZnknSvgvrvuY9IDj5B1NoeLx9No2zrGJjVVZdigO9m4ZQOr162q9W3VheRDmZzYcZEeY1pYnW/1rLZ7Xu3K2fgMti87XqvF1YWpzz7J+FEPlA3xv0ytUtOtS3eGDbqTf7bV/L+IxWJh7Z+/27pMqy63OVj88RKG3DEUD3cPnJ015doc1BYHGw8WteXzplAocXR0wtfHl4CAQFw0GgIDgipd/tXn/4ezk3NZEF9uVeHq6sr/XnjNJjVVZ+bUZ3n6xRnk5efVyfZqi67IyPI5u2nRqwltbwuzuozVUAlr58uw5zqzZn48RzdfqNUia1N6Rjob/vmb2/oNqHQZo8GAUll6QSZrbQguD9Nf/O0XdOjZnmYdozl34RyuwRpW/r7C6jD775Z9S0y3tniHexLdIbJCJ7XL5s2fS1T7CEJaBfP2h/MqzK9JmwOofFh/VfOuflz74vfyyRcLaB3XCu9wT956782yddiincPoh0eVe94qe/zWWhlcrU/PPjg7OfHIUw+X7sm9+ynBgdfXDnHY/UNwDdYw6J47AHhi5uN4hrmzfOVPPDVrKh6hbtx6Z398I73pO6RPudYP11K/m6sb7dq256cVy66rzvrAqDfx3fNbMJaYGPde70qXq/T8+wFT2tF9dAu+fX4r+9da/zy6vtuzfzdBQcFWx7XoDXo2b9/MqvWruOPW0heUtTYEH879CLlcTqcOnfngrfl88OZ81Co1hSnFDB88osIw+4R/E3j6xRksfH8hF0+m8e7r71k9ZrMvfi8//7ac7X/uZN8/B1j05WecTT5TbpmatDmoalh/VfOuflx7D+zl1bdeYcnHS0hLzOCpydPKtmGLdg7z3/qw3PNW2eO31srgaj+t+InmTVuwL34/uXm59O3Zlz83/klAM3+8wz35/qfvqnzOrvTtou/RaFyY99o7ALz+0hwmPfAII4ffy9z/zcNsNvP1wm84m5BM86bNmfV/zwKV//6qqr9Fsxbs2L2jxrXVJyWFBhZP3cTFk3k89vXtuPs7V7pslSej3DenO85uKpa/uoOUCf1oEQAAGdZJREFUo9kMmhbboK7Nk5WdhauVF+Xvf6zBN9Ibf19/np06izsHDScrO4tHp01i596daLVaIsPLd7wKDw3H/VLbgaps37WNnt16le1d3DnY+ujfffH7OHbiGE07RJVNO5l4koiw/7Z7ZZsDBwfrz/uVw/oBHp04maH3Da523tWP68DB/fTr3Z8uneIAUKtrNqL4cruAlNQUgGqfx+oef5dOcWWNnsbfP75CK4Ode3bw2txXObzrX/Ly8hg+ehgjx9/Nj4uXMuT2wfTq1psx946tUe0A7m7ujBk5hiXfLua9N95n2a9LeXDMxHLL+Pv6o1AomPTAI9w5auh11+/q4kpmVsP7AOTCsWy+f2EbkiQx/Zch1V7io8qEkMlg2HOdeXBBf/avPcOCB9dz4Vi2TQuubdYOaA6+fQgFF4o4FX+aaVOmI5PJrqsNgTVVBcCVJEli4G2DyvqxlPZkuaPcMtfT5qCqYf1VzTObzahV6hpvpzI1fR4re/zVtTLYc2AvAf6BKBVKfH18WfvzerQlJQwYcRsZmRmMvW/cNdc85eEpLF/5E9oSLefOJ9OyeUuryxmNhrLX0/XW35BaLphMFv7+4jCfTvoLvyh3Zq0dUaNrBtVot6PjsEieW38XLl5OLJj4B6ve3Y82v/43svH18aWgsGat8GrahkAmk2E0GUlNT0Wn11WY361Ld/7Zuok/Nv6BtkRLUVERBYUFFZbr2L4jm7dvZtvOrRiMBrKysyq8TapJm4OqhvVfy5D/9jEd2LD5bw4fPUx+QT4HE+Jr9LxdrbLn8ernrbLHX10rg9YtWnPwcDxLf1mKtkSL3EHO1EencupMImfPJbF7365rrjkqIpouneKY/fpLdI/rUWG+waCnqKiITxd/Ss9uvYDKf39V1V9QWICPt+8112cPJ3elMn/MWjZ/d5RhszrxxHcDcfWp4ZUxpGtgsUjSjqUnpFntv5VmtPhKWv3GHinrZL5UmFJcL2+J8WckJ0cnKetsjlSYUix98NZ8ycnRSZLL5VJsu9iy6YUpxdKBLQelJkFNJC9PL2nCmAclmUwmvfbi69KDYydKwP+3d+fhUVV3A8e/mX3NTPZ9Zw/7KogBkYJWRKiKorbi1lrXvrVvtaKvVlHccH1r1erb0lqpG6BsoiAqayAIBISQANn3TJLJZPbJ3PePgYGQhCUMWzyf55nnMnc5c88l85tz7vI7Uu+s3lJlQbXUXNYiDRs8TNLp9NKr81+T7r3rPkkul0uREZHSyk+/lGyVdun1F96QMtIyJZVSJQ0fMlza+k1ecL2oyKjgeo89PFeKj42XdDq9dPP1N0uNpc2d1uO9N/9PGth/oKRWqSW5XC7FxsRKU6+4Mrj8pWdelpITkyWDwSBNnjhZ2rdt/0mXHV8vW6Vduv/uB6QIc4SUEJcg5YzLkbQarbTq0y871PGeO34rAdKknEnSpq+3SKZwk6TT6aVvV3zX5XE8/rh1Vf93X39PMpvMwWO3a2N+h+Px3JPzpcz0LEmtUkvxsfHSXb+6WyrIK5TGj71MCgsLk6ZOmtrpcRw5bJSkUCgkpUIpTZk0pd2yZR+tkNLTMiRruS04r/6QRQKkcGO4pNPqpEk5k6SCvMLg8tPd/+k/v1Za8Owr5/17caLXvjVl0mvXLZPuTXpXevv21VJDWcvphAhJkqQXujVEh9vuZc07+ax9ZzdhYWGMmZHF2Fl9iYgP+WhnZ2zWnBu485d3duhaCMKxKqoqWLJ8MQ/8+sHgPJfbRUxmFNZy2yl1aU/E6XIybPwQtqzditl08hzD55Lkl9j7fQXrF+2neEct6cNimfn4aHqNSehOcWc2QqHL5mHzx4V8885ummrs9L00kUm3ZZM2+MJp4lXXVnPv7+/h33/7EJ3uwgt6wvm1e+9u0lPSefjx/+KFP78UTLYFR4NKU6n1jIcbeeLZxxk5dGSXJ+7PB4/Dy47Vpaz/TwENJVb6jk9i4h3ZDJycdiaDuYdm2NM2n58flh3im7/tpiy/gdTsKIZelcGQK9IwRJ1ZXtJQqKiq4J+LFvLYw3PP964IF5jZd97Ehs3reXX+a1x/7Q3tlv3qN79kyfLF9OvTjw2rN3X7RPbiZZ8RbjQxeeLkUOzyGZH8EiW76tjxZSm71pTi9/kZc31vJt09iNhMUyg+IvQDtBdtqWbTov3krw4Mzt5rVDxDr8xg4IQUkU5BEM6T6gPNgUHavyqlqcZOUr9IRl/Xm7E39UEfEdIf/tAHlSO8Lh/5X5WRt/QAe9eVEyaTMSAnieyJKfS5JAGtUXU2PlYQBAKD/1UXNVGwsZJdX5VQc9BKZJKBUTN7MXJmLxL7nvzScDedvaByLHuzmx3LD5G39CAH82pBkkgZGE3/cUn0GZtAYt/IM+nDCYIAuOxeinKrKdhUReHmKlrqnRijtQy7OoOR12aROSr+XHzPzk1QOZazxcO+7yvYu66cvesqsNY5MEZp6Tsugb5jE8kYFosx6hSvhwvCT5jf56eqqIkDW2vYv7makvx6kCTSh8aSfUUKAyamkDIo+lz/YJ/7oHK86sImdq8pY//3lRRtqabN5yc8Wkv6kFh6jY4nfUgMsRkm0ZIRfvI8Lh9VBY2U5DdQsquO4p31uGweDJEa+oxLZODkVAZOTkVvPvM7o8/A+Q8qx3K1eineXsuBrTUczK2hZGc9XpcPY5SWtCExZAyNIW1wDPG9zChVIuWl0LNZ6x1U7m2keGcdpfn1VOxrpM3nJzLJQK8x8WSNDrzie0dcSD+6F1ZQOZ7f56dibyMHt9VwaFsthZuqaG10IVPIiEkNJ6lfBHGZZuIywkkbEosuXJz8FS5OLQ1OKvdZqChopLKgkYq9jdgsTgCiU4xkHg4g/S9LIqrjWDsXkgs7qBxPkqC+2Er5Hgvlexoo391A+R4L9iYXYbIwYlKNJPSJJKlPBHFZJmLTTUQk6DtNeScI54Pb7qOu1EpdSQs1RU1U7m+icr8Fl82LTB5GXKaZlEFRJA+MJnVQNMkDoy62K6UXV1DpSmNFayDI7LFQvruBih8tNNfYAVCqFcSkG4lJMxGXEU5Mejix6Wai04wXVRoH4eJib3JTW2ylrsRKXXELdSVW6kutNNc4AFCo5CT0iQgEkOxoUgdFkTQgCpX2or+Xq2cElc44bR5qDzRTXdhM7cFmaoqaqClsxlJhw98mIVPIiEo0EJViIDLJSESinqhEAxGJBiKTDGj0YnRGoWv+NglrnYOmajuNla00VrXSVGXDUmWnvrQFR3PgKX6tUUVclpmEvmbisszE9zYT3zuCqBQjMnmPbEH33KDSFZ+njdqDVmoPNFNT1Ex9aQsNZS1YSm201DuCQ5PoTGoiE/VEJhqJSNITmWjAHKsjPFaHMUojLnv3cF63D1uDE2udE2udg+YaO41VR4KHnaZqO20+PwBKjYLoFCNRqUaiU43EZpqI720mrpcZ8wX4kO1Z9tMLKifidbfRWG6joSzwspTbsJS1YDn8/tjR2BRKGcZo7eEgo8UUo8MUo8UYrcUUpyM8SovOrEZnUl9IZ+Z/8rxuHw6rB5vFSUu9k5Z6By0NLppr7bRaXFjrHLQ0ONvlC5LJwzDH64lKMRKdHh4MIFGHp6bYrlMr/gSJoHI6PA4fTVWttNQ7aaq2Y62xY60N/IpZax00V9tpqXPg8/qD24TJwtCZVOjNGnQmNXqzGp1JhSHyyHsNepMKvVmNxqBGbVCg0SpQ6UT360T8bRJuhxdniycwtXmwN7uxN7mwN7txWD3Ym13Bqb3Zjb3ZjcfZfkQ9vVlNeIwOc6IeU5wOc4IeU+zhaZwOc7weY7S2p3ZVzgYRVM4GW72TlgYnrY0uWhuctDa5sTe6sDe5aG1y0Wo5/GoM/LF7XR2HjgyThaExqNAalKh0ysPBRolar0RrVKLRB/4tV8pRaeTIlXKUGgUKVRgqjSIwXy1HrpKjVAdeisPTI9RaBbKzcLLa4/DS1nb0z8rZEmjhOW0eJAlcrcdOJdytXvz+wG3mkl/CZffgtvvw2L047V48Th/OFjduuw+X3Yvb7sXTyTEDMERo0Eeo0UdqMERqgtMjL32EGn2EBmO0FnO8DqXmoj8xeqERQeVC4HH6aG104Wzx4LJ5cNm9uGyBX1+n1R1872r14Gr14mrx4LB6cNs9tHn9uBxe/D4Jl92L3+c/+QeehEavJEx+8mDjcXiD5xXOhFqvRK6QodYpAlODCo1RicagRGMMBFatSR14b1CiMajQGFVoDEp0JlUg+IYHWn/i9oHz7kURpi8AKq2CyCQDdG/omg7c9sCX3ePw4fP68Ti8+Dx+PE4fPs/RPLhd5Rl2WD2dzj+eUi1Hqel4Z3Ng/tE/LW24irCwMDRGJTK5DI1BiUwehkavPCstJeH8EkGlB1IfvhyuM53XZ0CEnyjxMyEIQkiJoCIIQkiJoCIIQkiJoCIIQkiJoCIIQkiJqz8XuU2LCvh8/jZaGwNDsIbJwgiP1jJgUgoz/jQaQ5SG9+9Zy46VxUy6exC/eGLMednP/71lFfu+q2g3b/yt/Zn9fMdhRoWLmwgqF7lxs/uROjiG+VMX8+v3fka/y5Io2VHHP3/3HVX7Gvnjihnc+fYVvHb98vO6n3KFjL9U3H1e90E4N0T3p4dR65X0HZ/E5HsGU7qrnobSjoPDC8LZJFoqPVREYuCR+5Z6J9Fp4QA0lLbwj/vXsffbchQqObe8nEP2pBQA1r6Tz9p3d9NqcWGK0zHziTEMn5YJwOo3d7Lu/T24bB4iEg38fvE1GGO0NJTZ+M+fNlD8Qx16s5orHxzGuNl9u7W/y17KY+tnRTy+9vrgzXvCxUkElR6qrtgKQFTK0Xymxmgt1z15CQALH1zH8pe3B4NKU7Wd+z64ithME8tezGPJvFyGT8ukLL+Bte/k88iqmRijtKx4dTselw9/m8Sbs1cyYGIyd719BcU/1PGXW1eR2D+S9KEdx9L2t0k8Nvzf2CxO9JEaMobHMv2RUST0CQxqJfklkEA8iXbxE92fHsbV6mXP2jLWvrubYVdnYIo7mutDrVei0ipQaRX0n5hCc7U9uOz6p8aS1D8SpVpOxvBYbPWBpMutjU48rjb8bRIqnYKZc8cQlWKkdGcdDaUtTH1gKBqjiv4TkolJN7F/fWWn+3Xjc5fy6OqZvH7wDh5eMh233cdfb1sdTEUw/ZFRPJM7G41BtFIudqKl0oO8e9fXwas/w6dlcu2jo7pcVyYDiaPNgjV/zWfjhwU019jxunzIlYEHBXuNTiA208S8yz9h8NR0Jt09kIwRcVjKWwGYO/LDduV29ZBi9DEZ4GPSw/nFE2OYP3UxRVuqyb48pdt1Fi48Iqj0IL9+72cMuTL9tLcr2lzN0udyufPtyfTPSWLvtxUsfOhbAFQ6BX9cMYOdK4rZtKiABTO+4LcLr0ShCjRyF+y7DU03sr0fyZbmbvWe9rbChU10fwRqipowxekZdnUGGqOqQ04ShVLGyBlZPPjR1fTLSWbXlyVEJBkC2x5o7tZnNpTbAIInkYWeQwQVAVOcnlaLk5qiZuzNbsp21QeX7VhRzPcL9+Jx+LA3ufC62ohI1JM6OIa4XmY++/MWLOWBEQqstQ5cnbQ8PA4ff52zmlaLizafn+rCJpbMyyVrdDypg6OBwNWfJy5ZhNsuWi4XO9H9ucjt+rKERX/aAMDCh74lbUgMD318dbt1lr2Yx8FtgWFkYzPCiU4LZ8m8rTisbhY+uI5bXs6h34Rknr9qCbGZJob9PB2fp43/vWUVP//dcJY+t5VPn9yMWq+k/4QkLr9rEGFhcO/CqXzwh+95ZuInKFRy+k9MZtbT4zqcbFXpFDRX23ly/Ed4nD7M8Tr65yRz7WOjz9lxEs4dkU5SEIRQelF0fwRBCCkRVARBCCkRVARBCCkRVARBCCkRVARBCClxSfkULXxwHXlfHMLv82NO0HPjs5cyeEoaAG0+Py9d8zmVey3ozGpuf3MS/XI6DuKzYsF21ryTjyFSwzNbZgOw9LmtFG+v478+m9Zh/a/e2sXqN3ag1Cp4fsetp73PJyo7VKr2N/HJE5so292AXCGj99gEZs8fjyFKc0rb15e08NVfdlKwvpKWWgcKtZzEfpGMuaEPl97cT4xDfRESLZVTdNsbl3Pd/wSypv3m/SnBgAKBBESPrppJcnYUT62/sdOAAnD1wyOY8adTvzdjyr1Dgk8Vn4qC9ZV89/cfT3n9UPjn775FrVcwL3c2j66aSVl+PStf++GUtq3ca+H5q5bQXO3gN+9PYcH+OTyTO5vxt/Zn6bO5/OOBb05rX0Jd//NxPHsCEVROwyWz+qIxKMn9pLDDspKd9aQOikYbfnrPwcx4bPRJWhKn/lO98cOC0yz7zNUdstLvsiS04Soikw2kDIzG1uA8pW3/89hGtEYl9/xjCsnZUShUcnQmNWOu782seZeSt/Qg+atLT3lfjq//mQp1eT8VovtzGjQGJWNu6EPe5wf5xZOXID9myM6tnxaSMycbOHHCo2PtXFnMBw9/j1qv5Nm8m4HA4O4fPrKegvWVSH4p8LDeMXGlq7I/+MP37Fh+iB+WHeLjJzYxa96lLHthW7uyGyta+ejxjRRtrkapkdNrTAKz5o3DFKvjyzd2sGLBdoZNy0QmC+PHb8pRaRX88tUJ9Lus6/FYUwZGk7+6lAm3D6SlzkHx9jpufSXnpMeyudrOobxapj4wtN1xPGL4tAw+emwD25YeYPDUND54+Du2fFzIjLljmHzPYNa9t4cvXthGfG8zj6yc2aH+42/tz8Z/76P32EQaK2y01DtJGxLDLS/nEJMeftrlzd9xC+Exuk5qIhxPtFRO04Q52dibXOxZUxac5/P6sdY6SOofCRxNeLRg/xyGTctkybzcTssa+vOMDreqv3XbalqbXDyx7gZe2T+HKfcNabe8q7JvfTmHiCQDs54Zx18q7mbCnAEdyn7/t2uRycJ4asMsHlk5E2eLh3fv/BqAKx8cRtaoeLRGFTe/eBnzts4msV8kK189cVfmuifHcHBrDQtmfMGiR9dz998mk315Cu/c8RX3p77HQxnvs+TZjvWvLmwCIDbD1Gm5CpWcyCQDVQWNgfotmEBs5tF1L79rIFPvHxp8f3z9Zz8/nsT+UST0MTN3zfU8teFGZAoZ7971dbfKEwHl1Imgcpriskz0y0km99Oi4Lw9a8oYcW1W8H1XCY9Opiy/nrL8embOHUNksgGZQtbhOZrull2+x0LJjjqu+eNIwmN0RCYZmP7oKEp21FG+xxJc70giJ7VeSfak5HaJnI5Xe6CZxU/nMnJmLyp+tOC2+0jsFwisv/m/KcSkh3PNI6OYObdjBv8jDx6eqLuoM6s7fUDxdITH6FDpFJjidFzz3yOoKmhsV18h9ET3pxsm3p7Nu3d9TWujC0Okhv0bKrnhz2ODy7tKeHQytYcCKSCTB0R1uU53yz6SADs69WiqgfgsU3BZysCOnxkWFkZXj4Y5bR5ev3EFObcN4MoHhzH2xr68PWc1r89azn3/ugq5SkZjuY0R07M63f5IsHRYPV3us73JjbYbuVq6EptlBsBSbuu0vkJoiJZKN2RPSiEiyUDe5wdpbXQRkRRoVcDRhEfTHx3F/B9u4Y63rjjlcts8fgBkys7/W86k7COODRJH/tmdy7YHc2uw1joYeEUqAL3GxPPQJ9NorGzllV98wZq38xk0JS2YgPt4iYe7inUHO8/H4nW30VjZStKAyNPfuS74vYePr1xcpz6bRFDphjBZGBPmDCD3k0J2rixm7A19gstOlvDoRI58AesPJ60+3pmUHZN+OKN+me1oeYcTLB1ZdjqOBCRrnSM4L2VgFL9fPB2P08eXr+/gkmOOy/FMsTr6jEsk97MifJ62Dsu3f34Qt93LqJm9js4MCwskyO6mqv2B8zPB8zhnWJ7QORFUumnsTX2pOdCMpcyGMUYbnH+ihEcn0+uSBMwJehY/nUtLvYOmKju7jzkhfLKylRoFpbvq8Xna8Lrbf1GTs6PIGB7L8pfygmUve2EbGcNjSTpBd6srWaPjMMXqWPz0Fg5tq8XrbsNhdQcDX2SSgb/f/w35X3V9Sfim5y7F527j7du/ouJHCz6vH4fVTe6nRXz65GZGX9c72BKCQCDav7EKt92Ls8XTLqB1VX+3w0ebz09jZSvLXtpO70sSiO9t7nZ5wsnJn3rqqafO905cjJRqOc1VdkZMzyQi0RCcH5VqpGx3A5/P38aeNWUkD4ikYH0lxdvraCizseq1HbRaXOxaVULtQStfv7ULe5OLnStLGH51JoN+lsbOlcV88WIee9aUEZMWzqFttdQdsjL5nsFdlj36ut60ef18+/e9bP7Pfgo3VrFp0f5g2cOuymDw1DR2rynjsz9v4buFPxKbYeLWBTnoTGpWv7mT3E8LKd9twRCpwdbg4qO5G7E1OGmudrS72Q8CX7jsSanUFDXzzd92s/zFPLZ8XIjfJ3HD02MZd1M/8pYeYMMHBfyw7BBDrkxHY2h/fsQQqWHEtVlUFTSx+s2dfP7cVr77x480VtqZct8Qpv1hZLuumSlWx/p/7ePrt/Kp2GvB3yZRsL4Ke6OL7Ekp7eqfOSKOPd+UU7ixipWvbOf7hftIzo7itjcuR6VVdKu8Iyk0hRPaKJI0CT3Wc1MWM+KaTKY+MPTkKwuhIpI0CT2bOGdy7olLykKP9NHcjVTts1B3yEpLvYNZ8y4937v0kyG6P4IghJLo/giCEFoiqAiCEFIiqAiCEFIiqAiCEFIiqAiCEFIiqAiCEFIiqAiCEFIiqAiCEFIiqAiCEFIiqAiCEFIiqAiCEFL/DzpA8nDLOC3qAAAAAElFTkSuQmCC;" vertex="1" parent="1">
          <mxGeometry x="3290" y="110" width="867.28" height="980" as="geometry" />
        </mxCell>
        <mxCell id="DSl8sD201AtZQCHesUCh-68" style="edgeStyle=orthogonalEdgeStyle;rounded=0;orthogonalLoop=1;jettySize=auto;html=1;entryX=0;entryY=0.25;entryDx=0;entryDy=0;strokeWidth=12;" edge="1" parent="1" source="DSl8sD201AtZQCHesUCh-52" target="DSl8sD201AtZQCHesUCh-62">
          <mxGeometry relative="1" as="geometry" />
        </mxCell>
        <mxCell id="DSl8sD201AtZQCHesUCh-52" value="" style="shape=image;verticalLabelPosition=bottom;labelBackgroundColor=default;verticalAlign=top;aspect=fixed;imageAspect=0;image=data:image/png,iVBORw0KGgoAAAANSUhEUgAAAXcAAAGoCAYAAAC9qKUEAAAABmJLR0QA/wD/AP+gvaeTAAAgAElEQVR4nOzdd3hTZRvH8W9Hkrbp3gsoLVCgpey9RRkyBEEUBByIIO4toogsFWU4UZkqr4oLFFQcgAxBNiJ7FEpLd+lKR+Z5/6hUCi0UmjY03J/r6gU5SZ7nPin8evrknDsOiqIoCCGEsCd6R1tXIIQQwvok3IUQwg5JuAshhB1ytnUB17t8vZl8vYl8vRmdwUxOkRGd3lx6O09vAiCnyMSF715kFxnLHc9V5YSL838/U93UjmicHVE7OeKudsLb1RlPjTNajRPuaic8NE74uKrw0Djh7OhQrfsqhLAfN2S4mywKZ3P1nM4uJjGnmIwCA2k6I+k6w79/N5CWbySzwECxyVLuGGpnR7RqJzw1TgBoLwpfrcYZR4dLw7jIYMJk+e+ngE5vxmxR0JsUCo1m8opNFdbtr1URoFUT4K4iyF1NkLsaf23J30M9NdT1diHC1wVPzQ35bRVCXMDBXs+W0RnMHEkv5GhGASezikjIKeZUdjEJ2cUk5RSXBqzKyRE/NxUBHip8tWr83Jzx06pLbruV3Na6OKNVOaHVOOHp4oRW7YTKqfpWtPKLTRQYLRTqzRQYzeQVGdHpLaTn6zlXaCKr0EBGvoFzBSbOFRrILDCSW/TfDwUfNxURPi5E+LhQz9uFCB9XogPciA5wo56PS7XVLYS4buhrfbgXGMzsT9VxOK2Aw+mFHEwr4EhGAWdyilGUkiPsOt4aQr1cCPfWEO7tQriPC2H//j3QXW3rXbCKIqOZpBw9Z3OKScrWk5RT8kMsOU9PYnYxWQUly0TuaicaB2ppGqSlaaAbTQK1xAa7EyGhL4Q9qV3hbrIoHM0oZM/ZfHafzWN3Uj67kvIxmC2onByp7+tCgwA3GgZqaRjoRgN/N6L8XXGStWryikwk5BRzPL2QE+mFHMss5GR6AYk5eiyKgpeLM7FBWlqFe9AlwpsuEd4Ee9jHDz4hbkDXd7jn681sPpXDhpPZbDmdw98pOvQmCx4aZ2JD3YkL9SAuzJ3YEHfCvV0oZ4lbXIFOb+JwWgEHknX8fTaff5J1nD5XhKJAuJcLHet50iPShx5RPjQOcLN1uUKIyrm+wr3QaObP07lsOJnNH/HZ7E7Kx6woRAe40b6+979h7kF9P5dy36wU1pFXZOKflHz2n9WxKzGPnQm56PRmgj3U9IzyKf2K9HW1dalCiPLZPtyzCo38dCSLNYczWXs0C53BTD0fFzpFetO6rhcd63sT4inLA7ZktigcSitgV0Iuu8/ksSU+h7xiE/V9XRnQxI9hzQLpVM9LfuAKcf2wTbifzi7muwPp/HAok60JuaicHOgc6c0t0X50b+hLkKz1XteMZgt7EvP5/eg5fjuSyZnsYoI81Axq4s9tMQHc3MAXlZMEvRA2VHPhXmS08OORTD7ansyGk+fwclXRKcKLm6L96NPYD+2/54uL2udMdjHrjmax9mAmu5Ly8HZxZlizQB5sH0arMA9blyfEjah6w11RYGN8Nst2p/DdgQyMFoVejXwZ1iKIrg185IpLO5SUo+e7v1NZuS+dhOxiWoR6cE/rYEa1DMbXTWXr8oS4UVRPuBvNCt8fyuDNjWfYlZRHwwA3hrQIZLj8B7+h/JOi48tdKaw+kIHRrHBHXCAv9owgWs66EaK6WTfc8/VmFu04y/wtSaTm67k1xp9xncOJCXa31hSiFiowmPlqTyrL/jpLcp6B22MDeKZbPdqEy5KNENXEOuFuMFtYsO0sM9afRm+yMLxVMPd3CCPMW2ONIoWdMFkU1h7KZOHWJP5J1tG/iT+zb20g588LYX1VD/dVBzN4/ueTJOYUc1+HMMZ3CcfLRRpXicvbcjKb1387xbH0Qh5sH8aUm+sToJUlOyGs5NrD/XhmIQ9+e4TNp3MYGBPAszfXlyN1cVUsisI3e9OYuz6BYpOFGb0jmdgxXK40FqLqri3cl+xM5snVx4nwc2XagAa0kNPdRBUUGMws2JzEx38m0quBL0vuaCJ9bYSomqv7DNXcYhN3f3GQB787wrBWQXwztvl1Gezvz36daB9PIlzVRLiqaejlzoCO7dn46y/VNqfFYmHxu2/Tt20ron08aejlTrv69Xh2/DirznPxvp3/GnZTDwCG3dTjkvvOf40ZNMCqtViLVu3EM73q8fXY5hzLKqT5/O38cCjT1mUJUatVOtwTsotp/94u1p/MZundMUzpG4Xa+fr8lL6Hn3uB+x9+lFsGDuR0kYFdCYn06NOXiXePoLioqFrmfPmJx1j0zts8NWUqO04l8HdyGp+t+QknJ+tenHXxvp0q1HMsJ582HTsB0LZzFw5n5XBSV8Tgu0YwevwEjuXkcyAtk5i45latxdqah3mwZkJLBjQL4PbP9vPmxgRblyRErVWpdz4PpxfQd/HfaDWOfD++Za1rD+Dl7cMdY+7hvTdeIyMtjToREVYd/8ypU3y+aCErfltHu85dSrdHx8Tw+gcfWnWuizk4OKDWaHhh5iwAnp8+o9z71RoNz8+YWa21WIOryokpfaOI9HXjxZ9Pcq7QxKy+UbIOL8RVuuKh956z+XT/cA+h3hq+ur95rQt2gPzcXL5cuoSQ8HBCwsNLtw/p3pUGnlqahwSx7IP3AegR24QIVzUP3z3iknHu6NWTxr5e7PhzS5ntO7ZsRuvhUSbYL/biIxOJcFXzv4Uf0zMuhphAPyJc1dzV5xYAXpg4gQYebvzw1QoAPlnwAZ2jGxAT4Muo/v1ISqj4KHbutFcr/2LUEqPahfDWkEbM3XyGR74/yvXTu1SI2uGy4X42T8+gT/bTJMSdZaNi8ahlpzj+tno1Ea5qmgUH8PuPq1n87Uqcnf/bh5UbN3Mir4A5i5bw5dLFAHy9bgNuWi2vzpsPwPyZ0/lo3hwAZr33AU++POWSEM8+l4Wnl9dla5n13gc4OTnRol07Zr7zHh8s/xytuztT35oLwKRZrzF6/AQGDb+Tf/buYd70aSz8+lv+OnGKoNBQpjz5eLn7FuGqJjMjvWov1HVqcFwgHwxvyqIdybzxhyzRCHE1Kgx3i6Jw9xcHcdc48f4djXFRXZ/r65dzfl366VemYjQYqFc/svS+c5kZ3Dt4ELFB/oy/cxgGgwGAgKBgevbpyxdLFmMyGvnlh+9Z/vFHWCwWvl3+GcNGjb5kHk8vbzLS0rBYyv8w7QvViYigU4+edO/dh6GjRvO/xQsBWPXFF4y4/wEAdv75J+27dqVpXHM8vLy4d+LD7Nq6tdx9O11kICAw6Jpfo+vdzY19mdwnkpd/jWdjfI6tyxGi1qgwsT/YdpbtZ/KYP7RxrTtiv9j4J58G4KXHHy3dtuKTZVgsFjYfPsp3GzeXefzo8RP4fNFCVn/zNU9Mfhmz2cwvP3yPTpePX0DgJeO369IVk9HI+p9/vqq67nv4UX5YsYKiwkKSEhJo1LRpuY9TFAWHyyw6P/nylKuat7a5p30ovaJ9uP+bwxSbrvwDVAhRQbjn681MW3eK+zuE0SRYW9M1WZ1ao+GVt+ay8ovP+fZ/ywEw6PVoXDSo1RpOnzhR5vEdunVH6+HBwvnzuGXAQEY/OJ5JEx+i722Dyx2/foMG3PPQRCY9/BBrv19FXm4OJpOJxNOnefL+eyusq36DBrTu2JHXJk+iXZeupdvbdenCX5s2cWj/3+Tn5vLJgg9o37VrheNYLBbWfPsNf25YfxWvSu0yrX9D0vINLNiWZOtShKgVyg33z/akUGy0ML5reHl3X/f+t/Bjln7wHut/+omhPbsD0LNvP24ZMIDnxo9j7rRXGThsOAf27qVLdEP+2rSRU8eP8+Hct0rHGDVuPIPuvBNHR0fuun8sgSHBdO55U4VzTp0zj8mvv8H8mdNpU68O0d4eDOneldyckqWEFx+ZiNlsZnC3LuTn5pY+b+yjj/HHL2vpdeutpdtiW7TkyZenMHboEDo0jCQjLY1X55a8B7Dgrdksef/dMmvukVoXHhk1Ek9v79IxBnfrwppvvubzxYu4d/Ag67ywNhTkoWZkmxDe/jMJi7y7KsQVlXuFatcFuwn21vDWkGhb1HRDSUlK4sfvvuGBx56wdSnXvZOZRdzy3i42jG9Ft/reV36CEDeuS69QLTJa2JWUT/eGvrYo6IZxeP9+dHl5vPnKywwbPcbW5dQKUf6u1PHWsEneWBXiii4J91PZRRjMFhoF1v619uvZvBnT6BzdkJ59++HtIz9IKys6WMvRzEJblyHEde+S02ByikwAeNbyM2Sudx9/9Y2tS6iVPF1UZBcabV2GENe9S47c3dUlvVCKDOYaL0aIKynQm+TAQ4hKuCTc63q74OAAp7Kqp8HWtaiNnQ6rU2pyMu++XtJLJsrd9ZLXpF/7NlUaf+33q9iyfp01SrW6hHPF1PN2sXUZQlz3Lgl3b1dnmgRq2Xbq+nnTqjZ3OrS29NQUJj38UOnZNedfi9NFBvanphMSFsag4XdWaY6+tw1my7p1/PLD99Yo2WoyCwwcSy+kU73Lt3oQQlRwnvuwZoH8eCADk/n6OJ/4+ekzcHVzK22fe77TobunZ413OjQaDPy8amWNznmhFx+ZyJ333oerW8nnjk6dMw+1puQTsKY88ThhdeuVXpFbFQ8/9zxTnniM3JzsKo9lLSv/TsdD48TNciaXEFdUbrjf1yaEnGITK/ak1nQ916SiDornOzF2ahRFQy93mvh506dNS1rVCaOBp5Z7Bw8q7QdzuS6M773xGq3rhtPQy53WdcNLWwFc3Olx384d5XaarGwdWRnpDO3ZnUbeHrSNqHtJJ8iMtFQ2/vYbPXr3ueQ1+HnVSn5d/QNzFi3B0fG/b+vl6jlfd7/2bS7ZDw8vL2JbtuL7L7+04nfq2hUZzSzZepb72oTgWgv7HAlR08r9X1LX24UJHcKY90cCmQWGmq7pqlyug+Ks9z5ArdGwbNVqDmWc49bbh9I0rjmbDh5m08EjbFm/jrTk5MuOcfrkST54czbfbtjIvqQUmsTFkZyYWDr+hZ0eFUUpt9NkZev46bvvqN+wIQfSMln07Xe4uZc9HXXP9u2EhIXh4upaZntmehqTH3mYl16fTb3IyDL3VVTPhXXPevf9S/YDoGHjJpe0N7aVd/5IpNBo5vke9WxdihC1QoWnHUzrHcn3hzJ5dtVxFo9siuN1+mkJF3ZQBLh34sPc3a9vmcf4BwWiUquJjonh5NGjuHt64u7pibePL3q9/rJjqFQqgNKjYUVRyrQNhpJOjzHNW5R2mty1bStFBQXUi4q6qjpad+zIW1NfAWD4Pffi6+df5vlZGRloPS79WMPnH5pAs9atGflA2Y/0O5eZwVMPjK2wnvN1V3Rb6+FOVkbGJfPVtK3xOSzalsSCIdEEute+zxMQwhYq/P3WXe3E5yNi2H4qh1m/nKrJmqrkSh0Ur3aMsLp1GTpqNL1bt6Bt/bp4+XhXeEXp5TpNVkbTuOZsOHCQuFateXT03az++qtLHuPkWPZj+75cuoTd27bx5kcfW70eoMqvZVWdzCzikW+OMKxZIGPbhtq0FiFqk8suXrav48mSO5rwyY5kXv355HXZsOlqOyhe7Ri6vDyOHTrE3qQUDmVms/Crb3HTln/17uU6TVbG37t3YTQYGfnAOG4fOYoDe/eWud8/MBBdfl7p7aSEBKY//ywz3nmXwOAQzGYzBTodH82bw6H9f1e5Hl1ePr7+/ld+YDU5mKpjxNL9xAS4sXhYE5vVIUStpFTCDwczFLfJG5TBy/crJ3R65XSRwSZfLdq2U5ydnRVnlUrp0adv6fapc+YpIeHhitbDQ+l2S29l2/F45XSRQRn5wDgFUBrHxirfrP9D8fDyUjQuLsqcRUuUISNGKoDSpmOny46xPzVdiYqOVgAFUNQajdL3tsHKifxCZeTYBxRAiWzUSPknNUNZ//cBJSQ8XPHx9VNG3D9WcXBwUF6YOavSdcxdvFTx8vZRVGq1EteqtfLHgcNl9n/n6TOKi6urciwnXzldZFDe+nhRaV0Xf22PT6i4novqvvj2+fn63jZYmTbvbZt8r1edyFJ8X92k9Px4j5JXbKrMP1MhxH+Ky+0KWZ7fj59j6Gf/0Dzck7eGNKqVn6V6LdJSUvho7ltMebPko/Z0eXkM7NyBdz5dTrOWrWq8ngeGDWHk2HHc1O/WKz+4CoqLiujZrClrd+3By9unWue62Je7U5m+Np5+0b4svysGjbOcHSPEVbq0K2RFbm7oy/rxrUjL09P/wz38eiSrOgu7bvzxy1qyMjIoyM+nqLCQbZs2kZebR52ICJvUM/PdD1i24AMKCwqqdZ75M6Yz5a25NRrs5wqNTPjyEC//eILHOofz5chYCXYhrlGlj9zP0xnMPLX6OIt3JjO8VTCTetfHy457fWSfy+KJ++5l19Y/MRqNNGkWxwszZtKxew+b1ZSSlMSKZUt54qWXq2X8Nd9+g6enJ91u6V0t45dn3dFzTF59HBeVI58Mbyr92oWoGv1Vh/t5qw5mMGHlUUwWhUe71WVU2xCcna7P0yXF9etIWgGzfj3FlpPZjGoVzDuDGtn1wYIQNeTawx1KjuLnbDrD7D8SCPHS8HSvCG5taruzK0Ttca7QyHubzvDZjhSah7gzZ0BDOVoXwnqqFu7nJeYW89Iv8fxvbyoxwe7c2yGMQc0CcHaUI3lRVmJ2MUu3n+WrPWl4uzgz5eb6jG0bct1eJCdELWWdcD9vV1I+b25MYOXBDMK8NNzXIYw7Wgbhpna68pOFXdt3Np+Ffybx65Es6ni78GSXOoxtGyp9YoSoHtYN9/PizxUxb3Miy3aloHJ2YHBcILe3CKJZiLu1pxLXsfxiE2sOZvLt3lT2JOXTJtyTZ7rV5fbYAJzktzohqlP1hPt5WYVGFu1IZtnuFI5lFNI4SMvQFoHcFheIv/bGOE/+RmNRFLbG5/DNvjR+PZKFAzA4JoBx7cLoHilr6kLUkOoN9wttTcjlk90pfL0/nQKDmU6R3vRu7EevaL8b5oIoe2WyKOw4nctvR7P47fA5kvOKaV/Xk3tbhzA8LghvVzn7RYgaVnPhfl6R0cKqgxl8eyCdX4+do9BopnmYBzdH+3JztD+NAt1qshxxjQr0ZjaezOa3I1n8cfwcuUUmYoK0DI4JYGTLYBoHyPdRCBuq+XC/ULHJwp+nc1h9OJNv/skgJU9PkLua1nU96RzlQ9coH8K9NbYqT1zAZFE4nFbAn/HZbD2Zy44zuZgtCh3qeDKgqT+DmgZIoAtx/bBtuF/IoijsSMznt+NZrD+Zw44zuRSbLET4utA+wpsOEV7EhXkQ4euKnDVX/XR6EweSdew8k8e207nsTcxDb7JQ39eVnlE+3BTlQ+9Gvvi5qWxdqhDiUtdPuF+s2GThr4RcNsRns+FkDjsT8zCYLXi5OtMs1INmoe40D/OgWagHIZ6yZl8VxUYLh9J0/HNWx/7kfP45m098VjEWRaGOtws9Ir25KcqHHlE+1PV2sXW5Qogru37D/WJ6k4V9KTp2Jeax62w+OxPzOJpRiEVR8NeqaRjoRlSAK9EBWqL8XWkUpMVXjirLMJotxGcVcyKjkBMZhRxPL+BkZiHxWUUYzQrers60CfekXR1P2oZ70ibcg1BPWRYTohaqPeFenny9md1n89iXrONQWgGH0ku+cotMAPhqVTT0dyPMx4U63hrqeLsQ6q0h3NuVYE+1XV5Bm1Nk5GyunuQcPUk5xSTl6EnKKSI+s4iEc8WYLArOjg7U93UlJkhLk0AtzYK1tA73pIGf65UnEELUBrU73CuSnKfncHoBh9IKOZxewOnsYk5nF5GQXUyxyQKAs6MDwZ4aQr00+Lo5E+hZ8qe/Vk2AuxofrQo/t5IvTxufyqc3WcgtNpGlM5Kh05NVYOJcoYH0fCNZBQayCk2k5ek5m6MnX28qfV6wh5oIH1fq+bjQ0L8kzBsHaIkOcJNWukLYN/sM98tJzTdwOruYMzlFnM4uJilXT2q+gTSdgQxdyZ85RaZLnueucUKrcsJN44SHxgmtxhmtxhGt2hm3Cy6hd1E5oXH677aHixMOjlBksGA0/fdS5+pN8O9Lb1ZAV2wiT2+mSG+mwGim0GAmt9hEgd6MyVL2W6RxdsRfqyLYQ02gVk2gu5pQTw31fFyo5+1S8qePCy4S4ELcqG68cK8Mg9lCRoGRdJ2BrAIjOcUm8vVm8vUmdHoz+Xrzv9tM6AxmCgyW0ufq9KYyYXz69y/IXv8JTab9VCZs3TXOpctCjg7g7eKMp4szHhon3NVOuGuc8HFVld72dnUmQKsm2EMtLXGFEFeil5Qoh9rJkTBPDWFWeDPxXf5i5nYV/zzZ3gqVCSFE5cjv7UIIYYck3IUQwg5JuAshhB2ScBdCCDsk4S6EEHZIwl0IIeyQhLsQQtghCXchhLBDEu5CCGGHJNyFEMIOSbgLIYQdknAXQgg7JOEuhBB2SMJdCCHskIS7EELYIQl3IYSwQxLuQghhhyTchRDCDkm4CyGEHZJwF0IIOyThLoQQdkjCXQgh7JCEuxBC2CEJdyGEsEMS7kIIYYck3IUQwg5JuAshhB2ScBdCCDsk4S6EEHZIwl0IIeyQhLsQQtghZ1sXYE+ys7OJj48vsy0xMRGj0cju3bvLbHd1daVp06Y1WZ4Q4gbioCiKYusi7MXp06eJjIykMi/pAw88wMKFC2ugKiHEDUgvyzJWFBERQZs2bXBwcLjiY0eMGFEDFQkhblQS7lY2ZswYHB0v/7L6+/vTvXv3GqpICHEjknC3sjvvvPOy96tUKkaPHo2Tk1MNVSSEuBFJuFtZQEAAPXr0qDC8jUajLMkIIaqdhHs1GD16dIVvqtapU4c2bdrUcEVCiBuNhHs1GDJkCM7Ol55lqlKpuO+++yr1hqsQQlSFhHs18PT0pH///pcEvNFovOKavBBCWIOEezW5++67MZvNpbcdHByIjY2VC5eEEDVCwr2a9O/fHzc3t9Lbzs7OjBkzxoYVCSFuJBLu1cTFxYVhw4ahVqsBMJlMDB8+3MZVCSFuFBLu1WjkyJEYDAYcHBxo37499erVs3VJQogbhIR7NerVqxe+vr4oisI999xj63KEEDeQGu8KmZqbxl8n/+JwyhFSclIpNulruoQaFdIqjJz1OWw17WDPJ/ttXU61cQD8tL7UD6hPi7rNaVm3Bc5O0nRUCFupkf99iqLwy4Ff+WL7Cvad+RsXtQtRgZGEeofi7qqtiRJspvVNrdFnFxEeGmrrUqpdli6bPbv38d66D/By9WRgiwGM7jSKYK8gW5cmxA2n2lv+Hkg6yOs/zeZQ8mE6N+pEn7jetKjbHJWzqjqnvW4oisL2rdvp0LmDrUupMSk5qWw6sok1e38itzCXsV3v457Oo9GoNLYuTYgbhb7awt1sMfPm2rms2P4VsXVjmXjzBCID6lfHVOI6ZTKb+G7XSj7f+gXebr7MufMNmoY2sXVZQtwIqifc84vzeXbF8+xN/Jsn+j7OTU17WHsKUYuc053jrR/nciDpILOGTqdX05tsXZIQ9s764Z5dkM39S8aRV5zPtGFTaRAUZc3hRS1ltphZsO4j1uz5kRf6P8ed7e6wdUlC2DO9Vd9QNZgMPPHF0xQZi3j3nvn4uftZc3hRizk5OvHILRPxc/fj9Z9mE+IVTLforrYuSwi7ZdXz3Kd+P50T6SeZfsc0CXZRrhEd76R37C288M2LHEs7butyhLBbVgv3Xw78ys/71zJ58IvU9atjrWGvyttvvk09v7oEa4MIcQ+meVQcc16bU6aBlz3o3aU3WzdvtXUZ1+yxPo8QFRTFS99OwWKx2LocIeyS09SpU6dWdRC9Uc/jXzxNl+hO3N52iBXKujYdOnegQFeAr58v6//aQNv2bZjy/BT8A/xp1ryZzeqyttH3j6ZOPdv8ALUGR0dHYsJj+OzP/+Hj5kNMmHTKFMLKzFY5cl+yZRl5xXnc2+1eawxnFWqNmvadO9D/tv5s3rDZ1uVcF4wGI2tWrbF1GQCE+YRyW+tBvL/+A/KK8mxdjhB2p8rhrjfq+XL7Coa1G4qP1tsaNVmVwWBEpVbz7KPPEKwN4pNFn9C5RSf27NzDvDfm0ax+LNFh0cyfPR+A5x57ljDPUAb2GkA9v7rc2qMfJ4+fBCh3jCUfLqZNk9ZEBUUyfMAdJCYkls795Wdf0KFZe+r4hBMX2YzDBw8DlDtvZkYmA3sNoK5vHeIim5GYkFjutsULFhHuFcaqr1cB8OLTLxKsDWLqpFdoVj+WuMhm7Nq+q7SG+bPnExsRQx2fcGIjYq6rT4G6u/MIDGYj3+/9wdalCGF3qhzuG49uIr9Yx63N+1mjHqsx6A1s2biFn3/4iVv63syb776Fk5MTrdq24o23Z7N7x25Wfb2S37etY/OezSz9aAmn408zffYMzGYzH3/6MQcTDtEwuhEvP/cywCVj/L1nH7NnzGbZik/Ye3wfwaEhTHpqEgAH9h9g0lOTePvDtzmZGs+sua9hNpvZs3NPufOuWbmayAZRnEg5yadff4bWXVvutrEPPUDXHv+dZTJrziycnJx48oWn2HNsL117dGXNqtUAnDp5infeepvV69ZwOPEITeNiSE5KrvlvRgXc1G70iunJKgl3IayuyqdCbjq2hdjwmOvqqH3tmrXU86tLYFAgTzz/BP0HDyi9r25EXby8vDh66AhHDx+leVRc6X0njh0nJDQEgICgQJydnbnvwfu4c2DZPuznxzh84DCdunYiNi4WgAceGssd/UvO3/5ryzY6d+tC+3/bDgz4t4bFCxaVO2+bDm157dXXARg5ZgS+fr7lbrsclUpF45jGJJ9NKb0NJWvcUNIKwdnZqdKvY03o3Kgzq/f8SEpuKiFewbYuRwi7UeUj9/1J+4mtE2ONWqym74C+pOhS+fvkfh5+8pFylyIURaH3rb1JLUgr/bq57y2XPM5gMODoVLmXSVEU+Hcui0XB0YU7KygAACAASURBVLHy88bGxbJt/zZatGrO+HvGs+rrVeVuuxrhdcMZfveddG/bjbjIZnh7e3HnqLuuaozqFhsWg6OjIweSDti6FCHsSpXC3WKxkHguiXp+te9DKFq0bsmWjVvYtnkrRoORrMysMqdMGvQGdDodixYsonO3zuWO0aFze/7ctJUD+w+Ql5fH4g+X0Klrx9L7Nm3YxLpffqeosAidTkdeXl6F8+7bvQ+DwcDosWMYNuIO9u/bX+62q5Gfn8/Rw0c5fOYI8emnWLbiE9y0bld+Yg1Sq9SEeAVzOjPB1qUIYVeqFO46vQ6LxYKHm6e16qmSTxZ9wqIFC/nt59/o07UPBr2h9L5nH30Gs9nMrd1vJS8vjzbt2zDxiYeZcO8EosMb8eqkqWXOuW7RoDnN6seSm53D9NnTyx2jWYs4nnvpWcbcMZpWDVuSkZbOzLdmARDXsjnT3pjO5Gcm0yisIUP7DSXlbEqF8x4/dpzubbpTPyCCzX9sZvT9o8vd9vJzL7FpwyYmPfUCWzdvZfIzkzGbzTw4ahwH/znIe3PeY8XyL9m7ay8Wi4WMtAzqB0QQrA2irm8dxo68H5PJVLPfmCvwcvMiV86YEcKqqtRbJkt3jptm38JbI98grm7clZ9QC+iL9dTzq0tyfkrpWnVtlZqSyvvz3mP67BlAyZF8ny69+XDZh8S1bG7j6v7zzOfPERPSlBf6P2frUoSwF9btLWNPLBZLrQ/39b+uJysjC51Oh5OjE1s3bSUvN4+6EbVvGU0IcXVqd3pVg0fGPQLATe17llnWqY36DexHTnYOzaPiiA5vxPzZ8/jo04/x9rl+zmwSQlQPOXK/yMLPFsJnC21dhlX4+Prw+aovbF2GEMIG5MhdCCHskIS7EELYoVof7inJKcx7Y16Zdr/bLmiH+/D9EwnzDKVT847k5ubWaG2Tn5lMmGcoa1auLt1m7Xa9tb39rxCietTqNfe01DSeeeQZFi1fhKubK/l5+axZtZoXn36R37etw8nJifeXfIBer2fR/xbXeH0z35pJ/L9Nx877dcuvVRpz8jOTmfnWTKuNJ4SwT7X6yP3ZR59h5D0jcXVzLd32xtuzOZNwhk8WLrNdYdXEYrHwy49rbV2GEKIWqLXhnp6WzobfN9Crd68y2+vWq8urr0/jjemzOZd1rtznVtSm9+KWvr063ESwNojWjVtRxyec+gER9GjbnZh6TanjHc7IISNLr2rt3/NW6niHEx0WzeIFi8qd9+J2vUs+XEywNqj0q55f3dLHljfe/SPuI+lMEsHaINasXH3JeJfbtyu1BhZC2JdaG+67tu8iNCwUF1eXS+4bdd8o2rRvw6xXZl5y3/69f1fYpvfilr6z33kTtUbN5yu/ID7tFAOHDCI2Lpa/Dmznr3+2s3nDJlKTUwH4ccNPJOYk8e7Cd1m+dHm5NV/crlfj4sL++H9Iyj1Lp66deGnay6X3lTfe+XpSC9IYMGTgJeNdbt8u1xpYCGF/au2ae1ZmFu7u7hXeP/eDudzUvidjxo4ps3371h0Vtuk973xL3/MCAgNQqUva6Z44ehwPDw88PDzw9vFGr9eTlZnFo+MeZee2HRQWFhIRWb9S+3D3vXcDMG3yNAKCAhj38LjSfbuW8Sqzb3Bpa2AhhP2ptUfuAI5OFfcmDwoOYtac15j01CQu1z7nwja91+qLTz9HsVjYcWgnP2746aqe+9MPP7Hul9+Z+/48q4x3IWvsmxCidqq14e4f4I8uP/+yj7lt2G3UqVeHjes2lm67XJvea6XXG9C4aFCr1cSfjK/08+JPxDP56RdZ/Pli3LRuHD18lJVfraxwPAcHB0xGE6kpqeiL9ZeMVx37JoSonWrtskzrdq1JSU7BoDeg1qh5d847LPzgY75d8S2ffvUJzVqUdKl8fd4b9NjSvfR5F7bpzcvJo22Htsx5fy5QtqXvz5t+ZsZL0zHoDQztdztvvD2b+a/PQ2/Q06FLRzat20hGegaPj3+MeQvm8b9ly2nTpDX9b+tP/ImTvD/vPVJTUtm0YRN/7/0bX38/fl79E5s2bGLfnn0EBgfyxSefk5KcQpeWXUrr+3zl5wwedlu540147CFimzejU/OOTJn5CiePnygzXqeunSrctwtbA0+Z9QrvzXkPo8nI8JHD8fH1oW+3Pnz82UK69exWg99FIUR1qdUtf8fcMZoxY8eU+wlKovIMegP3j7yfMWPH0PvW3jU+v7T8FcLq9LV2WQZKzh5ZvGAxhQWFti6lVlv80WKaxjblln7yQ1IIe1Frl2UAgkOCmfP+XD6Y/z7PTH7W1uXUWg899pCtSxBCWFmtPnIHCA0PlWAXQoiL1PpwF0IIcakaDfdRQ0cRrA0iMrA+C95ZULr9syWf0SAoiqZ1m3D44GGrzVdeV8YLrf9tPb279CbCvx4NgqK4uWOvch9X1XnKc76LZZhnKE9MeKKknl/X0Tg8mmBtED3adr/CCJWz+rsfaBAUxVMTn6ywVmt0lvzx+x/ZtGFTlcYQQlhPja65L/92OWNH3o+Hp2eZdd7R94/m0IFDPPrUo4SGh1ptvvK6Mp5n0Bt4cNQ4lq5YRvuO7cnNzWXK8y+X+9iqzFORx599nPy8fE4cO878D+cDcFPvXry78D0ee/BR/ti58QojVM7A2weRmJjEiaPHK6zVGp0l+9/Wn+kvTUeXr+PWQbdWeTwhRNVU6cj9v4sfK38V5AMPPcCalaspKiwq3WbQGzAZjVYN9isxGo0UFhYSFByEWqMmIDCABUs/rLH5a5KjQ/X8gmY0GFmzak3p7cefe5wXn5pEbk7OVY1jUSxyJa0QVlal//XumpLeLkWGois88j8du3YiIjKCn1b/d1n9rz/9wrC7hgEVdzWcOWUmwdog2sW0JTUllZaNWtKyUcvSKzXnvTGPZvVjiQ6LZv7s+VesQ+uu5cnnn2Rgr4HMeHkGJy86mv3ysy/o0Kw9dXzCiYtsVrpcVJnuj9dSz+WUN+eVujwufH8hbZu2oY5POHNfm1Ph2Bd3lrzSuPNnzyc2IoY6PuHERsTgcEEoe3p60qxFM75b8d1V7V+RvggPTcV9goQQV69K4a52VuPl6klqbupVPW/sQ2P5+n9fld4+dOAQ7Tt3uGxXw8nTJvPYM48TGxeLm9aNO0bcweY9m9G4aNizcw+rvl7J79vWsXnPZpZ+tITT8aevWMezLz3H6nWrMZtM9OnSm5eefQmAA/sPMOmpSbz94ducTI1n1tzXMJvNQOW6P15NPWvXrC3T9nf0sFGXPKa8OS/X5XHvrr3MmjqTD5YsID79FA89MbHC1+DizpKXG/fUyVO889bbrF63hsOJR2gaF0NyUnKZ8Ro1juavrX9VOF950vMzCPAIuKrnCCEur8q/rzcMbsjx1BNX9Zzbhw/l4D8HSU1JJSszi/oNIoGyXQ09PT154KGx7Ny2o/R5k6ZOQuOiYfAtt/HYs4+VdoXcu2sPRw8fpXlUHHGRzUhLTePEseOVqqVR40a88tpUftnyK198+jnb//yLv7Zso3O3LrTv3AG1Rs2AwQOIjYslKzOLkUNG0jC4AffddS8Gg7HcMa+mnr4D+pJakFb69dk3ZX9gVGbO810e9XoDAH9u2kKPXj1o26EtKpUKjYumUq/FlcZVqVQAODqW/LNRFAVn57LN29w93MlMz6z0HMnZKeQX5dMouOE11SiEKF+Vw71jVAd2xe8qWTetJI2LhpH3jOTbL7/hj3V/MHDwwHIfd3FXQ5PRRFh4OGqNusyv/oqi0PvW3mVC8mpbEkQ1jKJdh3YknE7AYlFwdLx0Dbiy3RqtUc/Vznkhs9mCWqO+pvkuJ7xuOMPvvpPubbsRF9kMb28v7hx11yWPc7iK9fOdJ3eg1WiJDYuxZqlC3PCqHO69mt5EdmEOu0/tvqrn3fvgfaz8aiUatbr0Azcu19XQZDIx7425PPT4Qyz/9n98+M4CNv+xGYAWrVuyZeMWtm3eitFgJCszq3QZpSKJCYlMemoSGekZGI1G9u7ay8F/DtKyTSs6dG7Ppg2bWPfL7xQVFqHT6cjLy6t098drqaci19JxMq5lHH/8vpGD/xwkNzeX/Xv/vqa5L5afn8/Rw0c5fOYI8emnWLbiE9y0bmUfk5ePX4Bfpcf87cA6ejbugbNTrb5YWojrj2IFDywdr4xeeK+SWpB2VV/D7hqm7D6yp8y2mW/NVELDQxV3d3el5809lT1H9yqpBWlKXMvmitZdq/y65Vflyx9WKCq1SlGpVMpXa75WUgvSlGcmP6sEBQcpblo3ZfjI4UpiTpIy7uFxipOTk+Lr56t8t3ZlmXkOnTmstGzTUvHw8FBUKpXSoFFD5f0lH5TeP/udN5WIyAhFpVYpzVu1UDbu2qT8ue9PJTQ8VPHx9VFG3TdKcXBwUF6e8XK585RXz4XzT542WdG4aBRnZ2fl7nvvVlIL0pQvvv9S8fH1UQAlplmMklqQVuGcYx96QAGU7jd1V9b9tV7x8vJS3LRuys8b1yqpBWnK+EfHK94+3kpwSLDSuVtnxcXVRVm5duUltZ6/7ePro3y3duVlxz2afExp0KihAiiAotaolf639VeScs+W7lf/2/orr819rVLf/58OrlXiXm6l7E3YZ41/hkKI/xRXqSvkeYdTjjDyw9G8OOh5ujWRlrH2KjUllffnvcf02TOAkiP5Pl168+GyD4lr2ZziomI6Nu/IHzs24OXtfdmxzBYzE5c+Qn3/COaNqPhsHiHENbFOV8gmIY0Z1HIgCzcsvqrTIkXtsv7X9WRlZKHT6SgqLGLrpq3k5eZRN6IeAG/OfJPps6dfMdgBvt+9muTsZJ7q82R1ly3EDclqV7c8dvMjGM0m3lj95lW9uSpqj34D+5GTnUPzqDiiwxsxf/Y8Pvr0Y7x9vPnh2+/p0qMLAwYPuOI4BxIPsmTjUsZ2u586vuE1ULkQNx6rLMuct+/M3zy4bAKDWg9iXM+x1hpW2JHUnFQe+/RJWke04q0736i2q2eFuMFZ98M6WtRtziuDp/DNjm9ZunHZZT+YWtx4EjITeP7LFwn1DmHW0OkS7EJUI6uff9Y/rh8ms4npP8zkbHYyz/Z/Go3q2i6iEfZj16ndzPz+NRoFNWT+iDm4qFxsXZIQds2qyzIX2n16D099+Qyerp48dPMEWtdvVR3TiOucrjifTzYvZ83eH7k1rh9TBk1G7Wz9C6yEEGXoqy3cAVJyUnhz7VzWHVpPx4YdGdV5BA3lMvMbQqGhiN/2/8ryPz9H5aTisVse5baW5V+JLISwuuoN9/O2x+/grbXzOJZ6jKjASDo0aE90aDShPiFoNVo0ciRXqyk4oCvWcU53jtOZCexL2MfO+J2YLRbuajec8T3GodVobV2mEDeSmgn38/Yk7GXtP7+w9cQ2krLPyhuudshN7UbzunH0iO7OrXF98XT1tHVJQtyIajbcL1SgLyA1N5W8onz0Jr0tSqgR36/4ns8X/Y8Vv3115QfXYp6unvhofQj2DLqqxmFCiGqht1m3Jq1GS1RglK2mrzE7PXagL9TTIaq9rUsRQtxA5ERjIYSwQxLuQghhhyTchRDCDkm4CyGEHZJwF0IIOyThLoQQdkjCXQgh7JCEuxBC2CEJdyGEsEMS7kIIYYck3IUQwg5JuAshhB2ScBdCCDsk4S6EEHZIwl0IIeyQhLsQQtghCXchhLBDEu5CCGGHJNyFEMIOSbgLIYQdknAXQgg7JOEuhBB2SMJdCCHskIS7EELYIQl3IYSwQxLuQghhhyTchRDCDkm4CyGEHZJwF0IIOyThLoQQdkjCXQgh7JCEuxBC2CEHRVEUWxdhLw4ePMioUaMwmUyl2woKCsjPzyc4OLh0m4ODA7169WLevHm2KFMIYf/0zrauwJ40adKElJQU0tLSLrkvMzOzzO0nnniipsoSQtyAZFnGihwdHRk9ejRqtfqyj1OpVNx+++01VJUQ4kYk4W5lI0aMwGAwVHi/s7Mzt956K97e3jVYlRDiRiPhbmWtWrWiQYMGFd5vsVgYNWpUDVYkhLgRSbhXg1GjRqFSqcq9T6PR0L9//xquSAhxo5FwrwajRo3CaDResl2lUnHHHXfg6upqg6qEEDcSCfdqEBUVRfPmzXFwcCiz3Wg0MnLkSBtVJYS4kUi4V5MxY8bg5ORUZpu3tze9evWyUUVCiBuJhHs1ueuuu7BYLKW3VSoVo0aNwtlZLi0QQlQ/CfdqEhoaSufOnXF0LHmJjUYjI0aMsHFVQogbhYR7NRo9enTp30NCQujYsaMNqxFC3EhkjaAaDR06lIkTJ2KxWBgzZswlb7AKcT0rNJopNFjI05vI15spMJgpMppL79ebFAovuK0okFNc0lfJxdkRV9V/x46ODg54uTiVue3p4oyHxgk3lRNatRPeLs7IfxHrsWm4G0wGcoty0ZsqvqKzVnOAbj27sf639dzUvxdJ2WdtXVG18XL1xMPFw9ZliHJkFRpJ0xnIKjCSVWgko8BIhs5AZmHJ7cx/t+cUmSg0loR4TpHpygOXw/PfgC40WDCaLVd+wkVcVY64qZ3w1JQEv5eLM/5aFYFaNf5aFf5aFX5uqn//riZAqyLYQ43aSRYhLlajXSEtioVtJ/5iw5GN7Dy1kzPnEsu86WiPcg5kk74lhUYTmtq6lGrn5epJ07CmdGnYmb6xvfH38Ld1SXZPb7IQf66IpFw9iTnFJObqOfPvn0k5xSTm6MscXUNJAPtpVfi6qvDWOuPtqsLXTYWnixOuaidcVU54ujjj6uyAq9oJdxdntConXNUlwXues4MDWo3TxSWVy2RWKLigDrNFQac3o9OX/DZQbDSTW2ym2GCmyGgh32CiUG8ht9jEuQIj5wqNZBcayS4wkl1kwnDBDw5HBweCPNTU8dJQx9uFcC8N9f79M9zbhfo+LgS6X77fkx3S10i4K4rCmr9/5IMNH5OSk0yj4Ia0imhJg6AofN39UDuXfzWnPSguKmbNV6sZds8dti6lWuUV5ZN0LomDZw+x+9QeigxF9IntzeO3PEKQZ5Cty6vVLIrCmRw9xzMLOZ5ZyNGMQo5mFnI8s4jEnGLMlpL/wm5qJ8K9NAR7aQj21BDiqSbMy4VgTzUBHhp83JzxdVXh7FT71z50ehOZBSbOFRpIyzOQmqcnKUdPap6etDw9ybkG0nUGLP/Gm5eLMw393WgU4Ea0vxsN/V1Lb7urK/cDqpap/nA/ePYQr/80mwNnD9KveV+Gth1CuG94dU553TGbzZec827PjCYjG49u4n9bPudcQTZju97HmM6j0TjfcEdPVy1fb+bvlHz+TtaxL0XHvuR8DqUVUGwqOVL11aqo7+NKhL8rkX6uRPi5EuHrSqi3Bi8XeQvtQiazQmq+gcTsIk5nFRGfVUx8ViGns4pIyinGaC6JvnAvF5qHutMixJ0WoR60CHWnvo9rbV//r95w/3b3SmateZ2YsKZMuHk8UYGR1TWVuA6ZzCZW7/mRT7Z8Sh2fOrw7ap4cxV+gyGhhR2IeWxNy2JusY29yPqfOFaEo4O3qTNNgd5oEu9MkyI36/m7U93PB29V+f8utSSazQmJOMacyCzmWWcihlAKOpOo4da7kNyFPjTNx/wZ++zqedI7wpp6Pi63LvhrVE+4Wi4V3173P0i2fMKrzSEZ1vlvOFLmBJWenMOWbVyg26nnn7nk0CWls65JsIl1nYGtCLltO57I1IYc9Z/MxmhVCPDU0C3WnSbCWmGAPmgRrCfPW2LrcG1KR0cyRtEKOpOo4kFrA4VQdh1IKMJgthHpq6BLhTecILzrV86J5iDtOjtdtrlVPuE9dNZ0f//mJ5/o/Q7fGXa09vKiF8ot1TFs5g/i0eD4dt5TIgPq2LqnaFRrNbIzPYe3RLH49fo5jGYU4OTrQKNCNNnW9aF3HkzZ1PQn1kiC/nhUbLexPzmf3mTx2JeaxJzGP3CITHhonukR40y/ajz7RfjTwu64aAlo/3Jdt+ZS3f3uXV25/mY4NO1hzaFHLmcwmJq2YTGZ+FssfXIav1tfWJVnd4fQC1h7N4pdj59h8Kge92UJMsDtdG/jQvp4nrep44q6RtfHazKIonMgoYveZXDafzGbrqVzyik1E+rnSt5Ef/aL96B7pjda2b9RaN9y3HP+TR5c/wYM3jeP2toOtNaywI7mFuTz26ZOEeYey8L4PcXSo/ecnH0wr4Jt/0vny7zSOZRTi7aaiU4QXnaN86NHQlxBPeSPZnpktCofSCvgzPpsNR86xOykftZMDvRr6ckezQAbHBOBRyVNGrch64a43Gbj93WE0DGnEpEHPXdMY639bz+uvvs6xI0dxdnImIjKC37ets0Z5ANw16E7+WPcHR5OP4eXldc3j9O7Sm6mvTaVT106Vevzbb77N3NfnoC/WA+Di6kJYeDit27Xm2cnPUqdenWuu5XLMZjMfvfcRXy1fwan4UwD4+vrSqm0rFn++pFrmrIyT6fE8suwxpgyazOBWt9msjqo4klHIV3+n8dX+dA6nFxDq6UK/GH/6NvWjRZjH9bwWK6pZZoGB9UfPseZgJttO5eDi7Ej/xv7c2TyQvtF+uDjXyAGN9cL94z8WsWTLMpY8uBA/d7+rfr5Bb6Bp3SYsXbGM9h3bk5uby5TnX2bB0g+rVNfkZyYz862ZpbfDPEM5lHj4qsL94jGuxYyXZ3Di2HGWrfiEjPQM9uzcw+uvvkZGega//fkbIWGhVq/hiQlPsGnDRma+NYtOXTuiUqk5k3CGt9+cX+XXtao++P1DNh3ezA+Pf1drrmwtNln4en86H2xLYkdiHkHuavrG+NM/NoDW4Z61/dQ5UQ3OFRr5+WAmPx7MYEdCHh4uTtzTKoQJHcKIDnCrzqmtE+45hbn0ndufkZ3u4s4Ow69pjAJdAQ1DGvDHzo00atyoqiUBJWfttItpy67Du0u3XW24lzfGtbgw3M/LzMike5tuDL1rKNPemG7VGuJPxNOpeUdW/bKKDl2uv4ZluuJ87vtoHMPbDeORXhNtXc5lxZ8r4uPtySzdlUxusYk+jf0Z0SaY9hFeOEqii0pKyzewan8aX+xKJTGnmJ5RvjzcMYwBTfxxtv5venqr/H7ww97VODo6clurQdc8htZdy5PPP8nAXgOZ8fIMTh4/WXrf8AF3EKwN4va+QwB4+uGnCPcKY+VXK3nx6RcJ1gYxddIrNKsfS1xkM3Zt3wXA/SPuI+lMEsHaINasXF063hvT3qBZ/Via1Y9l+59/lW6f98Y8mtWPJTosmvmz55c7xuIFiwj3CmPV16tKn/flZ1/QoVl76viEExfZjMMHD1dqn/0D/Bky/Ha2b91Ruq1/z1up4x1OdFg0ixcsqnA/ynvchXZs246HhwftO1/5Te3y9vtyr6s1uLt4MKj1AL7bvRKj+dKPJLwe7Dmbz5BP9xP95l8s35vK6HahbHmyHe/c0ZiO9b0l2MVVCfJQM75zHdY/1oZFI2KwOMAdyw8Q+cZW3v0zqfRCNWuxSrj/cvBXukd3xUVdtZP8n33pOVavW43ZZKJPl9689OxLACz83yK07lpm/LssMWXmFO598D6GDB/CrDmzcHJy4skXnmLPsb107dGVNatKAnD2O2+i1qhJLUhjwJCBpfM8P+V59h7fR68+N7Pym5KQ3rNzD6u+Xsnv29axec9mln60hNPxpy8ZY+xDD9C1x3+ndx7Yf4BJT03i7Q/f5mRqPLPmvobZXLaXx+UEBAaQl5tbevvHDT+RmJPEuwvfZfnS5RXuR3mPu1B2dg7evt5XvL6gov2+3OtqLb2b3UKW7hy7Tu+x6rhV9U+qjqGf/UO793aSkKvn/eFN2PhEWx7tXpeAG69HibAyRwcHejbyZcndMax/rA19mvjzwtoTNHpzGx/+dbZM35wqzVPVAfKK8jh09jDtGrSzRj00atyIV16byi9bfuWLTz9n+59/4eXlxfC77+TTxZ8C8O2X3zL6/tGXPFelUtE4pjF6/ZW7TDo7O9OoSSMM+pI3Offu2sPRw0dpHhVHXGQz0lLTOHHs+BXH+WvLNjp360L7zh1Qa9QMGDyA2LjYSu9velo6Pr4+AGRlZjFyyEgaBjfgvrvuxWAo/4i2Mo/z8vIi51wOF666pSSn0C6mLcHaIDq36FTp/b6a1/VqBHkFUd8/gm0ntll13Gt1MquIuz4/QKu3d3LiXBEf3xXDynEt6NPErzp+bRaCuj4uvNQ3kj8eb8vNjf14cs1xot/6i2W7UqjqgnmVw/1Y6nEsioXoEOusk58X1TCKdh3akXA6AYBxE8ex8quVFBUWkZiQSHSTaKvOpygKvW/tTWpBWunXzX1vueLzLBYFx2v8j282m1n3y+906FSydPLFp5+jWCzsOLSTHzf8VOHzKvO4jl06UlRUxLpffi/dFhIawm9bS25/8lXJ2v+17re1NAxpxLHUYzU2X3nMFoW5m8/QYv4O/k7R8f7wJnz/YEt6Rdvfefji+hToruaVflFseKwtXaJ8GP/dEXot3MOxzMJrHrPK4Z6al4raWX1NZ8hcKDEhkUlPTSIjPQOj0cjeXXs5+M9BWrZpBUBkg0jadmjLtJemVfoNQgcHB0xGE6kpqaWnIVakReuWbNm4hW2bt2I0GMnKzMJsNl9xjA6d27NpwybW/fI7RYVF6HQ68vLyyp3DbDZjMpkwGo0cP3qch+57CF2+jgcfHQ+AXm9A46JBrVYTfzK+wv2o6HEXqh9VnwmPPcTTDz/Nz6t/Jj8/H32xnhNHT1Rqv2tKiHcwKbmpNTbfxf5J1dF5wW5eXHuSMe1CWT2hJX2a+NXomS/vz36daB9PIlzVRLiqaejlzoCO7dn46y/XPObUp58kyt2Vn1Z+V+79ZrOZj+fPpU+blkT7eBLt40mHqAgm3HVtJ0RYw4/ffUtMoB/PPzT+kvuG3dSj9PW5+GvMoAFVmnf0wP5Ee4vTGQAAIABJREFUuKrJy82p0jjWEOKpZsaABvzwYEuy9SZazt/Bq7+fuqalmiqHu664ADd11U/p0bpr2bd7L53iOhIZUJ9Hxz3KK69NpWF0w9LHjH90POt/Xcct/f47spz8zGTMZjMPjhrHwX8O8t6c91ix/Ev27tqLr58vsc2b0al5R7747AueffSZ0sceP3qct2e/zcqvV7J963batG/DxCceZsK9E4gOb8Srk6ZisVguGePl515i04ZNTHrqBbZu3kpcy+ZMe2M6k5+ZTKOwhgztN5SUsyll9u3Ddz7kf8uW88fvf1DHO5x6vnUZ0mcwzk5O/LjhJ4JDggEYPOw29u/bT5smrdm66U/iT5zk/XnvXVJDRY+72ORpk3n82cd5c8ZsYuo1pUndxjw8diK3D78dX7+SH8YV7fflXtcCXQEtGjRnx7Ydl8x5tdzUbuj0BVUe52opCszZdIa27+5EAX6c0IrnbolAZYMPfXj4uRe4/+FHuWXgQE4XGdiVkEiPPn2ZePcIiouKrmnMqXPm0fmmXhXe/8LECSx9/z2efuVVdpxKYG9SCp/88CNqje1aIfS/fSiPvzi53Pvadu7C4awcTuqKGHzXCEaPn8CxnHwOpGUSE9f8quea+vSTpX//bPX/2bvvqKbu/4/jTwiEEUjYS6aC4sSBW1Rs66jbqq1W/Tlq3at2qrVqq9VWbZ211rrafltn69a6qqjFrbgVBVRA9g6QkNzfH1Rc7BXGfZzDoc29ufedCO9c7v3c12dfhUtt9XaQsX1UYyZ3dGXRP2H4/XCJh4kZRdpGiYdC/h74Bz+e+Iktk34vyWYKJeJxBLt37mbs5LFlvi9R+dh1YRe/B27l+MeHy22f6Wotw7fe5K8bMUx/zY3RbZx1PvJl0ayZBN+9zU9bdwAQ9uABHep7E3DrLi7u7sXa5rBePXhnxEje7NvvhcdDgoPxb1iPrYeP0qJdxcp+Wrf8e+7dusWiH37Mc52pI/4PuYUF875bVqx9aLVa/OrW5vRzf8XWMjPhcngkcoVFsbZZlh7EpjNh601i09RsH9KQ9h6FqrF0hkKWtRvXbpCSksLXcxbwztB3dF2OqBJLysjizfVXOBwcz+ahDRjT1kXnjf1lKUlJ/LFhPY7Ozjg6P5v7YMXCBfi6ueDjaM/KRV/nPN63gx+echk+jvZsXL2qwO1fOHMaM7mc5m3b5bvejInjcTeR8ttPa/FvVJ8r58+x6YfVtK3jSX1bK4Z078bjsP+uiQ18i1pm2cFZh/fupZ6NJYvnfAHAFx9Mxd1EyleffIyvmwvN3V25dPbZEOT1K1fQztsLL4UZyxYU72bBl2tt7u6aZz1j3hlA+MOHuJtIXzhttWTuHHzdXPB1c+Hc6VPFqqMs1LQxYcd7jWnhpqDbz1fYfTO2UM+rFM198fxv8fX25bUur2NhWfE+WUWVQ7paS+9NQdyJUfLHCB9aFe4IqNwc3rMHdxMpDR1sObJvDz/v+BMDg+yQsSvnz7Fn21b2nz3HkStX2bxmDWEPsq+3/HkigODkNJasW88fG34ucD+JCfFYWFoWOEx2wcrVSCQSGrdowfzlKwm6eJHvvpzHT9t2EBgcgr2TE7OnTQFgyU/P9vtGjx7839hnN6bNXfo9EomEyTNmEBj8gLb+/uzfmd1Ur144z7dffM6yjZu5FZvA+1OnURwv17p47U951rNgxSqkRkaEpqte+Ktm+hdzCLwfgn/XruzZtrVYdZQVU6mEFQO86dfYnoG/XePQ3bgCn1MpmvuGPzZyJ/wOfQaIYWSi4hux7SbXotLYNKwhdezK9NbvYnl6zn36F3NQq1S4eTyb3ObK+fPcvXmTFh5uNHd3JfpJJPfv3CY+NobhfXrRwN6GMW/3R6UqeLiqXGFBYkLCC8Nkn0RE4Fe3Nu4mUvwb1X9hfRd3d9p09CcrK4uWfn7Ua+SDuULB8PETuHDmTJFeo4GhIXXq10elyh6ccObEP/i99jrNWrXGwNAQI+OS3SvztNYmLVsW6/kGBgZ41a2bM0S6ItHX0+PL7p70bmjHgF+vc+1Jav7rl1NdIpFOrT0bzs7rMawa4E3tCtjYnzdm2nQAZk2ZlPOYIAi83r07oemqnK9O3d5ky6aNaLVaAm7dYeeJgEJtv6VfezKUSo4fPJDzmIOTE/sCsy+Qr9uW+wiblwmCUOJJeLQajU4v4lY2enqwoJcX9R3NePu3669Mfv48nTX3yIhIvlv0Hcu+XYabtSsOMvtcbxpaunApDjJ7fOs2I/xROJCdyngmoGhHDMV53vO1OZo54FOrEUu+XlLioYKFqWPmhzOpIXd6ITahIL1e74mDzD7Xr0G9q++1iuhUFZ8euM/o1s60rmCnYnIjNTLii8VL+fP3/7Hjt+y7j318fTnzzz+cDTiJWqUiPjYGjUaDKjPzv2GxRoQGBxew5WzutWoxeso0Ph0/jr/37CY1OZnMjAzu37mT7/NatGtH4MmT3Ay6SkpSEpt+WE1Lv+wLsoaGUjQaDdcuXyIjPZ3EhPhC1dKwSVMCjhzhVlAQyUmJXLtUOncr51dP9tBiNVGRkWRmFG0ESkVgoK/Hd295E5GsYvGJh3mvV4415Yh6EsWHEz9k3a/rMDE1ISU5hTXLf+CX9b8wd+G8nPXUKjW/bcz+4d7/zwHs7O0A+PvU38Xab1GfN+WjKaQkpxB89x5rN//E5QuXGP7OcJxqODJo2OBCb+flRMfC1DF/8XwePJevUxgt27Riy+6tSI2kTB49CXOFnHkL55GpymTZN8UbWVAVLD75EGNDCRM7lE20ckn99tNaNqxeiVql4i3/Duw4fgL/rt14o0cPPh4zmrD79/lg9he8P+0DJg0bSmpKMt369GXRDz/Ss/9A/tiwnnZ1vOjapw8h9+6xZulioiMjOX3sKNcvXcLK2ppW7Tu8sM+Pv/wKhxo1WPrlXCYOfRcDAwNs7e3p/fY7WNpkD5OdMXE8Go2GPu3bsevkaRo0bsK0z2cz6q2+JCcl0axVaxatzk4XNTE1peeAgfTr2J56DRthambGnu3b6NqnD9t/2YxGo2HCu4OZsWAhPyxeTFaWmrfeHUL7NzrTf+gwBnXtjJGxETVr1+HyubP0G/wuLf3av/Je9WnfjuuXL4GeHg9DQtj41+5cazVXKPKsp27DRtT3aYx/w3rMWLCQm0FXc+r7YvFSVi1ahEqVSf+hw2jepm0Z/+sXj6Ncyrj2ziw+8ZDJbV2wMHm1letkKOSwAUN5e8g7dO/dHchOTHwY9pCTx05wNTgII+PsP9O2/m8rp/45xdbfthD04FpOcy9PL6c5fjhxOso0Jas3/FCo55ckVXJQ73d4d/i7L+TiFNaEkeORWyj4eunXBa+sQ2U9FFKl0VJj/mlGtHJiQnvXMtmHSKQLqZlZtFl6jgVdajGhjfPLi8t/KGR0VDTHjxzntc4v3mAxfPRwUlNS2f3n7pzHfl3/C++NG/XCei+nMn406UMcZPY0826Ki6UzHrbudGzegfpu9XCxcGZw38FotdpSS3NUqdQYSrPDo3JLZnxaz6Z1m2jbuA2NPX1KLVUyt/TGwsovWfPjyR9RQ+5Ez9d64Gbtypsdu72QypnbfmNjYun5Wg9crVxoVLMhj8IeFame8nLuUTLxSjU9G5b/gYFIVJbMjAzo4GnF/ju5j5wp9+Z+4ewFnGo4YWzy4lVxRydHuvbsxuZ12UfIT+/+tLR6Md/j5VTGb1csRmok5X9//s6DqBB69u1Fg0YNCLx+lsBrZwk4fpInEU9KnOaoylRx6sQpDuzezxtdXwdyT2b8dsViJBIJTZs3ZdGyb1i07JtSSZXMK72xsPJL1vzym6+yb0ffvJYbYTfxqlObzz/+PN/97v1zDzU9axEceZ/N235BZiYrdC3l6VJ4CrYyKa6WJRuFIRJVRM1c5FwMT8l1Wbmfc4+LjcPMzCzXZe+NHUWfLn24ffM269f8zJyv51LYs0a2drYYSrPTC4Pv3MPc3Bxzc3MsLC3IzGVY0/NpjgA9+uSdT3Fw70HcrF2xs7dj6idT6d6nB3GxcUwaPYnz/55DqVTiXtPjhee4uruiUCiIjorOt+7C1vF8euNTwXfv4V7TPd/tP/V8subC7xbmmqxpa2+HgYEBI94fwds9B+a7X99Wzfl67kIABg8bhJV1xQzZik5VY2tuqOsyRKIyYSeXEpemRqMVXpnaUSejZfTzyHFo1a419RrU48tZX2Iqk+Hs+sp5pFJTlDTHrj26Epn6hKv3g5gwbSJ6enqFTnAsrTpKI72xsMmaKpUK/f8yVvLab4NGDfg36F8aN/VhzP+NeeE0U0UileiRpSm1OeBFogpFlaXFQF8v17usy72529jakJqS+58RkH3a5djfRxk/tWynXitKmmNuCpPMCAUnUxa2jtJIbywoWVOVqSI1NZV1P6yjbfu2+e73ysUrqFQqho4aRv9BAwi6ElSkWsqLs8KIiORMsrRigxdVPY8SMnBSGOWaYlruzb1Zi2ZERkSi+m/ihxVLlvPT6rX069aPa1eCeOvttxgweCDe9by5diWI3p2zp+7r0ak74Y/CX0ll/HjyR6gyVbzVrR/n/j3H9wu/Y8eWHWz931YmjppATHQMU8ZMLlaa46Z1m1j3w08cPnCYLn5dcmqGvBMcnyZPvtnhTZKTk4udKvl0vY+nfMyZgDN5pjfm5s2O3di1Yxe/rv+FwX1fHLKZW7LmU409fWjo0YCkhES+/CZ7Tte89nvv7j06+HbAw9adgH8CGDpyKKEPQvF2rsPJ4yeL/wNSylq7KUjN1BAUkfcBhS5ptVp+XrGMrs2bUsdSjpfCjBYebnw0ZnSZ7TO3aN2ebVoRePJEme2zqJ5ERLBi4QIA/vz9fzSwt8HD1Ijp740E4MTfh+jZphXeVgrq21nzZsvmOc/NSE9n4cwZ+NWtjadcRmMnB8a+M5Dg27dz1nk+ZvlswLOf16kj/o9aZib4N6xHclIiB3f9xaljR8vpVRddYGgS7dxznw9aZ0Mhh40aVq6TQoiy5ZasmZmRiZu1KxEpkejrF//zXpWpYuTgkQwbNYzOb3Yu1HPKIxWy0XdnaehszoKeXgWvXM5mTp7IsQP7mbv0e1r6+WFoKOVRaCgbVq1g4X9jyMvC2u+Xcv/OnXzTF4tqzvRpzFnyXYm3E/0kkk/GjWX1b79jYpp9N/EfG9azfuVy/r54BVVmJk1cnFi7ZRvN27QlOSmReR99yPJNvwAwekA/7t+9y9J166nv05j4uDiWLfiKfdu3c/D8xZwwtkWzZrL/zx2YmJqyL/B8TuzvuEFv88PvW3LqWThzBk1atqRLr94lfm2lKTQ+g9dXXGDn0Ib0rGfz8mLdpEJ+s/xbfv7hZ5RpxZ9lRFQ0hUnWzOsvgcL6+cefqdegXq5/FejSpLYu7LwaTVh8xbob8WFICP9b9xPLNm6mc89eKCwsMZXJqFO/fpk2dqBEH+K50Wq1HN5bOnPszpg4nreHj8hp7C9Tq9Wkp6Vh5+CI1MgIGzv7nMZ+KyiIw3v38t3PG2jcvAWGUin2jo4sWLEKeydHNqx6cd6Dr5av5FFoKL+uzftDbsLHnzB76mSSEhNK5fWVluX/hOFuZcyb3rlPlKST5u7g6MCSVUtZ/X3B8aSi0pFfsubE0RMB6NTS/4VTT0U1bvI4ZsydUeK8kdI2wtcRT2sTPt8XjLakE1OWonOnApCZm9OigOjdvGJ281uWW1xvXtG6G1evwtPcNCcJsaCI3twihnOL0c0tojguJpq3/DtQ28Kc5u6uL7wWgJioJ5w4fJiOnbvk+X7IzMyY9OkM+nfqyKJZMwm59yy25MqF85jJ5fj4Nn/lee06vcb5M6dfeMzF3YNZi75l6by5xMflHqVrrlDQoElTdv3xR541lbfTDxLYdS2ab7p5vjJK5imdZcs4OTvx4cyPdLX7aie/ZM2ffvmJJ2lRnLwYgNRIqoPqypaBvh4bBtTjXGgSK0/mncVR3hLi45Arcj9f+tS1y5fyjNnNb9nLEbiXz53LM1p3+PgJtPHvlPP/+UX0Qu4Rwy/H6OYVUbx/5048vLy4HhXLuh07MX3p/ohLZ8/iWKMGxiYm+b4v0z6fzfZj/5CVlUWPtq2Y++EHAKQkJ+X5niosLXOdSm/QyFE0bdWKb2d/nuf+vLzrVpiM98jkTD7YcZeBjezp28A2z/XEVEhRteDrbM73vbxY9s9Dtl7S3Zytz5MrLIiJisr3dNj506fzjNnNb9lTTyNwMzLSixWt+3JEb2EjhvOKKG7WujWH9+xhxqQJZGZkYGX94rniuJgYZObmharNq25dZi5cxN7TgWzdtJFzp0+hsLAkKTH3uVAT4+OxsMz9foxFP6zh0O7dXLuce3CZzNyMuJiYQtVVlhLS1Qz/5Tr25lJ+7Oed77picxdVG2Na1mBmJ3dm7Anm13ORBT+hjLVo50eWWs2xAwcKXvk/+cXs5restKJ1CxsxnFdEcb1GPhy/foNGTZsxaei7uU6KIdHP/T4YE5Pcz8F7eHnRrHUbHoWE0KxVa9JSUrh87uwr6wUcPZJnEJidgyPzvvue2VOn5HnjpK5PN0Ymqxi0IQi1RuDASB/MjfKf91Unzf35KN1/n4u+nTByPDXkTrTxaU1SUlKB2ylu9O/LtFotP674Ef8WHXGzdsXF0hmfWo2YOnYqAO/0ehsHmX2haqoIivO+FPe93LdrX4Ua+liQuW/UZF5nD744EMzXf4fodPy7h6cn/zduPJ9NGMfBXX+RnJRIVlYWj0JDmTZyOJB/zG5+y15WWtG6eUUMvxyjm1dE8dWLF1Cr1Ax+bzT9Bg/h+uXLL2zfxs6O1JRn93nM/fAD0lJTuXPjOg2bNQPgcVgYs6dNITY6iiy1mqsXznMrKAgf3+Z4envTa+DbfPDeSK6cP0eWWk30k0g+mzCOuOgYhk+YmOdr69F/AM5ubgTkMvQxNTkFK5tXRqSUm6sRKQxYdxUDPT1OjGmKk7zgD2qdNPcpH01h9Pj3ca/pzozpM3Juxlm1fjXdenbjzNV/URRwLhKyo3Pb+LUpcT2fTfuUH1eu4ePPPyHofhB3Ht9ly56tSP67S/OP3Vt0Mjv6zA9znwm+IIV5X17ednHfy+69u3Pi6An27y7+Xbrl7TN/dzYNrMdv5yMZtvk6jxN1N+vOnCXfMXPhIr6f/yW+bi7UsTCnbwe/nFMLz8fstvKqSUxUFHOXfl/gsucjcFOSkl6I1n2jiQ+x0dHs2vIHZwNOMu+j6Zw+dpTZU6cQePIEc6ZPy4nAvRUUxA+LF7P9l81cvXCenv0Hcv3yZdrV8SLw5ImciGFLa5ucGN1tmzfRtGWrnIhiHyd75n/6CYJWy/07d+jctDF1rS04ffwYg0a998L70aRFC55EROTMhBQbHY2Pox03rlzhg89nA2BqJuPqhQt0bFgfb2sLPnhvJDMXLsLTO/s0xZKffqb3wHeY/H9D8bZS0LlpExLi4tj5z0kcnJwA+GHxN6xftYJBXV7n+pVnHzBfLlueazxK2IP7BV74LgtaQWDz2QjeWR9EfQdTToxpirOicH+BlXic+/bzO1h2ZAXbpxRtzsGvPv8KP38/Rg4awcy5Mxk5Njv98b13R7Hut4LngSwtYSFhtGrYkr8O/ZWT75KbGnInbj66VagPndJQkqjg8t52cnIy7Zv6ceLCCRQWRZsMY8e5nfx5YReHPyz8qYnSciUilaF/3CA0MYPpndwY1sIpz5EHovLzXv++DB41mk7d3tR1KUD2TVH+Detx8MIlFBaW5bbf4BglM3bf42pECp92dOfz19yL8vNZ8nHu5ibmpGUqizVG2tXNlbkL57Hoy2+Ij8t95pb1a37Gt24zatnXZGCPATnRsi9H5+YVQVtQTG7g6X8xMzPLt7E/tWjeIhp6NKChRwPOnn42NKww0b+Xzl/KdT3IPfJ35KARL0QF5/VaXt7PhJHjC3xfXt52YWOI83qP5XI5DRs3ZOeWwk3P9rzUjFTkJoW7gFbaGjuZcWFycz5s78qiw6EM/Pkqt6PSdFKL6Jn5K1az8YfVKNMqxr/F9199yezFS8utsas1WpafCKPHj5cRBIGzE5sz5w2PIh94lLi5u1q7otFqCE8ML9bzh4wYgm9LXxZ8Mf+VZUGXr/LNV9+wccsmLt+7goOTI5998BnwavRvbhG0hYnJjY9PQG4hL1Stn8z+hMv3rvBal9f5c/uzRliY6F9BEHJdL6/I32+Wf/tCVHBer+Xl/YwcO6rA9+XlbRc2hji/mN/a3nUIPPPsA6+wHsY9wt3avcjPKy1GBvp88boHQdNaIDeS0GPNZSZuvUVIXLrOaqru7B0dWbR6DWu/W6rrUti7YzttOnakW5++Zb6vLI3AzqvRdF51kR9PPWbuGx78O94XH8fcU3QLUuLI31q2NTE2NOb6o5u4WBVvGrOlq5fSqaU/w0YNe+Hxs2fO0cavDQ0aNQDgvXGjGNB9QK7byC2C9s+tOwuMyX0ay6vVagt1156BgQG169Ym+E72jROFjf6Ni41jcN/Br6yXV+Tvy1HBBUX+Pt1PYd6XksQQ5xXza2ZuRmx07jeB5EUQBG6E32RIq8JPWVhWvGxMOTK6CVuuRjPvaAhdVl2kX2N7JrV3pYaFOIFzeXN0dmbqrLzHnZeXHm/1L/N9aLQCu67FsOJEGJFJKkb4OjKjk3uhz63npcRH7lIDKS1qNufM3eKPWrF3sGfBkq/57IPP8s1vFwSBXOPPINcI2sLE5LZq24osdRZHDh4pVu2Fjf7Na72yjvwtTjRvXjUVtK2iDhW7FXGb+NR4/OqU/4Wq3Ojr6TGosT3Xp7Xkp7e8OR+axGsrLvDRX3e5mseECCJRcaVkZLHpbARdVl3k01136VTTklsftmJ13zolbuxQSqNlejbuwfmQC0Qn5X9EmJ/e/Xvj4ubCiaPPkulatW3J6ZNnuB50neTkZH5es542fq9G1QK5RtAWJia3pmdNRo4dxYcTp7Nv1z6SkpLIysriYehDJo6aUGDdhY3+zWu9vCJ/X44KLm7kb27vS3FjiPOL+U1JTsHaNveMi7zsu7yf2g5e1LavWIFeEn09hjVz5Nb0VqzqU5t7UWn0/ekKfX66zLbLUaSrixa1LBI97+aTNGbuuUfrpedYcjSU12pZcmN6K9b1r4t7Kc4YVirNvZN3R5wUjmw4salQ678c8/vUwu8WYWb+7PxSw8aN+HjWRwwbMJSmXk2IiYpm/uLsGNCXo3Nzi6AtbEzu/MXz+eLrOSxZsJiGHg1ws3Klu/+bJCZmj2t/GuP7/pDR3Ltzj2XfLOPPbX9y9szZQkf/5rVeXpG/L0cF5/VaXt5PYd6X4sYQ57atp8JCQmnVpuCL0k+FxoZx7OZxhrYZUujnlDdDiR4jmztxeUoLTo5rRn1bGbP3BdNm6TnmHbzPpcfJVKCoGlEFFq9U8/uFSAasu0qPNZe4/CiFhV1r8XBGW9b088bTOv+4heIo8VDIp47d+ocP/viQxYO/oaFLg9LYpKiSyEjPoLVPa/45d7zQQyE/2zqT9Ix0fhuzGX29ynOjdHSqivXnI9l8KZI7MUqcLYx5s54NPRra0qCYF75EVVNKRhZ/345j7/VYTj9IQCrRp2c9G95v4USHmpZ5nWEuLZml1twBxm4aT1RyNMuGfYeRoXgRqrr4ctaXNPFtku88tM/7+9phluz/js3vbaCRS8Myrq7sXI1MZcvVKLYERRMan46HtQld6trQ0cuSpi5yDMQx89VOZLKKgOB4jt6N40RwInpAl9pWvO1jT4+6NphJy+1myNJt7uEJ4Qz+cRgNXOozq8+MSnVEJiqe3Tt2Ya6Q4/+6f6HWv/H4Jp/88RnvthrE1M6Ty7i68nP2UTLbgqLZfTOG+3HpmBsZ0KamgvaeVnTwtMSpFC6QiSoeVZaWCw+TORGcQMD9BG5HpWFqKKFjLQv6N7Sjdz1bLExKPCixOEq3uQNcDrvC+5vG0btpT0Z3eq/gJ4iqjfD4cKb9+iFN3Rqz5J1vq+yHf3BcOn/fjePAnThOPEgkTaWhtq0pLTwUNHOW4+uqEIdXVlIZai1BESlceJjEhYcpnAtLQqnS4G0no2ttK7rWscbPwwJjA53/bJd+cwfYF3SAWTtn83r915nadRIGEp18cokqkOuPbjB355e4WDuzbviPmEhL/wJSRZSZpeVUaCJ/343nVGgSl8JTUGm0OJgb4esqp6mLHF83Od52Mgwk4mmciiYmVcXlxymcD0vm8qMkrkWmotYI1FAY0c7dAv9alnSpbYWrRemNciklZdPcAQLunuaTbZ/haV+Lz3p9gpVZ7jnKoqpNEAQOXfublX+vxq92Oxa89SXGhhXuF6HcqDUCQU9SOR2ayOnQJI4/SCAuTY2hRA8PKxPqO5nhZWeKl42MJi7mWJka6rrkaiMqRcX1iFSuR6ZyLTKV+9FphCVkINHXo7aNKc2czWnnbkEbNwX17WUFb1C3yq65A9yLCmba79OJS4tjcJtB9PPtKx7FVyPBUff54cgabjy+yQi//2Pia+Or7KmY4tIKAreilVyJSOFKRCqXI1O4GpFKvFKNnh64WRpTx16Gh7UpNa1N8LAxwcPaRGz6xaTWaHmUkMmD2HQexCsJiU0nOFrJ7eg00lQaDPT1qGNrSmMncxo7mdHY0RxfF3PkRpWub5VtcwfIVGey6fQv/BywAUuZBb2a9sS/vj9WsvJLVxOVH41Ww7VH19l35QABdwJo5NyQT978iHpOdXVdWqXyMDGDoMhUrkSkcu1JKndjldyLVZKuzr5Pw8LUkJpWxrjbmOJuZYyTwhgnhRQHuTGOcilGuj/nqzMxqSqepKiISlLxODGD8KRM7scqCY1T8jgxMyfD31lhjJetCXVtZTR2MsPH0ZwGDrKKcL68NJR9c3/qSVIUPwesZ9/VAyju1EGFAAAgAElEQVRVSmraelDLvhaWMkvMjCv8nziifKiy1KRlpvIw9hF3ntwlJT2Fhs4NGNJ6MF0adNb5DDZVhSDAo6QM7sUquRuTzp3YNO7GpBMcpyQ8KZOMrGc36NnIpDgqpNjLpdRQGGMtM8Ta1BBrMykWJgZYmhpiZZr9Xb8S/PsoVRoSlFnEKlUkpqmJV2aRkK4mNlVNVEomkUmZPEnOJCJZheq598HOTIqbpTG1bUypY2tKbRtTvGxM8bIxQVZ+wxJ1ofya+1MZ6gzOPTjPhdCLBEffJzY1ltSM1PIsoUrRqDRc2ngBj441samd92S5ZUlqIMXcWI6rlQv1nOriV6cdrsUMkRMVX1SqisdJmYQnZfIwMYNHiRk8TsrkUVIm0akqnjy4TdKeJej3+QJk2dfA9PTAytQQK1NDTKT6mBsZYirVw9hAgpmRBDMjA0wMJRhL9VAYZ58KMjLQx9jw2dGtVF8fE2ke0/tpIUX1LK5BECA5IwuADLWGDLWWlAwNaWoN6WoNykwNKZnZj6erNcSnZRGfriJD/eKd5UYG+libGmJrZoizwhhnuRHOCiNcLYxxtjDKfkxhVFWOwouj/Ju7qHQJgsCoUaPYsmULhw8fpk2bks9MJap67t+/j5+fH3XqeLNx61+kaCXEpqmITVMTk6omVqkiTaUlMV1NmlqLUqUhOVNDckYWSrUGpTp7GYBSpUWlKfr8DU8pjA3Q0wNjA31MpRIsjA2QSSWYGkowN5KgMDbAVKqPTCrBxjT7Lw4bmRRrmSF2MkNszaTleTNQZSU296pArVbTp08fzp49S0BAAHXriue3Rc9ERETQrl07FAoFx48fx6KIs2UVJF2tfeGU0MssdXMTT3UnNveqIj09nc6dOxMaGsqpU6dwc3PTdUmiCiAxMRF/f3/S0tIICAjA3t5e1yWJyofY3KuSpKQkOnTogFKp5NSpU9jZ2em6JJEOKZVKOnfuTFhYmPiBX/2UfA5VUcWhUCjYv38/arWanj17kpoqXqiurlQqFW+99RZ3797l8OHDYmOvhsTmXsU4OTlx+PBhwsLC6NOnD5mZr07GIaraNBoNQ4YM4cyZMxw8eBBvb29dlyTSAbG5V0Genp4cOnSIixcvMnz48FwnKBFVTYIgMG7cOPbu3cuePXto2rSprksS6YjY3KsoHx8fdu7cyV9//cWkSZN0XY6onHzyySds3LiRbdu20b59e12XI9IhsblXYf7+/vzxxx+sXbuWL7/8UtfliMrYggULWLx4MWvXrqV79+66LkekY+IA1Cqud+/erFq1ijFjxqBQKJg8uepMkCF6Zs2aNcycOZPvvvuO4cOH67ocUQUgNvdq4P333yc6Oppp06bh4ODAwIEDdV2SqBTt3LmTiRMn8uWXXzJ16lRdlyOqIMTmXk3MmjWL+Ph4hg4dikKhoEuXLrouSVQKjhw5wuDBgxk3bhyzZs3SdTmiCkS8iakaEQSBkSNHsnXrVo4cOULr1q11XZKoBAIDA3njjTfo27cvGzduRF9fvIQmyiHeoVrdqNVqevfuzfnz5wkICBDHQFdS165do2PHjrRr144dO3ZgYCD+ES56gdjcqyOlUkmXLl0IDQ3l9OnTuLq66rokURE8TXj09vZm//79GBtX32kLRXkSm3t19TSHJisri5MnT2JlJc5xWxk8TXi0sbHh6NGjmJub67okUcUkNvfqLDw8nHbt2mFnZ8fRo0cxMzPTdUmifCQmJtKxY0fS09MJCAgQg+FE+RGDw6qzGjVq5OTQ9O3bV8yhqcCUSiXdu3cnPj6ew4cPi41dVCCxuVdznp6e7N27l7NnzzJixAgxh6YCUqlU9OvXj3v37nH48GHxGomoUMTmLsLX15ddu3axc+dOMYemgnma8BgYGMjBgwepU6eOrksSVRJicxcBz3JofvzxR+bPn6/rckRk35cwduxYMeFRVCzi4FhRjj59+rBq1SrGjh2LXC4Xj+J17OOPP2bTpk38+eef+Pn56bocUSUjNnfRC8aMGUNUVBRTp07FwcGBAQMG6Lqkaumrr75i6dKl/Pbbb2LCo6hYxOYuesXs2bNJSEhgyJAhKBQKOnfurOuSqpU1a9bw+eef8/333/POO+/ouhxRJSWOcxflShAERowYwc6dOzl+/DjNmjXTdUnVws6dOxk4cCDz5s1jxowZui5HVHmJNzGJ8ibm0JSvw4cP07NnT95//32WL1+u63JElZvY3EX5UyqVdO7cmYcPH3L69GlcXFx0XVKVFBgYyOuvv06/fv3YtGkTenp6ui5JVLmJzV1UsLi4ONq3b4+enp6YQ1MGrl27RocOHWjfvj3bt28XEx5FpUFs7qLCCQ8Pp23btjg4OHD06FFkMpmuS6oSgoOD8fPzo169euzbt09MeBSVFrG5iwrv3r17tGvXDh8fH/bu3YtUKtV1SZXa88FtR44cERMeRaVJDA4TFZ6Xlxd79+7l33//FXNoSiguLo7OnTsjk8nYv3+/2NhFpU48uScqkubNm7Nr1y7efPNNLC0tWblypa5LqnSUSiW9evUiJSWFU6dOYW1treuSRFWQeOQuKrJOnTrx+++/s2bNGr7++mtdl1OpiAmPovIiHrmLiqVv376sWLGCCRMmYGNjw+jRo3VdUoWn0Wh49913CQwM5Pjx42LCo6hMic1dVGzjxo0jKiqKcePGYWlpSf/+/V9Z5+bNm7i6ulabWZ5u3LiBt7c3EonkhccFQWDMmDHs27ePQ4cO0aRJEx1VKKouxNMyohKZM2cOEydO5N133+Xw4cMvLAsMDKRdu3Zs3rxZR9WVv8GDB/P222+jUqleePyjjz5i8+bNbN++XUx4FJUPQSQqIY1GI7z99tuCXC4XLl68KAiCIBw4cEAwNjYW9PT0BE9PT0Gr1eq4yrJ34sQJARAkEonw2muvCampqYIgCMK8efMEfX194ffff9dxhaJqJENs7qJSoVKphK5duwq2trbC4sWLBYlEIujr6wuAAAiHDh3SdYllrlevXoKhoaEACAYGBkKTJk2Eb7/9VtDT0xPWrFmj6/JE1UuGeBOTqNSkpqbi6+vL3bt3gezzzAAGBga88cYb7N+/X5fllanQ0FBq1ar1wth/Q0NDzMzMGDNmjDiqSFTexJuYRKVn5cqV3LlzB0EQeP6YISsri4MHD+Y0/apo+fLlr1xEVavVpKam8uuvvxIcHKyjykTVldjcRSWm0WgYO3ZsvvnjBgYGrFmzphyrKj8pKSmsXbsWtVr9yjK1Wk1UVBStWrUiKChIB9WJqiuxuYtKJDMzk4EDB/Ljjz+S3xk+tVrN2rVrSU1NLcfqysfGjRvJyMjIc7larSYxMRE/Pz/Onj1bjpWJqjOxuYtKRKvV0rJlS8zNzTE0NMx33YyMjCo3LFKr1bJ06dJ8c3b09PTQarXY2dkRFxdXjtWJqjPxgqqoVCQkJLBo0SK+//57tFptrqco9PT0cHd35/79+1VmMordu3fTu3fvPJfr6+tjZ2fH3LlzGTlypJjVLiov4gVVUemwtLRk4cKF3L9/n+HDhyORSF45khcEgZCQkFdudqrMlixZkmvDNjAwwMLCggULFhASEsL7778vNnZRuRKP3EVl4vbt28yaNYudO3cikUjIysoCqtawyOvXr9OoUaMXrjUYGhpiYGDA5MmTmTFjBnK5XIcViqox8chdVDa8vb3Zvn07//77L61atQKyT1FUpWGRS5cuzTkaf9rUR4wYQWhoKAsXLhQbu0inxCN3UbnYu3cvH374IXfu3AFgwuQpfDx3IQnpWSQo1WRqtKRkalCqNGRqBBLS1WRmaVGqtCRnZqHSCCRnZB/9awSBpAzNC9vXCAIp/y3PjbmRBIm+/iuPGepnn/uXSSUYGehjYWyAsaE+Job6yI0MMDLQx9xIkr1coo+FiQFWpoZo0hKoW9MNtVqNRCJh1KhRzJ49mxo1apTm2yYSFZc4zZ6o5AQBotNURKWoCE/OJDpVxeOkTGLSVCSkZxGvVGd/T8sk4t99JP/9I4IqHf0JW0Fq8sK2TKUSDCV6WBgbYCjRw1QqwVSa/d/mRs9uEpKbGPDyJVm5seErjz2VnJn1ylDN5Iwsnj6UptKi0mhJy8wiM0tLhlpLcqYGtUZLaqbmle0JZ35FOLURo/odceo+DnsXD6xMDbEyNcTSxAAbU0Oc5EY4mktx+O+7vZkUiX7VuJAsqvDE5i4qWGyampCEdELjMwhJSCcsIYPw5MwXmrla8+zHyMRQgoNcio2pIXJTAxTGBihMDFGYSLAwNsTcEIIObcPWzoZuffqhMDHASKKPzEiSTxW6la7WkJmlJSldQ1yqku8+nkKb/iMwd61LUoaaxHQNSRlqktLVJKVrSFCqeZKsIiXz2V8TEn09bGWGOMqNcJIb4WAmxc3SGA9LY9ytTPCwMsHRXJyXVlQqxOYuyhaWkMGdGCV3YpSEJKQTEp9OSEIGofHppPx35CrR18NRbkQNhRH2cik2MikOCim2MmnO/zvKjQrdpAVBqJRDIotSd7paw5NkFTGp2V/RKSqiklXEpKl4kqwiMimD8KTMnA9HYwN9PKxM8LAyzv5uaYyntSl17WV4WBqLR/6iwhKbe3WiFQRC4jO4FZ3Greg0bkYruRmVxu3oNFJV2Q3cWmaIq4UxNSyNcbE0xsXCGBdLI5wtTKihMMJAIjaX0qbRCjxJVvEoMZ3HCZk8SszgUUIG4QkZPErM5ElKJpDd+OvYmeJtK6OBvQxvOxn17GXUsjLBUPx3Eb1IbO5VlUYrcDM6jUvhKVwMT+HC42SCIlNJV2ffSekkN6aWrQmetqZ42ZriaZf9XWEsjsWuaNIyNQTHKQmOVhIck869WCX3o9N4lJiJVhCQSvSpZy+jWQ1zfJ3NaVpDTiNHGVKJOBiuGhObe1URHJfOv2FJXAxP5uLjFK5EpKJUazAyyP7Fb1DDnPoOMurYy6hlY4KZkdjEK7sMtZbgWCX3Y5Rcj0zjekQKN56kkpqpQSrRp4GDDF9nOc1qmNPKTUF9OxmV8CyYqHjE5l5ZPYhP53RoEqdDEzl0L56HCRkY6OvhYW1CAyczGjia0cDJDB8nc6QG4hFcdRKVouJ6RCrXI7O/Lj5MIjE9C3MjCS1cFLzuZUkbNwUtXRTi6ZyqS2zulUVYQgYH7sTxz4METjxIJDpVhalUQjMXOS3c5LRwV9C4hjmG4p/iopdotAI3o9I4H5ZEYGgiFx6mkKhUozAxoJ27BR1rWtCtjjV17WS6LlVUesTmXlFptAKBj5LZfzuWvbfiuP4kFZlUQnM3BS3c5bR0s6ChkxkG4ugJURFpBYG7UUoCQ5M4F5bIuYfJxKep8bAyoUdda3p42+DnYYGR+BdfZSY294okI0vL/ttx/HUjhkN344hNU+NuZUzH2lZ08rKihZtCPMUiKnUarcCV8BSO3Y3nn3vx3HqShplUwhu1rehV14Y+DWyRi9doKhuxueuaIEBAaCK/XnrC9uvRpGZqaO6qwL+2Jf5eVnjamuq6RFE1E5GUyfG78Ry9G8+ZkEQketCzri1DmtjTuba1eJ6+chCbu67ciVHy6+Un/Hr5CQ8TMmjgaEbvRrb0bGiHnZl4l6KoYkhOz2L/zVj+Corm/MMkrE0NecfHniFNHWjuLAajVWBicy9vp0IT+ebEQ/bfjsXezIiu9a15q7E99R3MdF2aSJSvyGQVB2/GsONKFDefpNG0hjmT27owqLG9eO2n4hGbe3nIzNLyvytRfH/qEdefpNLaw4JRrZzoWNsKfXHgsagSOheWxPp/wzlyJx4XCyMmtXFmVAsn8dx8xSE297KUpRX46WwE846GkJieRY+GtoxsVYN6DuKQM1HVEBafwaZz4Wy7FIVET48P2rswvb0rpoYVNwSumhAn6ygrB+7E0fj7c3yw9x49G9pxclpzFvepXe6NXavV8vOKZXRt3pQ6lnK8FGa08HDjozGjS20f/o3q06SGY57Le7ZpReDJE6Wyr307d1DfzppPxo15ZVn/Th1xN5Hm+jWsV48i7acoNZfm63vqxN+H6NmmFd5WCurbWfNmy+aluv3S4mZlzOyutTg9rQWj29ZgyclHeC8OZPPFSLTicaNOic29lN2ISqPLz1foseEqbtbGHJrQjJldPHR2kfTzqZNZt3wZH8yew7mQMK5GRPHL3v1IJKV3ZPXLnvynzNtzJpBW7TuUyr6693uLKTNm5rqsedt23IpL5H5qOn3eGcTQMWO5m5jC9ahY6jfyKdJ+ilJzab4+AFVmJuOHDObT+QsIiozmxPWbeHp7F/i8OdOnlVoNRSU3MWBCe1eOTm5Gey8r3ttxmxYrLxAQkqizmqo7sbmXEo1W4NsTYTRfcZ5opYo/RjRi9dv1cLMy1llND0NC+N+6n1i2cTOde/ZCYWGJqUxGnfr1Wbh6TanuS1KOkz/r6+f+Y/vJl19hYmqa88Glp6eH1MgIM7mcT76aX271FZZapeLAX3+++rhaTXpaGnYOjkiNjLCxs2f5pl/y3ZZWq+Xw3j1lVWqh2cikzO/hyb6xTTE3MaDT2st8sPdeTmCdqPyIzb0UxKap6bL+CrMPhzDF35UdoxrTwk2h67I4dyoAmbk5Ldq2y3e9TT+spm0dT+rbWjGkezceh4UBMGPieNxNpLSpXQsvhRl1rS3o4tuEpi418JTLGN6nF1pt9i9tYkI8vm4u1LGU07eDH/f/m05v4+pVeJqbsmfbVgC++GAq7iZSvvrkY3zdXGju7sqls4E5taxYuABfNxd8HO1ZuejrnMfXr1xBO28vvBRmLFtQvEb99PX89tNa/BvV58r5c/Tt4IenXIaPoz0bV68qcs1FfX0rF31NM1dnvBRmNHN1zjUXXmZmxqRPZ9C/U0cWzZpJyL17LyzP7T0a884Awh8+xN1Eyv4/dxbr/SlNte1M2TikAd/0qc3Gi5G0Xn2B+3Hpui6rWhGbewndik6j+crzBMcq2fGeD2PbulSYCRUS4uOQK/L/kLl2+RLffTmPn7btIDA4BHsnJ2ZPmwLAgpWrkRoZsfGvPdyMiefNfm9Rr5EPJ2/c4uSN25w6dpSoiAgATE1lHL58hUuPIqhTvz6zpkwCYPj4CbTx75Szv7lLv0cikTB5xgwCgx/Q1t+f/Tuzm9GV8+fYs20r+8+e48iVq2xes4awBw+4euE8337xOcs2buZWbALvTy3e6YcFK1cjkUho3KIF85evRBAE/jwRQHByGkvWreePDT8XueairBt6/z6rv/2GHcdPcOVxJHUbNSLi0aNca532+Wy2H/uHrKwserRtxdwPP8j3PVqwYhVSIyNC01W82bdfsd6fstDPx469Y5qCHrRceZ4TD8TTNOVFbO4lcCUiFf8fL2FnJuWvMU0q3Fh1ucKCmKionKPr3Jw/fZqWfn7Ua+SDuULB8PETuHDmzAvr2NjbYSiVUqd+/ZzTHE4uLlhYWpGZmT2RhEQiwdLKGpmZGUPHjCXo4oUC6zMwNKRO/fqoVNnbuHL+PHdv3qSFhxvN3V2JfhLJ/Tu3OXPiH/xee51mrVpjYGiIkXHJTnW5uLvTpqM/bjVrMrxPLxrY2zDm7f6oVKoi11yUdQ0NDYFnp5UEQcAgn9NZXnXrMnPhIvaeDmTrpo2cO30qz/eoIqthYcSWET608rCgx4ar/H03XtclVQticy+mh4kZvLnhCrXtzdg4tAGWJoa6LukVLdr5kaVWc+zAgUI/pzSmvlNlZmJkbFLwirns+/Xu3QlNV+V8der2JlqNBqmRUYlqys2WTRvRarUE3LrDzhMBpb79l9VwdeWtIUPp3KwxzT1cUVha0H/osAKf5+HlRbPWbXgUEpLne1TRGRvqs7y/N13rWdP/12tceJyi65KqPLG5F4NaI9Dvl2tYyQxZ83ZdTKUVc0yvh6cn/zduPJ9NGMfBXX+RnJRIVlYWj0JDmTZyOAAt2rUj8ORJbgZdJSUpiU0/rKaln1+R9yUIAmqVitTkZNavXEFbf/8ib8PH15cz//zD2YCTqFUq4mNj0Gg0NGzSlIAjR7gVFERyUiLXLl0q8rZzk/0hZIRUakRocHCpbDM/qcnJ3L15k8uPI7kZm8BPW3dgKnt1aOzjsDBmT5tCbHQUWWo1Vy+c51ZQED6+zfN8j/T09MhSq4mKjCQzI6PMX0txSPT1WNi7Nr6uCvpuDiJeqdZ1SVWbICqyr46GCLJZ/wjHHycJoemqCv/1/YZNgnfDhoLUyEiQSCSCjZ290KnbmznL5yz5TnB0dhZk5uZC+zc6C//eeyCEpquEwe+NFgDBu0EDYfuxfwRzhUIwMjYWlqxbL/QdNFgABN/WbYTL4ZFCkxYtBZmZmSAzNxfe6NFDOB/6UAhNVwkjJ04SJBKJYGllLfxx6LAwfPwEARD8XntdOHD2giBXWAimMpmwK+C0EJquEqbO+lywc3AUTGUy4a13hwjByWlCaLpKGDVpimBhaSXYOzoKrTt0FIxNTIQtfx/J9fU2bt5CMDAwEAwMDYWOXbrmPD541HsCINSsXVu49iRGOHb1uuDo7CxYWlkLg0aOEvT09IRP5y8oUs1FWTfoSbRQq04dARAAQWpkJHTt3UcITlG+UP+lxxGCj29zwUwuFwwMDYVadeoI32/YlLM8t/fofmq60LBJU8FUJhO+WrZC5z9z+X1dTVAKjl+dEoZvvanrX+WqLEO8Q7WIEtOz8Fh4hjHtnBnn56LrckSVSFRkJD8uXczsb5cA2UfyPdu2YvnmX2nYpKmOqytf+27EMmX7ba590BJvMfm0LIh3qBbVb5efIABDW+R9R6ZIlJt/Dh0kLiaGtJQU0pVK/j15kuSkZFzc3XVdWrnrVs8adytj1gQ+1nUpVZbY3IvowJ042tWyECeYFhVZ5169SExIoEVNN3ycsseor/zlVywsrXRdWrnT19OjSz0bDtwRR86UFbFDFdHtGCUDmtrrugxRJWRpZc2mXbq/i7SiaORkzo+nHqPWCOIEIGVAPHIvoqSMLOTG4meiSFRScmMJWkEgKSNL16VUSWJzLyJrU0Pi0sQhXCJRScWlqZHo62FpIh4slQWxuReRj6MZl6vJDRhPIiJYsXABq75ZSB1LeU58rpfCjB6tW3Li70PF3vac6dOoZWZSKjkoZR2PO7Rnd9xNpCQnlezW+cJEAx/c9Renjh0t0X4qi4uPkmnoYFZh4jqqGrG5F1GPujacCUkkKqXgW9Urs+gnkXw2YRzvTZ7KhI8/ZeSESbzRsyeh6SouhD2iY5eujH93EBnpxQuDmrPkO9p2eq3EdRY3HrfA+p6Lz/1lz75iRSS/HMFbmGjgrr37cOroUQ7t3lXk/VUmmVlaDt6IpUdda12XUmWJzb2IBjayw8rEgDWncg98qipmTBzP28NHYGL66hhkhYUlA4b9H2mpqcRERZVpHROHvpvv8uLE4xakNOJzS7KNCR9/wuypk0lKTChRDRXZ/y5EkpSRxdhWzroupcoSm3sRGRnoM79LLX45F8n5h0m6LqdMxEQ94cThw3Ts3CXX5SlJSfyxYT2Ozs44Oj/75cwrrje3WN3Skl887pDu3XA3kfJOlzcA+HT8WDzNTdm9dUu+0bx5xecumTsHXzcXfN1cOHf6VL6v++VtvBwNDLBt8yY61PfGS2FGc3dXbl+/DoC5QkGDJk3Z9ccfpfpeVRSPEjJYeiyMaX6uOJrrZhKb6kBs7sUw3NeRbt7WTN56m4ikgtMBK5tLZ8/iWKMGxiYvhn8d3rMHdxMpDR1sObJvDz/v+DMn1TCvKFog11jd/Pz5+/9yzu/v3b4t579H9uuT6/p5xeOu/t/vyMzMmLN4KQCfLfiaoWPG0mvg2/lG8+YVnzv9izkE3g/Bv2vXnCZd2Ajel6OBbwZdZfa0KXy7dh03ouOY9/0ytFpNznIv77ovfIBUFamZWbz/+w1qWZvw+Wvuui6nShObezH9+k49bM2k/N8v14hMrlrn3+NiYpCZm7/y+NNz7tO/mINapcLNo2bOsryiaONjY4ocq9t30OCcxMMe/Qfk/Pf6nX/l+Zzc4nHlCgveGjKU337+CYC/fv+dQSPfe+W5RYrxNTDAq25dVJn5xxQX5GxAAK07dKRF23ZIjYzo1qcv9Z6bClBmbkZcTEyB26lMUjOzGPXbTZIzNOwe3ggjA7H9lCXx3S0muZEBh0Y1xliizzvrr3A3WqnrkkqVRD/vC4hjpk0HyJmQA/KO6y3vWN3n43EBRkyYxO4tW0hXKnkcFkbtevVKdX95ve6Cn6dFv4BRIiWNXq5InqSoeHfTNR4nZnD4vca4KHQ3/WR1ITb3EnAwl3J8TFPcLEx4a90V9t2I1XVJpcLGzo7UlOQ8l0uNjPhi8VL+/P1/7PjtVyDvuN6Sxuqu/OW3fJfnF48L2bHHzVq35uuZn9GiXeGijIsSn1vcCN7mbdtx6tgxjh88QLpSSVpKCilJz67hpCanYGVjU6h6K7qzoUn0+fEyKrWWE2OaUtfu1ZhjUekTm3sJWZsacmR0E0b4OjJp2y2m/3mH5PTKfcddkxYteBIRkXPq4bef1rJh9UqO7d/PW/7ZQ/n8u3bjjR49+HjMaJbOm0vTlq14f9oHTBo2FB8ne+Z/+gmCVkvP/gO5fvky7ep4EXjyBCH37rFm6WLmfTSd08eOMmvSxALHfufH1EzG1QsX6NiwPt7WFnzw3khmLlz0wnDIUZMm88+hg7z25rMj6jnTp6HRaJjw7mBuBQXxw+LFbP9lM1cvnMfS2ob6Po3xb1iPbZs3MWPi+Jx1g2/fZtWiRezeuoXzZ07n+bpf3sbT1zt76hQCT56gYZOmzP5mMXOmT6ORox2DunYmMjw8p76wB/cLnPu2olNlaVn4dwjvbrpGGzcFgRN9qWVd9ElcRMUjRv6Wor/vxjNq+y3Ss7RMbO/C0BZOGFTSGzTe69+XwaNGV6i3+DUAABK4SURBVIpZfgoS+fgx+3Zu573JU3VdSqFkpKfj37AeBy9cQmFhqetyiuXonXjmH7pPdIqa+V1rMqmNC1XoLFNlkCk291IWr1Tz1bFQfvg3HHdrYz57w4MOXpUv9S8qMpKPxoxmze9bcp0tqDK4FRSEi7s7s6dNYfbiJZUmfXHhzBn4NG9Otz59dV1KkV0NT2HBoRAuPEpiUGMH5nepiauFeH5dB8TmXlbuxSr59MB9/roRQ7talkzwc6Glu0LXZRVJ5OPHbNm4gamzPtd1KcXy/sD+nA0I4KvlK+g5YKCuyymUvTu2I5fLaf9GZ12XUiQ3n6Tx46lH7L0RQ1t3CxZ396S5s1zXZVVnYnMvaydDEvn80ANOhSbS0MmMka1q0L2+LQZixKmoktMKAv/cjefnwAj+DUmkgYMZc173oG8DW12XJhKbe/k5/ziZ7wIeseNaNDYyKcNaOTKwiQNWpoa6Lk0kKpK0TA27rkWzITCcB3HpvOFlzXQ/F17ztBLPq1ccYnMvb5EpKtaeDWfFmcckZ2TRyt2Cvj52dK1rjam06OFUIlF50GgFAkMT2Xk1mr9vxZGlFRjQyI6POrjRwL5yXpOp4sTmritKtYZdN2L57fITDt+Lx8RQQue61vTzsaOluwJ98RBIVAFcDU9h17Vo9l6LJU6poo2bBe82sWdAQzvxr86KTWzuFUG8Us2O6zFsvhjJvw+TsDAxpLW7gk51rHm9thVycTIDUTnJzNJy4WESR+/Gc/hWPOFJGdSxNeVtH3vebeKApzhOvbIQm3tFcydGye6bMey7HceZsCQkenr4usl5rbYV/rWzZ4wXiUpTVIqK43fjOX4vjlP3k8jI0tDYyZwe3jb0qmdD0xqv5gyJKjyxuVdk8Uo1x+4nsOdWLHtvxZKYnoW9mZRmrnLa1rKkmYscL1tT8SKWqEhiUlWcf5jMhYdJXHqYzLXIVIwN9GnjZkGPutb0a2CHs8JI12WKSkZs7pVFllbgdGgSJx4kcCIkkbMPk0hXa3EwN6KFm5wW7gp8XRXUsjERpy0TvSA0PoNLD5MIDEviQlgSofEZGEr0aFZDTnsPCzrUtKBDTUtMDMU0kipEbO6VVZZW4GpkKkeD4wkITeJ0aCJJ6VmYSiXUt5dRv4YZDRzNaeBohqetiXiBtpqISlFxPSKV65GpXItM5erjZOLS1Bjo6+HjaMZrnla0dVfg52GBwli8llOFic29qsjSCgRFpnIpPIULj5O5GJ7CtSepqDUCZkYSGjiaUc/BjNp2pnjameJpbSpeqK3ElCoN9+PSCY5Wci9GyY3I7IaeoFQj0dejjq0pvs5ymtUwp5mzOU2czDEW89OrE7G5V2UqjZagyDQuhidz8XEKlyNSuB2tRKnOnvHHwdyIWrameNmZ4GVjSi1bU2rZmGAtE6c+qygS09WExmdwL1pJcEx2I38Qq+RRYgaCAFKJPrVtTWnsZPZfI5fT2NEMmXjPRHUnNvfqKCI5k1vRadyISuNmVBr34zMIikwhNk0NgNRAH0dzKc6WJrhaGuFiZYyrpQkulsZ4WBljZiQe8ZcWtUZLZLKKRwnpPEzI5FF8Bg8T0nmcmEFYQgZJ/8VHSyX61LI2ob69jHr2Murby/CwMqGBvUyc0UiUG7G5i555lJRBcGw6IfHphCRk8CAunZCEdELiM4hOfTY9nrXMEFszKfZyI2xkhjg8/93MEHtzI2zNDKt108nSCMSkqYlKySQ2Jft7TOp/39PUxKRkEp2sIjpNxdPfQEtTQzwsjfGwMqGmlQkeVsZ4WJrgaWOCu6WxeN1EVBRicxcVTppKQ0hCBqHx6YQmZPD/7d15dNTlucDx7+xLZiaThZAEE0MSEgIEwpIWWSuKEK3QC7GttUUs6q1Wq7e2FpBicQOOvXDR04uXpZ4i7a1WUbFqg6ClxCKhLJc9GJKQjZBAtkky++T+kRCSkF2OkwzP55w5kPze+c3zvvx45j3vb+Z9ym0uSuucXLzyZ72Lyvr29VEtejVWQ/PDYtAQrFdjNaoJ1muwGlVY9RqsBg1BOiUmvRqdSoleo8SsV6FVKgnS+W9pwe724vI2UWv34PY20ej20uj0Uu/0Umt3U+vwUGNveTQ2/1znaP57jcNLTaO73flCjBoiTVoiLVqGWXREmrREW3TEWvXEheqJDzXIDU5xPUlyF9ePy+ujot5NaZ2TCpuLi/Uuqu1uLjd6qLa7qWp0c9nuocbupqrRQ3Wjm3qXt9tzGjQqtGoFVr0ajUpxzf47QTp1uxmtUgHmNm8KDW4fHm/7S9zmaJ94nR4fDrePOqcXt9dHvbP7mIwaFVaDmlCjhlCjmlCDhpArPxs0hBjVRARpGWpuTuCRZq3czBRfN0nuwr9cLcm0xuHB4fFhd/uoc3hwenzUu7w0uLw4Pb7m4+7m41c00XzDsf35mmho84Zh0CivSaxmnbpdhSydWolRq8SsVaNTK7Do1Rg1KnRqBVaDBq1KQZBWhVmnxqxTSaIWg4EkdyGECEBOmYIIIUQAkuQuhBABSJK7EEIEIEnuQggRgCS5CyFEAJJvTQi/23qwjOV/O9e6/YFSoWCoScPc5DBWZyQyJEjD9/54gh0nKnlyWgwv35Xot1gb3V5eyS7hjcMXOPnUZL/FIURPZOYu/G5JejRZS8YDsONHqVSvmsG2741m19kq7n79/wB4874xTB8e7M8w2Ztfw/O7Czld2UB1y54vQgxUktzFgGPSqpiVGMJTM2I5WFLHuct2f4cEwMx4K6szEpgQLWXnxMAnyzJiwIqxNteLvVjvIqGlMHN+lZ0f/vkkWWer0KkUbM5MISM5DIB1+4pYv6+YygYXUWYdL9+VSGZqBACrPyvklc9LqHN4iLHq2fuTCQw1acmvsvPou7kcKKoj1KjmmVlx/Dg9ul/xrtyVz/Yj5Rz7j29iki13hZ/JzF0MWF9eagQgLuRqUfAIk5ZNC0dyftkUJt8czG8+yW89VlLr5MMHxlGzaiaZqRE8/VEeAIdKbazbV8z+n06iYuV05o8Kx+724fU1MXfrURLDDZxfPoXXFozk4R1nyCmu61e8viZoankI4W+S3MWAY3N6+ejMZdbvK2JhagTRlqvFmk1aFUZN82NOUhgltc7WY+u+PYKxUSb0aiWTYy1ctDXvUnmpwYXd7cXjayJIq2LtnYnEhejJaVnyWXZrHBadmtkjQkkMM7Inr6pfcb8wJ56CpVPabVwmhL/IsowYUBa8cbz10zKZYyN4aW5Cl22Vivaz5N/+o4gtOWWU1jqxe7xoVc1zl2lxVpLCjaSuO8C8UeE8OT2GW2KDOV/tACD2pc/bnVdulopAIMldDCg7fpTK/NFD+vy8vfnVLP04jzd/MIbZSaFk5VZx/1unAAjSqvjisUnsOFHJlpwypm88xAeLx7Um/+pVM7BIdSkRYGRZRgSE0xWNRJt1LEyNwKJTo+xQtEirUvL9cUPZ/dB4Zo8I5b2TlcRYda3PFSLQSHIXASHaoqOywc3pigaqGt38q8TWeuyd4xVs3F9Kg8vL5UY3DrePmGA9k4ZZGDnEyC/++iWF1Q68vibK6pzYeijW0ZWVu/KJX/vPHguQCPF1kOQu/O79k5Xc+fujACx68xS3bT5yTZtf78onu7CWjV+UsOlAKXvyqvjVR3lcrHex6M1TzEkKZXZSKOmvHuT2zUcI0qpwenzM3XqUSIuO9dlFhK36B8kv7yfSrOOJaTEoFLBz8Tg0KiWj//MLhjy3j5//9Usa3Z0n5437Sxm7/gBLPz7HxXoXw17M5rbNR3B6fJ22F8KfpFiHEEIEHinWIYQQgUiSuxBCBCBJ7kIIEYAkuQshRACS5C6EEAFIvpY3iHxw6hKPvpdLWZ0To0bFoomR/O47yf4OC4ATFxt4YudZDpfY0KgUzIy38t//NpIhQZpun9exUAeAWqkgPEjDxJssLJ4YxYIxff/Gal/1pmDIYLP043McKKrls3+f4O9QhB/IzH0QuXtUOEee+AYAazISvrbEvievit/9s6TbNg+8dQqTVkXB0ikcfDydQ6U2nt9T0OO5Oxbq8K6ZRcXK6Wz//miampq4Z/txHn7nzHWNtTdxdFYwZKDrb99FYJLkLnq0OaesxzZnKxu5PTEUq0HNzSF6xkebqah39ev1gvVqbk0I4YPF41iSHs3Wg2XsPHXpusXaGwO1YEh3OvZ9TUaCzNpvYLIsM8i99Gkhv9ldQGZqBCqlgo/PXMKoUfH6d1O4LTGUVbsLeH5PATPjQyiqdlBuc5EeY2bTwhQSwwwsefs0fzh0gbUZiTw1I5YN2cWsyMonJcJIzuPpPPj2ad4+XsFfjlXws51nKX1mGpFm7TVxTBhm5v1TlTw25SYu2Jx8UVTL1syUr9y/NRkJbDt8gW2HLzBvVDjQdVGOzmL909HyLgt49EbbgiGv/+sCa/9+nqe/FYtJq2JLThk7Fo3FrFN1WvCjp7Hvri8rsvI7fa09eVW96vur85NYkZWPSauiaPlUAM5XO3h851n2nqvGoFEyfbiVV+YnE2XW9ngdicFHZu6D3PJZcUyLCyZYr+Z/FiRTuGwqYyJNPLe7EIBnbx/O2EgToyKCOPrkN8j95WRUSgWZbxwHYGtmCknhxtbzPTEthqW33tz685bMFGKtel6Zl4R3zaxOEzvAy3eN4PPCWqZvPMQj7+bylx+mMjc5jO9sO4Zm2WcYnvk7v2opntEXoUYNqZEmTpQ3tP6uq6IcncXaVdvealsw5IU58UwfHkxOcR1T46z8dMpNeLop+NHT2HfXl85eq6mp931/9JabWJ3Rfrvke/90AqUCcn95CzmPp1Pj8LBw2zGg5+tIDD6S3APElSIWJq2KjOQwSmod7Y5HmrUEaVVEW3Q8d0c8x8vrOVJm6+JsfXOmspGnP/qSe9OGcvSCjXqXl9RIEwDvLRpLYpiBF+bEs/bOxH6d32pQY3Ne3WO9q6IcnelL27a6KxiSFmVmxnArP58ei8vr67HgR3dj31N8bV8rLdrU7/4cKbNxoLiO5++IJ9KsJdaq58U5CRwormt3HfR0HYnBQ5ZlApBSAd1tGJTcMlMvrHIw/isWe651eJi9+QiPTB7G8llxPDApivl/OMZtmw7z4Y/T0KoUFFY7+O643i+FdGRzeAnWX71UuyrK0Zm+tL2iLwVD+lrwo+PY9zW+/vQHIL/lnkF8qKH1dyMjjK3HOrsOerqOxMAmyf0G5PY1/5dVd9z0vB+yC2ooq3Ny58jm9fDpw63seXg8GVuPMvO1Q2SmRnD3qHBigvU9nKlzTo+PUxUN3NVy/u6KcnTUl7Zt9aVgSF8LfrQd+77G19/+tNU2WftaNrNUKL76dSAGHlmWuQGdbFm/TgxvnsUpAF8/Nwe98qxy29VapuOjzez9yUQaXT5e/LSQ+ydE9jvWNw6X0+Dycv/E5nP0VJSjrb607a++FvxoO/Z9je+r9Cch7Oos/YozlY0txwydPkcMbpLcbxANLi9ubxNFNQ5W7spnZryVlIggACItOvbkVVPv8lJj93ChTaIGMKiVHCypw+nx4eiwd/nUOCtRZi2/+DCPz8/X4vD4qLZ7OF3RQLSleW33vj+f5INefJTR6fXh9TXR1AQXbC42ZBfzs51nefibw5ibHAZ0X5SjY6yhRnW3ba+H3hT86Grse+pLR33pe8d/p7RoE5NjLaz8JJ9ym4viWgcrss4xOdbCuCjT9RsQMWDIfu6DyIenL/HIu7mU1jkJ0qpYPCmKKLOWZz8pQKtSsO7bI4ix6rnvf09S6/CwJD2aTQtHMmFDDkU1DhpcPlRKuCMpjE0LRhLe8q3LXWerWPzWKexuH99KsGLUqHjrWAWP3jKMDfOS+K/sYlZknWNIkJbt945m6s3B7eI6XdHAqt0F7D9fS0W9m/AgDbePCGXFrDjUSgUzXztMca2DlIggsh5MY1ibm5PbD5fzbEvC8fia8PiaUCjAqlczLtrMg+nR3Js2tLW90+Pjnj+e4NO8KpLCjSwYE8Gzn+Qze0Qof1uS1i7W39+Twvrs4i7btvX+yUoeeTeXi/UuTFoVk2Is7HlofLs2v97V/PFEtVLBD9KGsqXlo57nLtt56J0zHCiqRadWckdSKBvmJTHUpO127LvrS3qM5ZrX6kvfRw0NIrugpvXmdtaDadjdPh57L5e9+TUoFDAz3sqr85OJC9Gz+rPCHq8jMag4JbnfACZsyOGesREsuzXO36HccGTshZ9IsY4bhU/ewv1Gxl74g3xaJsA99n4ux8rrOXupkXKbi1fnJ/k7pBuGjL3wJ1mWEUKIwCPLMkIIEYgkuQshRACS5C6EEAFIkrsQQgQgSe5CCBGAJLkLIUQAkuQuhBABSJK7EEIEIEnuQggRgCS5CyFEAJLkLoQQAej/AdhrHCAcBeYhAAAAAElFTkSuQmCC;" vertex="1" parent="1">
          <mxGeometry x="60" y="130" width="884.44" height="1000" as="geometry" />
        </mxCell>
        <mxCell id="DSl8sD201AtZQCHesUCh-66" style="edgeStyle=orthogonalEdgeStyle;rounded=0;orthogonalLoop=1;jettySize=auto;html=1;entryX=0;entryY=0.5;entryDx=0;entryDy=0;strokeWidth=12;" edge="1" parent="1" source="DSl8sD201AtZQCHesUCh-61" target="DSl8sD201AtZQCHesUCh-50">
          <mxGeometry relative="1" as="geometry" />
        </mxCell>
        <mxCell id="DSl8sD201AtZQCHesUCh-61" value="" style="shape=image;verticalLabelPosition=bottom;labelBackgroundColor=default;verticalAlign=top;aspect=fixed;imageAspect=0;image=data:image/png,iVBORw0KGgoAAAANSUhEUgAAAXkAAACFCAYAAAC+JIjrAAAABmJLR0QA/wD/AP+gvaeTAAAgAElEQVR4nO3dd3xN9//A8Vdyc+/NnjJkCUkkhCD2DGqr3VJKUVpa1VZ1q9avRVWpGlWt8bXVLKVq1Iq9EiP2jsieN/Pu3x8hDbJ34vN8PDxIzvl8zvscvHPuOZ/P+2Og1+v1CIIgCNXRYcOKjkAQBEEoOyLJC4IgVGMiyQuCIFRjRhUdgCAIFSNDrSM5U0O6WguAIlOL9vErOo1OT6pSk71vukqHUqsDwMbkv7QhlRhiJpNkf20hl2BkaIDEwABLY6On9hUqhvgbEIQqLlOjIypFRYRCSWyqikcKJTGpauLT1SiUGhSZGpIytaQoNSRlaEjO1JCi1KDWls+YC0tjIyzlRlgaSx7/boSVsQRrYyOsjI1wspDhYC7D2VKOo4UMJ3MZtqbScontRSCSvCBUYlqdnrCkTO4mZHAnPoO7CZk8UigJT1YSk6oiMkVJcobmqTa2ZlLszaTYmEoxk0swlxvhZifFQmaEpakEC5kR5o+/by6XYCrPuhM3lUqQSgwAMAAsc9yFyyWGGEsN0en1pCi12d/PVOtQanTZXysyNegBjVZPmlKDQqlFkaEhVaUhNVNHilJDqlJDqlJLRFwGKUo1sSlq4tPUqLT/9SM3MsTeTIaLVdYPAFcrOR42JnjamlDHzgRPOxPMc3yCEPJmIIZQCkLF0uvhXmIGV6PTuB2flczvxGdwJyGDB4kZ2Xfc5nIJtWyNqWklx95cjoO5DHtzKQ7mcuzMpThZyqlhZoRUUjVftSWkq4lNVRObosz6PU1FtEJFfJqKKIWKh4mZRKUoeZKxHMxleD5O+J62Wb/72Jvh52iGibRqXoMycFgkeUEoRwqlhltxWQn9/CMFV6LTuRCRQkK6GgArEyPcbYxxszbG3cYEN1tj3G3kuNmY4GZtjIFBBZ9ABVNrdUQqVDxMzCAsUcnDhEzCEjMIT8rkVmwGGY/fL9S0kBHgaklTFwv8HM2o52BGPQdTDF+8CyiSvCCUlXS1lrMPUzjxIIkzDxVcikrjfkIGkPWc2tfRjLqOptRzMMPHyQwfezPM5OIRRHFpdXrCEjO5Hp32+FcqN6PTCUvKRK/PuuYNncwJcDGnTS0r2tSyxtVKXtFhlzWR5AWhtIQnKznxIIkTD5I5+UDBhYgUNDo9NS3lNHG1oH5NM3wczPF1NMPFutonl0ojVanhRkw6N6PTuBqdxuWIFK5GpqHR6XG1Mn6c8K1oXcuKxs7mGBlWq7t9keQFobiiU1Xsu5nAvlsJBN1NIjw5EyNDA+rXNCPAzTLrcYG7JTUtRUKvbNJVWi5HpHIuLJng8BRCwlNISldjKpXQzM2Sbt42dKtrRxNn86r+iEckeUEoLLVWz/EHSey7mcDemwlcjExBKjGkubsVrTyyErq/swWmYtRHlaPXw524dELCUzj9IJnjd5KITlFiby6jq7ct3b1t6VrXFkdzWUWHWlQiyQtCfuLT1WwLjWX39TgO3k4kVaWljp0J7b1s6OBpQ0sPK5HUq6nrUWkE3U0k6HYi58IUqLU6Gjtb0L2uLYMaOBDgYlHRIRaGSPKC8KykDA07rsbyx8UYDt5OQCoxpJ2nFR08bWnvZYO7jXFFhyiUs3SVllP3kgi6m8ThmwmEJWbiaWfCkEaODPZ3oKGTeUWHmBeR5AUBsqb4H7idwJrgKHZei0MPtPO0oVf9GnT3tROjXoSn3IxJ55+rcWy/FM2DhEw8bE0Y3NCBN5o6Uc/BrKLDy0kkeeHFdjZcwZJTj9h4MRqNTk/bOja83MCerj62WBiLCeFC/vR6OB+uYPeVWP4JjSM6VUVzN0veaeXCYH/HyjApSyR54cWTrtbyx4Vofj31iOBHKfg6mjGsaU1eblgDaxNRM0UoHp1ez5n7yWw4H8Xea/GYySWMDHBiXCsX6tYwraiwRJIXXhw3YtP59VQ4a4KjSFfr6Fm/BsOaOdHc3aqiQxOqmbg0FZuDo/njfCThyUo6edrybisX+vnVKO8hmaWT5GNTYjlz7xy3om4RnxpPpjqzNIJ7IUkMjbA2taK2fW383Rri6+SDQdUep1vh7iZkMPvwA1aci8TBXMbgACdGtKgpKh0KZU6n13PyXhIbzkWx73o8XjVM+bxjLYY1dkRSPpOuip/ktTotf1/6h81nt3A5PBQjQyPc7dypYWGHXComfxSXVqclOSOZ+7EPSM1MxdHSkX4BfRjSYjA1zO0qOrwqJWdy97Qz4e12bvRraF9e/7kE4SkPEzNZcuwhm0OiyzPZFy/Jn757hlm7f+Rh/EPa+rSli19nGrs3QiatchMFKi29Xs+dmLscvX6UvZf2odSoeDtwLK+3HopUIu5A83MzLp1v/73HpksxeNqZ8F6gO73K/2OyIOTqblwGi4LC2Bkai3cNU6a+5MEQf8eyKj5XtCSfpkxn2o5v2Re6nzberXm781s429Qsk8iE/6jUKjae3sym05txsnRi9uDv8a3pU9FhVToZah0zD91nzpEwPGyNmdjRnZ71RXIXKqecyb61uxW/DPChgWOpD78sfJKPTI7i/bUfEpcax8cvT6ZZ7aalHYxQgBhFLD/tnse1iOvMHDSdzvU6VnRIlcbB24lM2HGD8GQl7wW68VZrV/FYRqgSrkWl8fWu21yMSOGd1i58180Ti9Kbl3G4UIM4b0XfZvhvb6DRaVkwcr5I8BXEwdKeGYO/4yW/zkz+4xM2nN5Y0SFVuAiFkpGbrtJ1WQiutibsf68p49u6VckE/8vsWfjYWOJhIuPOjRvPbV/w/Qw8TGS09fEi4uHDfPuaNnkSnuYm7P5zW5779GnTilNBR/LcrtPpWL5wPj2aB+BjY4m3lTktatfik3FvATCiT288TGQokpMKeYalrzDnWdnVczJj05hGzOpXl7Uh0dSbe4o1wVGl1n+BST4+NYGJ6z7E2daZn0bMwcHSvtQOLhSdxFDC+93fY1SHN5i9ew4Hrx2u6JAqzLbQWBrOO83R+0msHO7HsqH1q3TFxwmffs6bEyZiZGTE+uXLntqmVqn4438rANgedAxnN7d8+5o2dx5tO7/09PcmT3rq650nTtGqQ2CefUz98H2WLZjPR19P48y9B1yMiGbNrt1IJFl3mWt2/p3954qS23lWRQYGMLCRAwcmNqWjtw2jN19l8LpQkp5Z2rE48k3ySo2KSRsmA3qm9p+CqcykxAcUSsdrrYfQu0kvPt/yJVceXanocMpVhlrHmC3XGLzuMv38HdjzblM6eNlWdFilpke//mxduwZl5n9Dkf/avInWgR2L3adOp2P/rp2F3j/s3j3WL1vK/JWr6danL1bWNpiameHj58esxUuKHYeQP2sTKTP6eLN8mB9H7ibRfNFZzj9KKVGf+Sb5JYd+407sXWYM/g4rUzFhpLJ5t8t46rvU48utU1Fr1RUdTrmIUCgJ/O0826/G8dsQP77p6YncqMKnjpeq4W+PIzVFwd/btmZ/b8PyZYx6d8JT+701eBCe5lk3Xvt37aJ+DRvmTPsm1z7HvfYqj8LC8DCRsfvPbaxc/AteFqbs3Lwp1/3PHDuKmYUFLdq2KzDeuf83jWa13GhWy40zx49lf39AYHu8LM1oVNORlYt/AeCbjz7Ew0TG9M8+pVktN5p7uBN8+lSB2wAWzppJs1puNKrpyKIfvi8wrqqso7ctu95pgpOVnMAl59l0KbrYfeX5vyMs4SFrT65ndIeRuNq6FvsAQtmRGEr4uNdHRCmiWX/qj4oOp8xdjEylxaJzKJRato1tTBff6nP3npOTiyvd+vRl3dLfATgVdISGAQHY2D49T2Lu0uXZf+768suMHP9unn3OXPgLMrmc+xkqeg0YyKh3J9CmU+c8909MiMfSqnA3dpO/mcapO/fo1KPHUz80/jxylNuKNOYuW8Ef/8uK9f9++hmJRML7X37Jqdt3adupE7u3bStw24WzZ9i5eRO7T5/h3wsXWb1kCQ/u3i1UfFWVg7mMVcMb8FrTmgzbcIXvDtwrVj95Jvkf/5mLq40rvRv3KnaQQtmzt7Tn1RaD+O3wUuJTEyo6nDJzKkzBS78H42FnwpYxjfCwrd7lfke9O4Hzp05y48oVVv26mLHvf1imx5sz7Rs8TGR4mMgI9PPF0sqa2OhodDpdodobGRnhXa8eKqUSgIS4WEb170sDxxqMG/IKKpXq+TZSKT5+fqhUygK3XTh7lptXr9Kidi2ae7gTExXJnRvXS3DGVYPE0ICpPeowvbcX3x24z+RdtyjqzKZck/ztmDsE3TjKmE6jMTSsXh+Fq6PBLV9FKpGx6ezmig6lTJx5qKD7shAC3C1Z8brfC1EdskW79vg2bMisr77E1NwcF3f3Mj3ex9P+j/sZKu5nqDhy5Tot2rVHo1Zz8J9/itXfxlUr0el0HL12g21HjpY4Pr1eT5fevbNjvJ+honPPF+cGdGizmvw8yIdfToYzadfNIrXNNYNvD96Bi61LsYdKzv9xPrXs3HEyc8TJzBE3G1e6tu3Kwf0Hi9VfYY5z++at57b/NOsnnMwcaVavKY8ePip0vzu3/YWXoycfvTsp3/2mfDwFF0tndv1Z+BdaZUEuldPdvys7gv+iutWbuxGbzssrL9KitjW/Dq5f7Z6/52fUOxM4vHcPb3/4Ua7bpVIZWq2WyyHBZGZkkJSY9yc5AwMDNGo10ZGRT73QzUttLy9GvvMuX0x4hz07tqNITkKj0fDw/n0mvTmqwPYqpRK5sRyZTM7927cL3L8gjZo148Thw5w+GoRapSIhLhatVlvifquS3n72/DzIl8UnH/H9ofuFbieZNm3atGe/OfPvH2hbtw0BtZsUK5hWbVuRlpqGrZ0tx0KOM2b8m8THxTPti2mMe28cRtLSuRN7cpzgs8FIjCR06tIpe5tapeaDce+TokjhWMhxajoXfmauTz0fjGRSEuIT6N67R577vdTtJc6dOot/Y3/q1qvYGajmcjM2nd5C5/qdqk2Nm+RMDZ2XhuBkIWfpsOqf4H+dM5tf585h99YttOoQSJuOnYh8FM6wMWMJvRDCiD69SFUo2LP9T3r0649tjRrcuXmDGV98xpG9e0lLS2Pfzr/o0LUrS+bOYefmTZw4dIhGzZrh6ePLwd27mTf9W+xq2LP9jw1Z2w8fpnHz5rjW8nguno7de+Dg5MSi2bP4YepXLJg5gx0bN2Jta0u/Ia/x5Xvvcun8eUJDQvAPaMrHb43l6qWLtGzfnsbNWrBk7hx+n/cTxiYmHDtwAGMTE3Zt2UzImdOEhoRQr0FDPntnPKEXQmjX+SWWzJ2T57YmLVqiVquZPXUqC76fQWR4OF16v8z0zz996jxzO4/qxNveFDtTKV/vuUNDJ/PCLFBy/7kZr0npSQTOeomZQ6aXaNLT9KnTuX3zFis3rso60t37tGrYkjNXzuLuUXofPadPnU7YgzCCDh7h4u1LyI2zxklvWr+JY4ePsWndRi7dvYyDo0OR+l2yYAk3r9/gp8Xz8t1vaL/XeH3U67w8oE+xz6E06PV6Bs5/lY+6fsArzQdVaCyl5dW1lzl+P5m/xjfBvuotoCwIZWbq37fZdTmWsxOb42mX79D252e83ou9D4BHjdJLxAqFgnUr1+Hs6oyzqzMAo4aMxMUy6897/95LHYfazPq/rGFRX07+EiczR6Z98Q0NazfAv05Dzp0+l2f/o94aRWpKKn/9+Vf299auWMPYd8Y8t++KJctpVq8pno51GPzyqzx88N/MwaW/LKV5/Wa42bjy0/dzn2o374d5NKzdAB8XH36e/XOhzjuvYxX1/ArDwMCAWna1uBtXvDfwlc2GC9FsvxLHz6/4igQvCM/4qnsd3GyMGbvlWoEvYp9L8kkZWVOUrUysSxzInl17cDJzpG5Nb/b+vYfVm9dgZJT1qGb+7wuy9+veuztvjvsvIc+cOxOJRMKkzz8i+GYI7Tu2Z9f2vJ9713SuSY8+PVm9LOtTw4mjJ/Bv0ggb26eH2F0Kucjs6bNZuXEVIbcu4ORcky8++gKAkHMhzJw2g8UrfuVuzD3e+fC/4WjBZ4PZvvlP/j15gKPBR/nfbyu4f/d+vuee37GKen6FZWliSXK6osT9VLTkTA2T/77Fa02daOkh5mcIwrPkRobM6OvN8QfJrA6OzHff55K8WpM1qUZqVPJytj1e7kFUWjSfff05arUajzoeRe5DKpXi6+eLUvn8EKycxo4fw9lTZ7l+9Torlixn/MTxz+1z+sQZ2rRvQwP/BlhaWjL2nTGcPXkGgONBx+j4Ukeat2qOVCrNfuwDEHIumBvXbtDI0x//Og2JjorO9UVvYY9VnPMrDJmRFJXm+eFoVc38Yw9RavV80sWjokMRhEqrYU1zXmvqxNf77qHS5j3UtVzeZE34MGum3ucffFZmx2jVrjX1G9Tnu6++w9TMDFf3gidw6fV6nhRx1mp1yOS5PxbQ6/V069WNqLTo7F9denQtUnw5jyXkLVWlZeGJcEa2cMbqBRgqKQgl8W57N2JSVawPyXtGbLkkeZlcxvQfp7Pljy1sWp81I072ePjXpZCLZGZkkpSYWOLjjHlnLAf3HeDdD3Of+deqbUuOB50g9FIoCoWC5UtW0KZ9awD8m/hz+N8jXLl8heTkZC6FXMxu17hpE44dOcbJoydQq9TEx8UXOHwrv2NVd8HBwfz5559kFmKo3rO2h8aSqtTyRsuquU5BzkqStU3ltKhdi/kzpxd5uF8nfz+auBTtGhTUJmfVydyqNxZUlbIw3hzYHw8TGfVr2LB0/n+DFtYvX4afgx0Brs5cDw3NtW11qChZ3mpayulR345lZyPy3KdMkvyqZatY9utS9v+znz4vvQzAS9270L13dyaN/5DZ3/2AiakJ/V/tT+/OvenfvR/37txj+a/LuXzhElM+noJWq+Xt4W9x5fIVFs1dxMa1fxByLuSp4yycu4Cli39nYM+BXL5wiUFDBvHqsMH41vfl8oVL9OvWF4CXO/fm0cNHNGzsz6dffcIbr44gwLsJsdExzJgzE4BOXTrx2oghDOo5kMCmHYiNjmXbpm2cPHqCZi2b8e6HExg/ajw+rnX5vy+modPpmPrpVwQdCuLTDz7lxNETT8WW37EKe35V1fXr1xk4cCA1atRg9OjR7N+/v9BJbtPlGNp6WmNjUjVXv3pSSbJrnz7cSFSwaO06Vv7yC1vXrilSP2t27i7ysQtqk7PqZG7VG5+tSvls1crCWLFtOz369af3oFd464P/2g8bM5ZBrw/n71Nn8G3QINe21aWiZHnr19CBU2HJhCXlflP13BDKfaH7+WTT5+z7vHgz3YSKM337TIwlcn4c8kOFxrF+/XqGDx+OXq/HyMgIjUaDra0tw4cPZ+jQobRs2TLXxcl1ej12047yaVcPhjWrmnfyAD98NYXbN6+zdFNWgbEvJrxDeloa81euLnQf4Q8e0L9DO849yL9ufEnavNH3ZV4b/Sa9Bgx8bptOp6N9vbocv1H0iUynjwbx5qABnLv/EBNTUyBrctS0yZOYuWhxsWMScqfS6PCfdZKlA30ZHuD07ObCLRoiCMWl0WTVw05ISGDJkiW0bt0aZ2dnPvjgA4KDg5/a92ZcBgqlhoYuFhURaplRqVRIZTK+fO9dPExkrFv6O538/bhw9gyrfl1MWx8v/OxtGd67J+EPHmS3S0pMoFktN3xsLBkQ2P6phURyq/CYX5uCqk4+u/3ZqpXDe/fEw0TGa92z3kV9/u54vCxM+WvT8wvXtGzfgVq167D3rx3Z3/t399/0HzoMIN9zzim/KptPrmWbup54W5lTz86a7s2aEODmgpelGaP6982uu5Nb9cr42BgGdQqkrrUFzT3c84yhKpAZGVLP0SzPksQiyQvl5kmRqqioKJYsWULTpk3x9vZm2rRp3L59m7DErI+btatJ8TGVUsmJw4fY+9cOOvfsxcxFi5FIJDRu0YIZCxZx6fx55n33LUs3b+XU7Xs4Ojvz9aQPstubmpqxP+QCwQ8j8PHz46sPJmZvy63CY35tCqo6+ez2Z6tWLl6/ATNzc6bN+QmAL2Z+z4hx4+k7eEie/W1dtzb76+uXL9OibTsuhwTne8455Vdlc+aixcjkclZu38nV2AR6DRxEff9GBF25RtCV6xw7eIDoiIg8q1fu3raN2t7ehEbHsWzrNkzNS31t1XLlYWfC/cSMXLeJ4QvVzLFNRxm8dXCFxhAWFlbgPk8S/u3bt5kxYwbffvstdfwaY+DcnsxkH8wdijZDubLZv3MnPjaW2Ds68d5nn9Oz/4DsbW4eHvg1asz10FBatm9Pff9GQFZifL3nf2U0JBJJdnnhEePGM7hLVhJOiIvlo7FjOHfyBBlpadTy9CywTUlZWlkzaPgI1i1fync/L2D7hg0MfXNsnvv3G/Ias7+eSnRkJFKpER5eXgCcPX4833MuqhqODkhlMnz8/Lhz4wbmlpaYW1pibWOLUql8qnrlE3duXKdp69bZnwoGjxyFrV2NYsdQGVibGHEnJj3XbeJOXqhQOZ/NG0mlIJEiMar69x5d+/ThXrqSM/ceMP6jj3N9B/EsvV6f535ZBb+yHl0UtsJjzjalYfSEify1cSMZ6emEP3hA3fr189xXbmzMkFGj+XPDOoL+/TfPZ+z5nXNpyKt6ZX3/RhwKvYJ/QFMmjng9z8dYVYUeyOsqVv3/TcJT2g1uX2levObnyQtZb29vhg4dysiRI7mltqLnigsYmVqWU6QVq0W7dsyfMZ2rly7iVsuDVb8upmX79tnb9Xo9apUKZWYmKxYtpG2nrAJ8+VV4zKtNUeWsWmltY4Pc2JjaXl40bd2a76d8QfuXCp4nMmLceN4c0I/3Pv8CYxOTQp1zTjmrbHr71iMpMQE7+6J9wmvUrBk/fjOV00eDCGjZihRFMlY2toReCMHJ2YVhY98iMjyc0JAQ+rxasZ+ASyIpXY2NSe7pvMRJvm+XPpzJZSYnZA1L3LCj5CsWlccxhLInk8lQqVS4uLgwfPhwRo8ejY/Pf9U71XFZHzfvJmTQyLlqvnxdt/R3/rd4EWqVir5tW7Pl4GFk8qzZ01++9y5arZb+HdqxI+g4DRo3YdLUrxkzaACK5GSatmrND4/XTzWzMKe2tzeNXZzAwIA2gYHZI1P6vDKYP/63gnY+3vTo3597t26x5Kc5DBk1Os82334ymeMHD3D5/HnsHR3Zt/Mvjh88QGhwMLZ2dtlfP9nevG07/Bo1plPD+nw5cxbD3x4HwJiJ7/PFhHeYNjf/wn0ATs7O+Pj50bhZ8+zv5XfOT2J8ElOrDoH0eXUwAzt2oH5Df0zNzdm5ZTM9+vdn/fJlqJRKhvXoxvQFi1g463tUSiUt2rXn2IF/iYuJ5uO3xrDl4GHenvQRE98YQWqKgp79B/DDr79x58YN3ni5N+npadRr0JAFq9fmdRpVwv34DDrVscl1W4mHUM74egYfff4RMrmM99+aiIWVJd/O+halSsn82fP56ruvCh3olI+nMGPOjDI9RnVWGYdQSqVS1Go19vb2jBw5kqFDhxIQEJBrO70e7P4viMmdPRjeouoOoazOIsPD+XvbljJfqUooPKVGR6PvT7L8FV+GNSmDIZRTvp2CiakJEokEyPqYJ5PLsLCwKFLy1el07P17T5keozSoVWp2bd9VrsesivR6PZaWlowePZrDhw8TFRXFjz/+mGeCh6yqD4F1rDlws/ouY1hVXbt0iVSFgh+/mcorI96o6HCEHI7eTkKj0xPomfudfJm/eM2tRG9cbBx9XnoZd1s3/Os05OGDh7w5dDThYeE4mTkWeaWlvEr6fjLxY5zMHGnqG4CbjSu17T3o2DwQv1r1cbN2ZdiAYdljafMrQfzz7J9p4OGHm40rDTz8sl8UPel/1bJVtG3chuCzwfTu1As3a1d8XHxY/uuyIsWR23WpiurXr8+uXbuIi4vjt99+IzAwsNDLSA72d+TEvUTi00pesE0oPfOmf0tbH2869eiJtU31XEC9qvrrcgxtPaxwsZTnur1Mk3xeJXp3/bmTOl6e3I68w+rNazAzN2P2gh+RyWVEpUUXaQGO/Er6/rhwDjK5jPV/buBu9D36DOhLA/8GnAo9zanLpzl6KIioiKh8+7h35x4L5sxn54FdXHt4nfr+fkSER2T3L5FICGgewA/zZ6PX6/n70G4eJoWzcOlC1v5vbZHiyO26VEWNGzemd+/eSKVFL03Qz68GVsZGrDydf/lUoXz9vmkLFyOjq/TLyeooPEnJ3utxjG3unOc+ZZrk8yrR26xVc/bs2sMn73+CMjMTW7vi3xkUpqSvvYM9UllWSd8nj3lc3FywtrFGqVTm28eTRPXkTjRrqr7kqf7dPdxpF9gOjzoeDBswDG8nL0a/NgqVSl2kOErzulRVplIJH7R1Y+3ZCBLS1QU3EIQX2C9BYThbyhnSyDHPfZ5L8jKjrHK7T+rKl0ReJXob+Dfg5KWTNA5oxLiR49i+eXuJj5XzmCUt6ZuzD1d3Vwa/PoTA5h3wr9MQa2srhgx/Ldd2G1avR6/TcebqWf4+VPQCUyW9LkqNCrm06s8WndjWDTOphB/2V49VrgShLISEp7A5JJrp3eogleSd855L8tamWStCJT9eIaok8irRe+H8BVQqFSPGvMErQ1/l0oVLj8flaoiKjEKZWfiFL0qjpG9+faSkpHDj2g2uhV3nbsw9Vm5chamZaa79KJWqx+OXZdy9c7dIMQC5XpeiSMlQYGVS9ceYW8glzOvjzZYL0Ry7U/IS1GUlKiKChbOyKotmZmQwa8qXtK9XFy9LMxo7OzH+tcHcvn69gqPMW2mVRX5WYUoWF6es8CudO+JhIsv11xt9Xy5RzM/as2M7xw4eKNU+S1OGWsuXf90k0NM6txE1T3kuyde2rw3AvdiiFezp1bEnO7buYO2KNQwbkFWIKK8Svbdu3iKwWSC17T04evgoI94cga2dLQ0aNeKNROcAABe9SURBVKRNo9ZsWLOh0MfIr6Tvp+9/gkqpYlDPgZw5eYafZ81j68atbFq/iffGTCA2JpYPxr2fbx86nY7Y6Fhq23vgZOaIu60bY4a9iUaj4ZOJH6PVaukV2AuFQkH/V/px6cIlmtVryomg49y9fYdf5i0qdBy5XZfC0ul13I97kP33V9W90tCB15s4MWnbDaJSKt9L2JioSL6Y8E72UMKJb7zOvl1/sXD1Wq7FJbL3fAi29vYM6hRIZHh4BUebu9Iqi/xsSeJnSxbn2qYYZYWbt23Htfgk7qRm0P+1oYwYN56bSSmERsfh97hMQmnp0a8/xw4ceKrIWmXyze47xKSoWDrQt8B9nxsnD9B3wUBaeDbnrU7PL4T9oomKjOKXeYv4bvZ0IOvOvnu7bixZuQT/JqX7D6skbkTcZOLqD9gyYSPejl4VHU6pSFVpabnoHFIjA9aP9MdMLim4UTkZ+8oAXhkxkh79+nPt0iV6tmzGjqPHaZRj4g9At6aN6ditB19+P6uCIs1fScsil6QkcUnKCn84eiSW1tZ8O29+kdsWVkpyMl2a+LMv+AJW1rkPT6wIy0+GM3PfPf4a2YhevnYF7Z77OPmOPh04fvMEOn3e6wa+KA7uO0h8bDypqalkpGdwIugEimQF7h61Cm5cjoJuHKWmdc1qk+ABzGUSdo7yJzZFxfiN11BpKse/x9joKI7s30/Hbt0BuHDuLOaWls8leIB2nV/i7InjAHzz0Yd4mMiY/tmnNKvlRnMPd4JPn8reN7eSuDl9OXECnuYmDOoUiI+NJf07tOPerVv5ts+tvHF+npRFhtzLGT/bX8s6Hk+VJM6tpPHm1asI9PPF28qc5h7uea4MVdD55ye/UsjFuW4AFlZWNGgSwI4/Ks+M+u2XYpi57x5zensXJsEDeYyu6R/Ql4jECM7dPVeqAVZFPfv0JCkxiUae/vi41uXn2fP4bfXvWNtYV3Ro2TJVmey//C8DAvpVdCilro6tCX+PbkxoZApvbbhKhrpkz4tLQ/Dp09R0ccmux5KiSMbSyirXfa1sbFAkZ73f+r+ffkYikfD+l19y6vZd2nbqxO5tWc+k8yqJm9M3P85Fq9WyaO16gsMe4eXry/99Mjnf9s+WN87lgzvwfFlkyL2c8bP9zVi46KmSxM+WLL566SJfT/qAH39fxpWYeL79eT463fN/h4U5//zkVwq5ONftCW/fepw5fqzQcZSlbRei+WT7TT4NrMWH7dwK3S7X2jV17OvQybcjyw79j6a1myIxrDwfk8ubja0N67fn/o6gsth4ahNanZbBzV+p6FDKRGNnc/4d24ReKy4was0VlgytV6HLA8bHxmJm8V9tHStrG5KTch+okJSQkOvkISOpFB8/PyIfPQLIsyRurTp1nmtr7+iIkZERI8aNZ0TvXoVq/6S8cW5yK4ucXznjnP3FRkfl2ucTp48epXVgR1q0bQfwVMnlnIpy/rkpTCnk4lw3Mwtz4mNjCxVDWfrfqUdM33uXLzp58F23wl2TJ/IcJ/9xz4+ITIpgZ7CYwl+ZRSZFseXMVt7pNA4bs8rz3LC0BbhYcGhcANEpSgYuvcCt2NxrZ5eXnDc+TVu1Ji0lhZAzp5/b7+iBf2nepm2B/eVVEjc/apUqu9RHcdo/kVtZ5MKWMy74vHQYGhauzHJx43+isKWQi3rdyrIUckE0Wj1Tdt5ixt57zOrpVeQED/kkeVcbF0a0Gc6qY2sIi6+a0+urO41Ww9x/5uFi48qQFq9WdDhlrp6DGacnNMPVQs4ryy7y95WKucOq4eBAaooi+2svX1/6Dh7CR2Pf5MLZM2jU6uzRN/ExsYya8F6BfTZq1owThw9z+mgQapWKhLjYPIcyqpRK0lJSWPnLIlp16FDk9oWRXznjnHKWJFZmPr+QdPO27Th28CCH9vxDRno6aSkppCQnP7dfacSfsxRyi3bPly8uznVLVaRgW6NiFhSJSFby+qrL7Lwcy9YRDfm4g3ux+sl3xuv4Tm/jW9OHrzZ/Q1J6ycfNC6Xrl39/5U7UbX4YPBMjyYuxNICDuYz9bzVhRIATEzdf57MdN0lXle9z+iYtWhAVEYFK+d98jrlLl9Nv8Gu8P3IEvrZWdAtoQmJ8PNsOB+HknDXlfNrkSWi1Wia8Poxrly7x65w5bFmzmovnzhLQslV2SdxGzo7M+Pwz9LrcXzS39PSgmYcbyUlJfP34GXRe7XOWN342uT4pi3xw9276tm391Pn0eWUwoSEhtPPx5lTQkexyxs/2Z2NXI7sk8ebVq7LLBX/94QecCjpCwyYBfD17DtMmT8K/pgNDe3Qj8tGj7P2+mvgep4KOFOn8+3dox64tm1m/fBmj+vd9atuYie9zeO8eXur1/KeAoly3Jx7cvZP9qKk87bkWT+8lwaRmajg+oRl96xf/B02uQyhzSkxL5PXfR2JtZsX0V7/FTF4166lUN2uOrWPdifUsGDaP9nXL/x9hZbDjSixjt17HXC5hRh8v2uZRT7ssjH1lAMPGvFXkRwoloczMxMfGkrtpmYUu+Paiya0UcnGvW2ZGBp0a1mfPueByG0KZkK7m2913+Cs0lrEtnJnXxxtTaYneiRZcatjGzIZFw+cTq4jjwzWTiUzK/0WLULY0Wg1zd//MuhPrmfLyFy9sggfo52fP5UktaepiwRtrQvlsx81yq3czY+FiVv66mPS0tHI5Xk66PO5wX2SFKYVc1Ov28/Tv+HrOT+WS4PX6rNEz3X45T/DDFHaNbsRvA31LmuCBQhYoq2Nfm3Vvr8JUasIHqydx6vbzL5iEsheZFMUXG6dw7MZRFgybxyvNij6JpLpxspCxZXhDNr3ekBN3k3hp4Tn+d+oRGm2+H1BLzLFmTX5YvITf5/1UpsfJ6aMxowHo2aLpU49WhPxLIRfnuu3auoU2HTvmORqoNF18lMIryy7w2V+3GNrIkdCPWtLTp3Bj4AujwMc1OWWoMvhu50x2X/qH5rWbMb7L27jaupZaMELuMlWZbDj5B9vO/omLrSuzX/2+Wk16Ki3pai0/Hglj9uEH2JtLGd/enVebOGJUiNEdglDebsSk8/vxh/x1OZZ2HlbM61OXRjXNS/swh4uU5J84fz+YH3bP4XbMbVp5taRLg5cI8GiCiaz0VoZ/0en0Om5G3iLoehD7L/+LTq/nnU7jeK3l4Bd63kJh3E/MZMbB+6wJjsTZSs57Hdzp5+8gkr1QKVyPSmP+kQfsux6Pf01zpnWpU6IXqwUoXpKHx8v1XdnHlrPbCH4QAgbgZuuKnYUd5vJS/2n0wshUZaLIVPAgLowMVQYuNs70D+jH4OavZFcIFQrnXkIG3x96wGqR7IVK4FpUGgseJ/dGNS34pktt+tSrUdLK6AUpfpLPKTEtkXP3z3M75g5xKXEoMhQFNxJyZSIzwdLEktr2tWns5o+ng2fBjYR8PUjMZN6xMH4/HYG1sREDGjkyvEVNnK1yXy5NEEqLVqfn8K1EVp6O4MS9RPwczZn6kgeDGjiUdXJ/onSSvCBUBQ8SM/nt9CNWnIskMV1NFx9bhjd3pnVt6/L6Dye8ICIVKjaej2Lj+Uji0tX09LHj3dYudPO2K+9/ayLJCy8epUbHttBYlpx6xLH7SXjWMGFos5r0bWhPDTNZRYcnVFEanZ7jdxLZcD6KgzcTsDWVMqa5M2+1cKaWTYWt2CaSvPBiuxyVypJTj1gXEkW6WkeLWla83MCe7vXssDWtuCJoQtWg1ek5fT+Zv6/Esvd6PAlpatrXtuadVi4MaGCPTFLhk9ZEkhcEgEyNjn9vJbD5cgzbQ2PJ0Oho4mJBT78a9G1oj524wxce0+n1nH+o4J+rcewOjSMmVUU9BzNe9XdgaGNH6tbIfXnQCiKSvCA8K02lZde1ODZdimHPjXh0emjhYUUHL2s6eNpS16FS/ScWykFypobjd5M4ciuBoFuJRKeqaOBkzhB/B171d8C7ciX2nESSF4T8KJQadl2NY9f1eP69lUB8uhpnS2Pae1nTwcuGtrWtsTR5MYrDvUi0Oj2XI1MJup3A0VtJXIhIwQBo4WZJTx87BjSwp55DlajjJZK8IBSWTq/nXHgK+24msPdmPKcfZg0VDnCxoGVtawLcLGjiZomVsUj6VY1Gp+d6dBrBYQrOhik4cS+JxHQ1rlbG9PCxpXtdOzp72mBd9X6giyQvCMWVmKHh4O0E9t5M4Oj9JG7GpmNgAN41TGniZklTN0uauFlSx85EDNGsZJIzNYQ8VBD8MIXzDxVcepRCmkqLlYkRrd2t6OJlQ3cfO+pXjbv1/IgkLwilJS5NzamwZE48SObkg2TOhivIUOuwMZXS2NWCeo7m1HMyw9fRDA9bYyRi5m25SEhXcy0qlevRaVyLTif0UQq34tLR66GuvSmt3a1o62FFK3cr6jmYYli9fiKLJC8IZUWt1RMSkcKpsGROhSm4FJnKrbh0NDo9xlJDfBxMqeuQlfR9Hc3wcTQTwzZLQKXRcScug+vRadyITuPa499jUlVA1oIzDWua09zVgtbuWUm9hlm1v94iyQtCeVJr9dyMSyf4UQpXo9MIjUnjfLiC6JSsRCQ3MqSWjTFe9qa425jgZmuMu40cNxsTXKzkL/zdv1Kj40FCJrfj0glLzOBhQiZhiUrCEzMIT1ai1emRSgzwsjPFz9GM+o5mNHWxoKmrJTUtXshhsCLJC0JlEKFQciU6jTvxGVm/EjK4m5DB3fgM0h4vbygzMsTNWo6zlTH25lLszeU4WEixN5fhYCGjhpkMR0sZZrKqV6VUo9UTl64mOkVJXIqamFQVMSlK4tKyvheboiYsMZPEx4vCSAwNcLGSU8fWBC87EzztTPC0NaGuvSm+9mZIJS/2D8McRJIXhMouKkWVlfTjsxJ/WFImMakqIhQqolKUxKap0er++29sIpXgaCHFykSKudwIS2MJ5nIJFnIjLIyNMJcbYv74z5ZyCSYyCTKjrJmZhgZgIf9vBImpzBBpHrM2FRkanhxVqdGRqdHl2KYmQ6UnRakhVakhVaklJVNLslJDSmbW12lKLSlKDfGpamLTVE/1bSk3oqalDAdzGa5WchzNZdSxzUrmdexM8LAxrgyzSasCkeQFoarT6fVEp6qJTlERmaIkJlXFo2QlSZkaFJkaEjM0j5OrluRMDYrHf1YoNWUem9zIEAu5BEtjI6yNjbAyMcJKboTl4x8wVsZGOJrLcLaU42Aho6aFjJoWckykIoGXEpHkBeFFlpihIUWpQfP4k4Baqyf18eMhgJRMDdrHKUKv56mhoOZyo+za/FJDA8zl/z0mspQbYSGXIDcSybqCHa5yI/sFQSg9NiZG2FS9CT5CEYgfs4IgCNWYSPKCIAjVmEjygiAI1ZhI8oIgCNWYSPKCIAjVmHitLlQK285vZ/7+hSSlJwFgaGCIrbkt7bzb8mHXidiY2fDJxs/49+pBhrcZxuTukyokzvGr3uVKxDXSVenUMLejo28g73eZiJm80i4aIbzgRJIXKoWBTfvj51KPwYuHMW/oXFp5tuByeChfbfuGW9G3WT9uNT8O+YExK96u0DiNJEZsnbARGzMbbkTeZMLa99FoNUztO6VC4xKEvIjHNUKlZCozpWWdFoxsO4Irj67wMCG8okMCYNHwBThYOiCVSGng6kfneh05e+98RYclCHkSd/JCpeZk5QhAfGo8brauAIQnPOKLLVM4fusEUiMZ0/p9Tfu6bQFYfXwtq0+sJTE9EXvzGnzUYxLd/LoAsCxoBetObiBNmYqjlRMrxyzHztyW8MRHTN85k0sPL2NlYsXbHccwIKB/oeLT6rSYG5tnf/3LgV/ZefFvtr23CVOZeIQjVDxxJy9UamHxDwFwsXHO/p6tuS3f9JvKvo//oZGbP78eWpK9LVoRzeI3FnJiylG6NujCT3t/BuBqxDVWH1/DunGrOPL5QTrX64hSk4lOp2P8qndxt3Vj/8f/8HXfKfzfjumEhl/JN640ZTonbp/k0PUjjGr3Rvb3dXod6PWIYiFCZSGSvFAppSnTOXrzGKtPrKWrXxfsLeyzt5nKTDCWGmMsNaaNV2uik6Ozt33SczJ1Hb2RG8nwd21IQmo8AIlpiWRqlGh0WkxkJkzq9gHO1s5cfhTKw4RwxnZ4EzO5Ga29WuFm68apu6fzjG3b+e20mdGeSRs+ZnjrYXT27Zi9bWKXCeyZ/Ld4EStUGuJxjVDpTNowOXt0TTe/LnzQdWKe+xoaGKLnv9vmlcdWs/X8n8QoYlBqlEglWSv/BNRqgoddLQYufJVOvoEMb/M6jdz8iUiKAKDrnJ5P9avIUOR5zIFN+9PLvwcP4sNYsH8RbywbzaqxK7KPJQiViUjyQqUzb+hcOtfrWOR25+6d5+f9C/hx8CzaeLXm+K0TTNn2NQAmMhPWjVvNv1cPsO38dkYue5OFr8/PTswnpgRhJi/8os3GUmN8nOryWe9P6PNzf87cPUtb7zZFjlkQypp4XCNUG3dj72FvYU9Xvy6Yyc0weGZBZqlESs+GPVg6agmtPVtx6Nohalo5ZbctDp1OV/BOglCBRJIXqg17yxokpiVyN/YeyRkKrkZcy962/8q/bDyzmQxVBknpySg1SpysnKjvXJ/aNTyYs+cnIpIi0Ol0xKbEkqZMf67/0PArzP5nDooMBVqdlrCEh8zbNx9HS0cauzcCskbX9PjpZdJVz7cXhIogHtcIlcLBa4eZvnMGAFO2TsXPpT7LRv/21D6LDiwmOCyEy49CqWXrjqutK/P2zUeRoeDLrVOZ1m8qrb1a8dqS1/Gwq0WX+i+h0qgYv3oC4zu+zfz9C5n9zxxMZaa09mzF662HYWBgwMLh85m241v6LxiE1EhGG6/WfN7r0+dentpZ2HHy9in+PL+DTE0mtqY2NHZvzG+jFhfpUY8glCexMpQgCEL1dVg8rhEEQajGRJIXBEGoxkSSFwRBqMZEkhcEQajGRJIXBEGoxkSSFyrE4etH6PJjDxp93ZSW37Vlxq7vC932n8t76PlTH5p/mzWrVRCEvIkhlEKFSUpPInDWS3ze+1OGthxSqDaKDAVdfuzO76OWkKpMJUOVQdfHpYQFQXjOYTEZSqhSwuIfotSo8HSog4WxRUWHIwiVnkjyQqWx9MhyFh9aQje/rkgMDDl66zjGUmO+GzCNVp4t2XflX2bumgVAu5kdAQiedobI5KhcF/1Y+O8vrDi6ktHtR2IqM2XruT/5edhczORmue5f0PEBEtIS+PGfuZy7H0xiWiI2ZjZ83GMS3Rt0K9HiI4JQVkSSFyqNtwLHcOrOacyNzfmkx0fo9Do+3vgZSw7/TivPlnTz64K9eQ1GLR/DsS8PY2Fskb3oRxuv1swdMptLDy/zzpr38HbwZmKXCVwIu0ho+BXGdXwLmUSGVqfNc/+Cjg/w4frJaPValr/5O44WDuy7sp/YlLh842jg6lfBV1Z4kYkXr0Kl82RREFOZKe282xKdHJPnvoVZ9MOnZl2aegTwRtvhqLXqAvfP6/hXI65x8eElJnX7AHdbN+RSOb39e9HJN7BYi48IQnkQd/JCpWZgYPDUoiDPKuqiH0XdP+fx7z0uR+zt6J293dDQEBcbFy6FXy5Sv4JQXkSSF6q0oi76UdxFQgBkRjIAjAyf/29Tkn4FoSyJxzVClVbURT9KskiIu50bADeibpRqv4JQlkSSF6q0oiz6UZz9c/Jx8qGRmz8zd80iNPwKSo2KNGUaUcnRJepXEMqSZNq0adMqOgjhxRN04yjvrfuQNGUa5x8EE5cSx/WoG/x1YSfXIq9jY2pNfFoiM/+eRUJqAjGKGOwtavDxxs9JU6bxz6U9SCRGNHRtQFvvtgTdPMqC/QtZdWItYQkPaeXZkhVH/8fuy/9wNeIajxIj6OQbiIGBQZ77rz+1Id/jd/QNpFO9jlyJuMbiQ0v4/fAygm4cxcvRk1o1auXZr6nMpKIvt/Diui9mvAqCIFRfYtEQQRCE6kwkeUEQhGpMJHlBEIRqTCR5QRCEakwkeUEQhGpMJHlBEIRqTCR5QRCEakwkeUEQhGpMJHlBEIRqTCR5QRCEakwkeUEQhGpMJHlBEIRqTCR5QRCEakwkeUEQhGrs/wFBWbI0+0mUXwAAAABJRU5ErkJggg==;" vertex="1" parent="1">
          <mxGeometry x="1030" y="840" width="1162.18" height="410" as="geometry" />
        </mxCell>
        <mxCell id="DSl8sD201AtZQCHesUCh-62" value="" style="shape=image;verticalLabelPosition=bottom;labelBackgroundColor=default;verticalAlign=top;aspect=fixed;imageAspect=0;image=data:image/png,iVBORw0KGgoAAAANSUhEUgAAAU0AAABoCAIAAAD6hDWiAAAABmJLR0QA/wD/AP+gvaeTAAAfLklEQVR4nO2dd1wUx9vAZ7Ydd/QmglIUsItdFMUWBOwoKrGbWBNrLDFRo9FXDbbE3o1oNHZRVGxYwQI2FLuiKChKb3LcbXv/OH8E7o4rcMfBOd8Pf7Czz8w8c/M8d7uz+zwDeZ4HCATCqMEMrQACgdA7yM8RCOMH+TkCYfwQ5azHSLi0x/znNCDJ16k+xgUhgEJrWKMxFNoYWhU9wouz+LTHvDgbMBJD62K8VMyWtPNzXpzNxu9hnoRz764DjilHf18n0M6TqN8Xb/kdVqOxoXXRGVzaY+be3+zzk3zGS0Pr8hVRPluCmq6304V09Ao6ZiXEMNzTH6vTGXNoAs1rQsq0nPp+DTBSXpzFpT/n3t1kXpzls5PwBn2pHquhjYehNasQfNYr6ZmZ7LMIaO1G1AvEXNpj9vWh0AYQlKFVM14qZksa+Tn7JFwaOQ0U5RA+k4nmw5FvlweeZ19fpa/+wWUnkT4/kV0XAsLE0DppD1NEX15E3/gLs3YjO/+K1+0MIDS0Tl8f2tuSOj/neTpqHh0dSjQZSHaeA03tdKnuVwjHMPH76Gt/whqNBMOOQ9MahlZIC/jPaZJ9QXzaE7LTDKL5MICVd3EHoRO0sSWVfk6LJUdHsM9OUgF/EE2Dda/o1wqXmSg5OgbwvGDE6epyx86lPZb80wtAKAjeidm6G1odxBc0tKWy/ZznJAcHc4kXBcHbsNpt9aXm1wovzpYcG8/nJptMiIOWzoZWRw18bnLR1rbQ0lkwYBsUWhtaHUQpNLGlMv2cvjCXvr5KMHgP7tJen0p+vfDSz5K9wYAQmIyNAZSZodUpG7qwaGdnUJQrGHEUCiwMrQ1CCWptSfl7MuyTY3R0KBUQipxcf0DKVDBwB5/7XnJivKF1UYXk+Fg+O0kweBdy8iqLWltS5ud0oTRyOtFkELon1zfQojbVcyX7cD/75oqhdVEO++YK+3A/1XMltKhtaF0QqlBtS0r8nI5eDoqyyU6z9K4aAgDcvSvu/g19alJVfO+IY+nIqbinH+7e1dCqINSjwpbk/ZwXZ9MxqwifKdCsOj3yqdZQ38znMl8yCQcMrYg8TMJ+Lv0Z1XWeoRVBaEpZtiTv52z8HohhRPPh+lBi2aqNQvv60Nzt2YvEkuX/t3wdNHdza9zhXfIHpRWnzv6dsHI/cjxS8VTrTn2uRN9SLOc47q8NO73aBQrt6wtsPZ08237/w2zVTRkKaF0H9/Rnbm81tCLyMHGbcU9/aF2ngu107D4QmrvJ/QX2H6m2YlmTq5bD4actHBuPnTSnZOGntIx6zbsKbD3tXFuMHD9DLC4CJWwSmruJajRo0LLb6Ikzk96lyDU4ZdZC0tpDYOs5b9FKWcmYH38mrT08m3XJzMouKVnc4NWYWFnJ8LHTCSv3es275uTmlWMsWlGWLcn7OfMkHPf019Mbb3NnTZr2w/cEQWzb9W9xoVRK79h9AABw69JxF2cnpRXXrfzdr2uH4sOps38v/v/OtZNdfNspVpk047e/Nu5YPH/Gh5dxWckPzp/4B8dxxaaqCETjIO7dDb7gk6EV+Q++4COXfIto3L/iTfn6tPn86SmTkzgsJOjHcSOKMl7kfnjUvKn6FwfKmly1DOrfa8Ev0+QKxUVFgwf0yklJuBdz+vbdBxu37QH/s8l+vbrz+UlvHsWsWPLrvfjH3l36pbxPLVl3/apFIcG9x40esnThbFnJzk0rQoJ7J8Ses7Up9aBR1qB7HdcpsxayLAsA2LtjTVBv/xfxl60slS9klrTniqPUlkr7OVPEJd/A6nTWYa+KDOgbuHvf0aKiL7FNB45EdO2kxao+x3ERkRdUy7xOerf173/37Vwb1Nvf2srSVCRq0qj+9g2h5Vdaz+CuHQGGc1VpNY57cwVgOO6qg+/EPxbNEYmEsu9ZCKFAQFmYm4UunqO2YkXAMPnfMDeX2ksWzBIKTVycnTp18E758FFOwKGGXd+e3aNO7uN5fvX67RXpffOaJW+Skjfv2KtWUhN71gqltlTqs+DSnwKWxhz0+4bWD2OH5+UXHA4/LTvctmv/lAmji88GfTuOsHIHAEREXjBzaDR/8Sq56gOGTnj77j00dztyPHL9ljDS2uPAkZNyMteux5mbmfr6qH+9p323/pSNh41zs/VbwgAAaemZHfyCTezqOXq0SXqXIndY/jGrhRRiNu7cpwQ9dqEl3MeHmI07IIX662LC1LnQ3G3Lzn31W3SNvRMvNxclJ3fKrIXQ3G3m3CU13Vs7erS5GXdP1sKSFetrure2cW62dOUGWcnaTX/XadxRYOu5OHSt0k4Zhnn2IvFqzK1+vborFahhbztkUL+Ym3cqMrQ6bs5/hs5fsOTPjMwsuVNyOpe054r0+B/KbKmUn/P5qQAAzMJRN/2VQe1aNYN6+2/ZuQ8AcCX6VqsWTW1t/7vyCdu6WvZP357dJ08YpVh9y9plAgHF5ycNDOo5ZeLob7r4KMpkZmZbWWn0sPfmpXBp1qvd21ZvDzsAADhyPLKeR53c948iDu4wMxXJHZZjsJoDzWvKPv8qAp+fCs1r6rWLreuW4Tju3br55jVLeZ6Xm4uSk7t+1SIcx3+bMzX52a1vunSQuUTsnfgDR07evx755E7Uxm17Et+8jbv7YO6ilfv+Xlvw8emsacqfJHs069zUO6BPTz9fnzZlKeZQwy4np6L30uNGD2nv3XLu7ytLFirqXNKeK9hjMYq2VPraRvoZAAAI/Ro0AGDKxNE3Yu8+evJ8w9bdMyaP1Umb8xevkq2meHh1trKy+PgpneM41VXSM7J6Bo+2dGrSf8gEqVQKAPDxbnXi9IWJ0+YWSSR2tjZyhzrRs0xIES8t0G8X2sDThYDUuyUAAOq4OXfr7ONex1VuLpRCkkSTRvUlEikAIO5O/OOnL5w82zp6tEn9mPbsReLlazf8u/n6eLciScJEIFDawsv4q4kPr2VmZn87ekpZvXz8lG5rY6X5EEraXsnyHRuWHz917u79/35aFXXWvBctULAluXsYHgBQCZGGnTq09WrSYM6CUDMzkatLLZ20uWTBLD4/ic9PevXwaqcObWmaOX3ukuoqf/9zkOO414+ib148Jitp7tXoRfzl1i29vh095cCRk3KHOtGzTCD88vlXFfjKjDlVnAu18Dzfp4efbNL5/KReAd1YlhMI1MTAkyTh4uw0YcywsxeuKhVgWTby3GXfDvI3fTbWVmnpmSVL8vIKTEwEoLTtlRRwrFlj/arFk2cuKH67XFFnDQerHQq2ZLD8cFMmjj5z/sqsqfIXVxRJsix7936CWFyUlZ2jWBFCSNPMh9RPxSt5ini615k8YdT4Kb8eizibk5vHMMybt8kjxv0kJyaRSE0EAoGAepmYJCu5ffeBVEpP+H7oiG8H3It/JHdYoQFXDSQSSWZmpnq5SkdxLtTSplWzS1dvXI2JlUrp9IwslmVbNW96/mL0g4SnObl5d+PlFzv2HgiPiLxA00xmVvaOsAPNmjYsPsWyHMMwNM08ff5q6PfT8gsKfpo0Rq56oF/nk2eirt+6AwDgeX7/4QiRSH0GgZDg3m6utS9cii5LZ03sWQfwJWASDn6eD4q/bHT+98eiOSYmgtq1HO9GnypMezZqWDCfn3Q3+pRzbUcAQB1X57dPbvD5Sd8O7ENRZJtWzbp2am9hbnY3+tS0H7/HcdzO1uZy5AEmJ7FVi6amItGmv5bIym1trC9HHlDsbu+ONV5NGggEFI7jDjXsegV04/OTSjb17N4l59qOtjbW40YPgRAu/79f9mz709rKkqLI1i29Xj64Ineov0+Gz08q2tur6MAgXs8kJycTBBEYGLh37978/HwVkkUHBhXt7aXDAXq3bk4QBEkSPfy7yErGfzcUAFDfs27O+wTFuSg5uVMmjgYAdO/mG3/jjJWlhalIFHvlBJ+f9Pvc6Y41a5iKRCOHBkuzXvH5ST9NHmNjbeXk6NC1U3uh0OTKmYPFClw5c9C5tiNJEpYW5j0DuiYmXOPzk1Yvm29rY02SBIQQw7Aa9rZDB/eTnVL8274htHHDerVrOTo5OoQE9057c0+1kctKMt/FOzk6FAvI6VzSnvVnS6Xi1dhHhyQHQ0RzkvT4vYIoA8mJSYAQCUIO6bWXlJQUZ2dnDMN4nqcoql+/fsOGDQsMDKQo+ctdycHBgCkU9NuoV30Q+kDRllBe568RjuN4npdIJOHh4UFBQTY2NiNGjDh58iTDVL137BG6APn5Vw1N0zzPf/78+dChQ3379rWzs5swYUJMTAyPduMyLlCKryrE7VdZqYcP67WLshbhZI+ycnNzd+3atW3bNhcXl+GtzQa3s2+mV20QlQXy8yrExjMvD8wfbFgdaJoGALx7927ZO3AiznxF3cs9A1BQarUH+XkVImyK9/6Yt3rtQrYOV9ZZiqKkUqmDg0NISEiQTYKPh0iAnNwo0Pr+vBoF9+kvHLLc8ZJVE4IgAAAWFhYhISEXLlxITU1du3atTwNNc3i///BxyYr1lRZ0XNwRZlHHybPt4tC1srAwzVExfZqHLYvFRXN+C63bxJey8bB1aR48bOLT56+0UkNbjkWcjbocU766Wvt5NQru0184ZLnjJasUBEFACEUiUUhISEREREZGxp49e/z8/KA2r8GlfkwbP/XXGZPHVlrQcbGxidOfH9y9Yd3msN3/HlWrpyaxzIrKqODb0VNOnD6/P2x9wcenCbHn7O1sOvgFJ6eoilAoX/xpca0BfQMvXIoJP3muHI1o7efVKLjPIOGQckil9NETZyqzRw0hSbJ3795HjhzJzMzcu3dvnz59SJIsRzsTps4dMzJEJPoS1lYJQcfFCASUr0/bAX0DL165rsNmNeFBwtOIyAt7tv/l3bo5RZFOjg5b1i5zcnRYt2WXbnWQqzV39qTJMxdk5+Rq2045n6tV6+C+CoZDahIvuXTlBoe6rQS2ng51W2n186hvMAwLCAgICwvLyMgIDw8fMGCAiUn5t3/6+Cn93MWrPbp3KS6phKBjOaS0lCJJoBBiXHKWa9XzLqvZXXsPe3h1Fth6Onq0SXj8TK5xxbhXGXF34y3Mzdq2KvU4wq9rx5gbt8saZsmhTZw2l7By7+AXLLSv365r0ItXbzSpBQCwtDBv2azJv4dOqP5MFCmnn1fr4L4KhkOqFXj1OumPVZuuRx3NeBvfrGnD5BTl96UGwcnJ6ezZs6NGjbKw0EGS5ptx92o7OQqF/31TVELQcTESifTS1RvhEed6BXYDCiHGJWd585qlSpuNf/hk8swFu7aszPvweMPqxSxbKsBR0cyKT+Xm5isGPttYW8oWj5QOs+TQ1ixfyLLswd0b0t7ca1jfY/qcRZrUkpU0auAZfSNOxceilHL6uREE95U7HFKtAEmQ4H/5THiel61yGSXpGZnm5vIpxvQddCwrOXH6gtC+/vCx0+f9PDm4Xw/FEGMZsllu16aF0mavXY/t6tve16etQEAF9+vR3KtRybMqzMza2jI7W/7iOTMrx8ZaC4Ov6WBvbmb647gRN2PvaV7L3NxULmxOE0r7uWxnPE796qXRBPeVIxxSLa4utUYNC27S1t/RvY21leXo4QM1qsYxAOK60kEHQFwTS5Atf5RE30HHspJ+vbpzeW8+vIz7efpECGH55pHjeMX0UsWoMDMf71b5BZ9v3b5fUv7CpeiO7cu8vC0LKU0rfoaqUX8nqGBLpQdpYgkA4KX5KlowsuC+coRDqiUvv+Dx0xcZSfcLPj05fmC7qUizbA2SfGiixa+BvoEmlkCiyhIAADXs7fLylOTG0GvQsVJUz2NZzfr6tIm6EhN57nJhoTi/4HNuXqnxKppZ8amG9T2GDOo7avyM2DvxNM2kfkwbP+XXtPTMqT+MLmuYijpIpNL8gs/rNofJFv81rJWXV2Bvpy7liaItlQxe47ISP88H7PNwFSFv1S64T+fhkGoFslMeNqj3ZUdRgYAa0DeQzn6lNpawcHlNafQKnQWgVhjptdDC5Y6qdU59dVsoNCnKeMFXYtDx5jVLhUITHMdbt/SSdc3nJynOY8lZVtHslrXL3Ou4ykKPH8WdL6mMopmVVEOS+XLhr9PrurkQBGFjbTWgb+Dz+5eLzyoOs6QO4vTnAABLC3ORSNi9m2/ys5ua1JLJDOgbuGH1Ym1tqfQ+ijwv/sOGbD+FaCP/O4zQnA+pn1as2bpm+QIAQF5+QWvfPvt3rWvVoqmKKnx+qnhTe8HoC7i7X2WpqQY2MUoS1l34401oripfYN/BYyeMGaqvvChGSlGRRGhfn819reKuQSlicVG9Fl0f3jprbWVZloxSWyrdDYSYRyD76qKWaiNKcebClfSMzPyCz4WF4ivRN3Pz8uq4qdn5mH0VBShT3NW3cjTUBNy1I6BM1RrDlrVL128J+1xYWDlaGRNq8xcq8vuyNWuWL1Dh5KAMW5L/OiG8hrDJN/mcJG01QBQT1Ns/KzvHyaOtjUuzpSs2HAjboHYZlnlwkGgUDAjlqQsNA2FCNBrAPDyoWsrJ0WH7+uUr12yrHKWMg5HjZwAAmrXvoeIJjiKHjp3q1tknuF8P1WJKbUlh/3OOFa+tj9dsQvVRnv4aoXPYF+ckxyeaTIjFamm9WqtXuPe3i7Z6C4K24PUCDK0LQiPKsiWF2wMMp3r8yTyN4JK1fhaPKA+MVHo1lGg2vKo5OQAAq9WG8BomvbwMMPpMUYjQFWXbkpJlALxBX9y9u/TiIjS7lQB9cz1fkE76V9E9ociA5XxhJn1zg3pRhKFRYUvKl/uoPhv5vA+SMz8DlD9In7DPI+mbG6nAldBceSyXwYHmTlTgSvrmRvZ5FdphFqGIaltS7ufQxoP69jD7PJK+ju7S9QWX+kByeibhPYloM9HQuqiCaDOR8J4kOT2TS31gaF0QylFrSwrrcCVg7myXRkwg2oyhOv8KsKr0Smb1h028Ij05BXP1FQyLqAafLcdK9vXl3kZTfdbj7l0MrQ2iFJrYkqrH9ETrcYKB+5h7eyXhE6rU1l/VG55n7uySHBuDNwoWDA2vBk4OAMBwwdBwvFGw5NgY5s4udDdXVdDYllT9nsvgkm9K/g0CAJKdfiaaDKjMPbeMD+7TE+nFRVzKbdJvKdnpF0OrozX0tVA6ah5Wuw31zULMoZH6Cgi9oZUtqfdzAAAvzqKjfmPubMVqNiXbjMU9AwBentwjXzNc6kPm3h7mSThW25vqtQ5zamVojcoJ9+Gu9PRULiWWaNSfaDkSc/QytEZfHeWwJY38/EvrHx/Slxawz09BUoi5+GAOjaC5I6TMKqazMcMzRaAwm8t4zr67xecmYw6NCd9fCK9h1f6aiOeZh/uYa39waU+gpTPu0g6zbwCE1rBKvc9nXFTQlrTw8y/95aWwzyLY15e4jw9AQRovqWjGGGOGMIFCK6xGY8y5PV6/D1ZbPhq/usOlxLHPT3LJN7m0x7w4BzBFhtbIeKmYLWnt5wgEotqB9ldDIIwf5OcIhPGD/ByBMH6QnyMQxg/ycwTC+DHa1OLGBHN3B33+V74wAwAAIAbNHHDPHqR/KDS1lxwczD4+Svr8RAbK722iKyR/d+M+PeQl+dCiFtFkMNntd0CUfwsXhEFAfl4NIFqNxZxaF21qIRgajrv7sSmx0qOjuE8JJhPjBCGHinZ20XP3ApPJD6HIjnt/W/JPL56jqcDV+u0RoWvQdXt1gzLD635DdpjFvb/NZ5VnIxptEYw8A82dAE5hLh3whv3Z56cqoVOEbkF+Xi2Bls4AAL7gk+yQy34tPTxMvMxWvMKJffElIQR9fbV4Ra3C3ynxKlf20eEvhVeXiUMdChcJxWvqyarz2a8luwPESyzFq+swd3eq6xhC+MVm6Iu/iVe7ARTIWB1Afl4t4TJfAgCgtZvsEJrWoIK2C2cnY87t6UsLZYV8Xopg5BnR/DyiySDpudkAAO7DXeb6apOJsaJfM4iGQYARA44tCvOHNh4ms5OpflulJ8ZxKaryAnIZLzCX/20PznOyXT70NkqEzkB+Xs3gJfns89PMjT/xxgOLMwRBygyQIkCKcM8APjdFVkj1+Aur6QUIE8y53Zef7s/pPCMGHAMoUzJgBbRy497H8VmJZOe5UGCBe/hDGw82MaqsrrmM51zqfaLDLNkh6bdUOOstFJjrecQIHYDW4aoTkn/7f1lvbzyI9P9DiQTEAPjyA0vHrGTubOfz3gNGDHAKAIC7+mK29cTrGuMN+5E+P2HO7fnsJACAeGXt/1ooylbeNyuVHh9H9dmE2TfQ7aAQlQDy8+qEYGg43jBIE0n2zRX6/BxByCHMw597eVZydCQAAFCmJhPj2MdHmbs7irZ3EAw/JfN/4fxcKFC5HTrHSo6NJryGEC2UbFqOqPqg63bjhE9/Cs2d8MYDocACwBKzjFO41xDBdxdxd3/26XFo5SITVtUWx0iPjsTr9SLa/qBnrRH6Avm5cQLNnfjP6Vz6U16cxb2/IytkHx9h4jYB6We+MJNnxNDSGXNqjdk3kJ6ZweckAY7l8z/wcnshMxLJ4WF402+JZsPkukDr7dUIdN1eDWCfHpdGTAQASI6MwGu1EXx/qfgUHTWfexfDvY+Dtp7Qxp0+9zMvzpYeGUEF7cA9/Is2t8Js6+GNgwEjkewOILsukJ7/RRo5HVJmmIc/0X46gFAw/JT0+Fjx2oaQEGAeAVSvdaDE0hqbGMU+OsQ+OlRSH+HMN9DKrbJGj9ABKM8EAmH8oOt2BML4QX6OQBg/yM8RCOMH+TkCYfwgP0cgjB/k5wiE8YOen+uX4lQwmEMTk8kJ8mdv/CU9MwOQIqLFKKrPJrWt0dHLmatLASkSzvmoXODSQvr6aiiyE85MKlku2dubfX5aaRWy8zzSb4n6rs/PYZNvmYy5WkEZhEFAfq5fvqSC2dyS+/SI+3BXbiss5s52AAAVsJzwnqxJa6TvHCiypaPmlynQbRE0tadj5HNIQaGtcF4OpEwBRohXu+EuHagBuwBLc1mJcu/AIIwS5OeVAV6nK5t0lbkXRpXwc/b1JWjrAVS/W66E8uzNRgXvLt0GBDgFcAqr6YXV1GgjRNJ/udqtMzWRKQXHMPF7cLdO0MZDq3oIbUF+XhlAS2e8QV82YT/osVoWIgYAYG5vJTvMZJ+dLBbjc95KT01m31yBpBBz60T1Wg/NHQEAfMEn6YnxbGIU4DkosCjeOo/Pfi2N+IFLvgWENmSX+USrMeXQjY6aR18LJX3nAMqMubNdMOw4mxjFXP+TL0yHZo5U4Cq8ySD28VHp8TGAMhPOTqGvLqUvLcQbD4IYzr6IBKSIGhCGu/tpIgMA4NIe06ence9v8zwHKVO80QCi5fcV/XwR6kDrcJUE4T2JL8wsTq7GF3wCrBTWaFxSRnIwBEBM+NNLkx/uAHGO5N/+X8r39uYLM4VTn4h+y/9vp2stU8GUBem3FHP15VLicNeORLvJgOcVE9HgjYNJ/9Av8p3nYS4doYkl1W+bcNY7zKEpfXmRhjIAAOnhocCshsnsZOHUJ1BkBxhJOXRGaAvy80oCr/sNZt+QuR8mO2Tu7iB9ppcU4FLvcymxpN8SaFYTWrqQ3ZdxKbFc6n3u/R3u/R0qYAW0cgUYURxkolUqGLVgjs0xt05kh5mYY3PFRDSKfMlgQ5nhnj2KM9iol+EY7lMC0aAfFFhAS2fMtSOX9arcOiM0B123Vx6E94/SyJ/4z2lQZMelxpOd531JyQ4AAECWvBWzris7hPYNZIU8KwUAYDWbybWmRSoYLVFMRKMK7L8MNuplMAJauTHPTmD1eoCiXC7pKuYRoBOdEapBfl554M1HwQtz2Qf7oK0n0WRwGVL/8xmeAwAAAAErBQAAXGGFS8NUMFqiPBGN7hAM/Eeyp6f4DzsosMTr9SC/Wazb9hFKQX5eeUCBOd5sBHM/DHPrTPX4S/6sjQcAgMt6LVsA59OfAQCgrQcozAAAcJkvsdI388WpYGBtbx0qWZyIBgBQKhGNblrnmdhNZPelGj5HROgKdH9eqRDek7iPDzH7BgDD5U5hjs0x53b0xd/4go98bjIdNQ9zbofVbIa7doIWtemzs2TlxSt56lPBlAuliWh0BoSAMJGemlL4Gyz8DRb+Lija3pHPeavjXhAKoDwT+oW59zd9/hdenI05tTIZGw1wUnJwsGBAGCBFbMIB6ZmZfP4HQJkSLb6jeq/nc5KkJyexb64ACPE6XajeG2RpW7jUeOnJH7hPCZiVG1arNXN/N+41RDDoXz4rUXp8LJt8qzgVDHN7Kx2zEkgLsJpegtFR0NS+lDL3w+jLi/nsNwDDsRqNqaCdWK3WdNR8OjoUYAThNYzqvxMwEsmBgezri7JENPTFBbiHP+bWib4WCqQFmENTrG5XJnYjwCmqx1/Q0ll6eChflEu0Ggut3dTKUEHbpeHfE+2nfVluYIok+4OhpQvVd7MhJucrAvk5ovLgUmKl4d+bTHlcXCI99h2AkOr/twG1+hpA1+2ISoQQctlv2NeXACPhP6czt7cwD//Fy1ySROgM9HuOqFSY21uYG2u4nLcAIzDHFqTvz3j93oZWyvhBfo5AGD/ouh2BMH6QnyMQxg/ycwTC+EF+jkAYP8jPEQjjB/k5AmH8ID9HIIwf5OcIhPGD/ByBMH6QnyMQxg/ycwTC+Pl/YH/7xeuRNYUAAAAASUVORK5CYII=;" vertex="1" parent="1">
          <mxGeometry x="1150" y="160" width="1120.67" height="350" as="geometry" />
        </mxCell>
        <mxCell id="DSl8sD201AtZQCHesUCh-65" style="edgeStyle=orthogonalEdgeStyle;rounded=0;orthogonalLoop=1;jettySize=auto;html=1;entryX=0.585;entryY=-0.005;entryDx=0;entryDy=0;entryPerimeter=0;strokeWidth=12;" edge="1" parent="1" source="DSl8sD201AtZQCHesUCh-62" target="DSl8sD201AtZQCHesUCh-61">
          <mxGeometry relative="1" as="geometry" />
        </mxCell>
        <mxCell id="DSl8sD201AtZQCHesUCh-67" style="edgeStyle=orthogonalEdgeStyle;rounded=0;orthogonalLoop=1;jettySize=auto;html=1;entryX=0.466;entryY=0;entryDx=0;entryDy=0;entryPerimeter=0;strokeWidth=12;" edge="1" parent="1" source="DSl8sD201AtZQCHesUCh-50" target="DSl8sD201AtZQCHesUCh-51">
          <mxGeometry relative="1" as="geometry">
            <Array as="points">
              <mxPoint x="3164" y="695" />
              <mxPoint x="3164" y="40" />
              <mxPoint x="3694" y="40" />
            </Array>
          </mxGeometry>
        </mxCell>
      </root>
    </mxGraphModel>
  </diagram>
</mxfile>
